%TF.GenerationSoftware,KiCad,Pcbnew,7.0.10*%
%TF.CreationDate,2024-02-02T07:47:17+01:00*%
%TF.ProjectId,stm32_esp32_pcb,73746d33-325f-4657-9370-33325f706362,rev?*%
%TF.SameCoordinates,Original*%
%TF.FileFunction,Copper,L4,Bot*%
%TF.FilePolarity,Positive*%
%FSLAX46Y46*%
G04 Gerber Fmt 4.6, Leading zero omitted, Abs format (unit mm)*
G04 Created by KiCad (PCBNEW 7.0.10) date 2024-02-02 07:47:17*
%MOMM*%
%LPD*%
G01*
G04 APERTURE LIST*
%TA.AperFunction,HeatsinkPad*%
%ADD10C,0.600000*%
%TD*%
%TA.AperFunction,ComponentPad*%
%ADD11R,1.700000X1.700000*%
%TD*%
%TA.AperFunction,ComponentPad*%
%ADD12O,1.700000X1.700000*%
%TD*%
%TA.AperFunction,ComponentPad*%
%ADD13C,1.440000*%
%TD*%
%TA.AperFunction,ComponentPad*%
%ADD14C,2.000000*%
%TD*%
%TA.AperFunction,ComponentPad*%
%ADD15C,1.000000*%
%TD*%
%TA.AperFunction,ComponentPad*%
%ADD16C,2.400000*%
%TD*%
%TA.AperFunction,ViaPad*%
%ADD17C,0.450000*%
%TD*%
%TA.AperFunction,ViaPad*%
%ADD18C,0.650000*%
%TD*%
%TA.AperFunction,Conductor*%
%ADD19C,0.200000*%
%TD*%
%TA.AperFunction,Conductor*%
%ADD20C,0.500000*%
%TD*%
G04 APERTURE END LIST*
D10*
%TO.P,U4,39,GND*%
%TO.N,GND*%
X182800000Y-80800000D03*
X182800000Y-79400000D03*
X182100000Y-81500000D03*
X182100000Y-80100000D03*
X182100000Y-78700000D03*
X181400000Y-80800000D03*
X181400000Y-79400000D03*
X180700000Y-81500000D03*
X180700000Y-80100000D03*
X180700000Y-78700000D03*
X180000000Y-80800000D03*
X180000000Y-79400000D03*
%TD*%
D11*
%TO.P,J1,1,Pin_1*%
%TO.N,+3V3*%
X158710000Y-59500000D03*
D12*
%TO.P,J1,2,Pin_2*%
%TO.N,/SWCLK*%
X161250000Y-59500000D03*
%TO.P,J1,3,Pin_3*%
%TO.N,GND*%
X163790000Y-59500000D03*
%TO.P,J1,4,Pin_4*%
%TO.N,/SWDIO*%
X166330000Y-59500000D03*
%TO.P,J1,5,Pin_5*%
%TO.N,/NRST*%
X168870000Y-59500000D03*
%TO.P,J1,6,Pin_6*%
%TO.N,/SWO*%
X171410000Y-59500000D03*
%TD*%
D11*
%TO.P,J5,1,Pin_1*%
%TO.N,/STM32*%
X155050000Y-59525000D03*
D12*
%TO.P,J5,2,Pin_2*%
%TO.N,GND*%
X155050000Y-56985000D03*
%TD*%
D13*
%TO.P,RV1,1,1*%
%TO.N,Net-(U2A--)*%
X200925000Y-59220000D03*
%TO.P,RV1,2,2*%
%TO.N,Net-(R9-Pad1)*%
X200925000Y-61760000D03*
%TO.P,RV1,3,3*%
X200925000Y-64300000D03*
%TD*%
D11*
%TO.P,J4,1,Pin_1*%
%TO.N,/ESP32*%
X175200000Y-59475000D03*
D12*
%TO.P,J4,2,Pin_2*%
%TO.N,GND*%
X175200000Y-56935000D03*
%TD*%
D11*
%TO.P,J3,1,Pin_1*%
%TO.N,/EMITER*%
X199300000Y-73450000D03*
D12*
%TO.P,J3,2,Pin_2*%
%TO.N,+3V3*%
X199300000Y-75990000D03*
%TD*%
D14*
%TO.P,MOD1,1,+*%
%TO.N,unconnected-(MOD1-+-Pad1)*%
X136000000Y-87000000D03*
%TO.P,MOD1,2,-*%
%TO.N,unconnected-(MOD1---Pad2)*%
X150000000Y-87000000D03*
%TO.P,MOD1,3,OUT+*%
%TO.N,VBUS*%
X136000000Y-64000000D03*
%TO.P,MOD1,4,OUT-*%
%TO.N,GND*%
X150000000Y-64000000D03*
%TO.P,MOD1,5,B+*%
%TO.N,/B+*%
X138540000Y-64000000D03*
%TO.P,MOD1,6,B-*%
%TO.N,/B-*%
X147460000Y-64000000D03*
%TD*%
D15*
%TO.P,Y1,1,1*%
%TO.N,/OSC2*%
X153850000Y-78000000D03*
%TO.P,Y1,2,2*%
%TO.N,/OSC1*%
X155750000Y-78000000D03*
%TD*%
D11*
%TO.P,J2,1,Pin_1*%
%TO.N,+3.3VDAC*%
X178960000Y-59500000D03*
D12*
%TO.P,J2,2,Pin_2*%
%TO.N,/RX*%
X181500000Y-59500000D03*
%TO.P,J2,3,Pin_3*%
%TO.N,GND*%
X184040000Y-59500000D03*
%TO.P,J2,4,Pin_4*%
%TO.N,/TX*%
X186580000Y-59500000D03*
%TO.P,J2,5,Pin_5*%
%TO.N,/EN*%
X189120000Y-59500000D03*
%TO.P,J2,6,Pin_6*%
%TO.N,/IO00*%
X191660000Y-59500000D03*
%TD*%
D16*
%TO.P,BT1,1+*%
%TO.N,/B+*%
X132100000Y-79000000D03*
%TO.P,BT1,1-*%
%TO.N,/B-*%
X205000000Y-79000000D03*
%TO.P,BT1,2+*%
%TO.N,/B+*%
X132100000Y-59700000D03*
%TO.P,BT1,2-*%
%TO.N,/B-*%
X205000000Y-59700000D03*
%TD*%
D17*
%TO.N,/ESP32_E*%
X162700000Y-81300000D03*
X198100000Y-82300000D03*
%TO.N,/RX*%
X172500000Y-83800000D03*
%TO.N,/PULSE*%
X191600000Y-68100000D03*
X168850000Y-85200000D03*
%TO.N,/SCL*%
X164950000Y-78700000D03*
X173300000Y-85100000D03*
X190650000Y-81750000D03*
%TO.N,/SDA*%
X174250000Y-81315000D03*
X190650000Y-80200000D03*
%TO.N,/TX*%
X172500000Y-82600000D03*
%TO.N,/BOOT0*%
X169700000Y-72425000D03*
X165600000Y-66150000D03*
X161900000Y-76800000D03*
%TO.N,/NRST*%
X161900000Y-78700000D03*
X169550000Y-76300000D03*
D18*
%TO.N,+3V3*%
X193000000Y-72000000D03*
X197650000Y-71975000D03*
X159400000Y-79400000D03*
X199700000Y-79600000D03*
X169000000Y-79600000D03*
X160225000Y-69075000D03*
X170600000Y-66787500D03*
%TO.N,GND*%
X153850000Y-74025000D03*
X193800000Y-87300000D03*
X162550000Y-68250000D03*
X194450000Y-83400000D03*
X152300000Y-63900000D03*
X153200000Y-63900000D03*
X155500000Y-72600000D03*
X162550000Y-66750000D03*
X204000000Y-71750000D03*
X158000000Y-72600000D03*
X164837500Y-75400000D03*
X155750000Y-74025000D03*
X154600000Y-67750000D03*
X204000000Y-65250000D03*
X196350000Y-83000000D03*
X185600000Y-68850000D03*
X169900000Y-87650000D03*
X158500000Y-81875000D03*
X205500000Y-84500000D03*
X205500000Y-83500000D03*
X192100000Y-66400000D03*
X196750000Y-74350000D03*
X164800000Y-69300000D03*
X152700000Y-73775000D03*
X169000000Y-81100000D03*
X194500000Y-72000000D03*
X205500000Y-62237500D03*
X193750000Y-88150000D03*
D17*
%TO.N,/IO00*%
X191050000Y-64750000D03*
X176100000Y-68400000D03*
D18*
%TO.N,+3.3VDAC*%
X192300000Y-75250000D03*
X194800000Y-64800000D03*
%TO.N,VBUS*%
X205500000Y-86500000D03*
X205500000Y-85300003D03*
X154100000Y-66800000D03*
%TD*%
D19*
%TO.N,/ESP32_E*%
X162700000Y-81300000D02*
X168400000Y-87000000D01*
X168400000Y-87000000D02*
X189350000Y-87000000D01*
X194050000Y-82300000D02*
X198100000Y-82300000D01*
X189350000Y-87000000D02*
X194050000Y-82300000D01*
%TO.N,/RX*%
X187850000Y-63100000D02*
X187850000Y-58650000D01*
X187100000Y-57900000D02*
X183100000Y-57900000D01*
X173100000Y-70350000D02*
X176800000Y-66650000D01*
X187850000Y-58650000D02*
X187100000Y-57900000D01*
X183100000Y-57900000D02*
X181500000Y-59500000D01*
X172500000Y-83800000D02*
X173100000Y-83200000D01*
X173100000Y-83200000D02*
X173100000Y-70350000D01*
X176800000Y-66650000D02*
X184300000Y-66650000D01*
X184300000Y-66650000D02*
X187850000Y-63100000D01*
%TO.N,/PULSE*%
X173750000Y-83450000D02*
X173750000Y-71750000D01*
X173750000Y-71750000D02*
X177700000Y-67800000D01*
X188800000Y-67800000D02*
X189100000Y-68100000D01*
X168850000Y-85200000D02*
X172000000Y-85200000D01*
X177700000Y-67800000D02*
X188800000Y-67800000D01*
X172000000Y-85200000D02*
X173750000Y-83450000D01*
X189100000Y-68100000D02*
X191600000Y-68100000D01*
%TO.N,/SCL*%
X164950000Y-82800000D02*
X164950000Y-78700000D01*
X173300000Y-85100000D02*
X174650000Y-86450000D01*
X167950000Y-85800000D02*
X164950000Y-82800000D01*
X172600000Y-85800000D02*
X167950000Y-85800000D01*
X190650000Y-84250000D02*
X190650000Y-81750000D01*
X173300000Y-85100000D02*
X172600000Y-85800000D01*
X174650000Y-86450000D02*
X188450000Y-86450000D01*
X188450000Y-86450000D02*
X190650000Y-84250000D01*
%TO.N,/SDA*%
X174250000Y-81315000D02*
X174250000Y-84850000D01*
X188300000Y-85850000D02*
X190000000Y-84150000D01*
X175250000Y-85850000D02*
X188300000Y-85850000D01*
X174250000Y-84850000D02*
X175250000Y-85850000D01*
X190000000Y-84150000D02*
X190000000Y-80850000D01*
X190000000Y-80850000D02*
X190650000Y-80200000D01*
%TO.N,/TX*%
X183950000Y-66050000D02*
X186580000Y-63420000D01*
X186580000Y-63420000D02*
X186580000Y-59500000D01*
X172500000Y-82600000D02*
X172500000Y-70000000D01*
X172500000Y-70000000D02*
X176450000Y-66050000D01*
X176450000Y-66050000D02*
X183950000Y-66050000D01*
%TO.N,/BOOT0*%
X169700000Y-70250000D02*
X165600000Y-66150000D01*
X169700000Y-74500000D02*
X167400000Y-76800000D01*
X167400000Y-76800000D02*
X161900000Y-76800000D01*
X169700000Y-72425000D02*
X169700000Y-74500000D01*
X169700000Y-72425000D02*
X169700000Y-70250000D01*
%TO.N,/NRST*%
X168400000Y-77450000D02*
X163150000Y-77450000D01*
X163150000Y-77450000D02*
X161900000Y-78700000D01*
X169550000Y-76300000D02*
X168400000Y-77450000D01*
%TO.N,/IO00*%
X177250000Y-67250000D02*
X188550000Y-67250000D01*
X176100000Y-68400000D02*
X177250000Y-67250000D01*
X188550000Y-67250000D02*
X191050000Y-64750000D01*
D20*
%TO.N,+3.3VDAC*%
X180100000Y-57000000D02*
X178960000Y-58140000D01*
X194100000Y-59000000D02*
X192100000Y-57000000D01*
X194100000Y-64100000D02*
X194100000Y-59000000D01*
X194800000Y-64800000D02*
X194100000Y-64100000D01*
X192100000Y-57000000D02*
X180100000Y-57000000D01*
X178960000Y-58140000D02*
X178960000Y-59500000D01*
X192300000Y-75250000D02*
X195500000Y-72050000D01*
X195500000Y-72050000D02*
X195500000Y-65500000D01*
X195500000Y-65500000D02*
X194800000Y-64800000D01*
%TD*%
M02*
