%TF.GenerationSoftware,KiCad,Pcbnew,7.0.10*%
%TF.CreationDate,2024-02-02T07:34:31+01:00*%
%TF.ProjectId,stm32_esp32_pcb,73746d33-325f-4657-9370-33325f706362,rev?*%
%TF.SameCoordinates,Original*%
%TF.FileFunction,Legend,Bot*%
%TF.FilePolarity,Positive*%
%FSLAX46Y46*%
G04 Gerber Fmt 4.6, Leading zero omitted, Abs format (unit mm)*
G04 Created by KiCad (PCBNEW 7.0.10) date 2024-02-02 07:34:31*
%MOMM*%
%LPD*%
G01*
G04 APERTURE LIST*
%ADD10C,0.100000*%
%ADD11C,0.127000*%
G04 APERTURE END LIST*
D10*
X133503571Y-90340847D02*
X133389285Y-90378942D01*
X133389285Y-90378942D02*
X133351190Y-90417038D01*
X133351190Y-90417038D02*
X133313094Y-90493228D01*
X133313094Y-90493228D02*
X133313094Y-90607514D01*
X133313094Y-90607514D02*
X133351190Y-90683704D01*
X133351190Y-90683704D02*
X133389285Y-90721800D01*
X133389285Y-90721800D02*
X133465475Y-90759895D01*
X133465475Y-90759895D02*
X133770237Y-90759895D01*
X133770237Y-90759895D02*
X133770237Y-89959895D01*
X133770237Y-89959895D02*
X133503571Y-89959895D01*
X133503571Y-89959895D02*
X133427380Y-89997990D01*
X133427380Y-89997990D02*
X133389285Y-90036085D01*
X133389285Y-90036085D02*
X133351190Y-90112276D01*
X133351190Y-90112276D02*
X133351190Y-90188466D01*
X133351190Y-90188466D02*
X133389285Y-90264657D01*
X133389285Y-90264657D02*
X133427380Y-90302752D01*
X133427380Y-90302752D02*
X133503571Y-90340847D01*
X133503571Y-90340847D02*
X133770237Y-90340847D01*
X133084523Y-89959895D02*
X132627380Y-89959895D01*
X132855952Y-90759895D02*
X132855952Y-89959895D01*
X131941666Y-90759895D02*
X132398809Y-90759895D01*
X132170237Y-90759895D02*
X132170237Y-89959895D01*
X132170237Y-89959895D02*
X132246428Y-90074180D01*
X132246428Y-90074180D02*
X132322618Y-90150371D01*
X132322618Y-90150371D02*
X132398809Y-90188466D01*
D11*
%TO.C,BT1*%
X129850000Y-49245000D02*
X129850000Y-89455000D01*
X129850000Y-89455000D02*
X207550000Y-89455000D01*
X207550000Y-49245000D02*
X129850000Y-49245000D01*
X207550000Y-89455000D02*
X207550000Y-49245000D01*
%TD*%
M02*
