%TF.GenerationSoftware,KiCad,Pcbnew,7.0.10*%
%TF.CreationDate,2024-02-02T07:34:27+01:00*%
%TF.ProjectId,stm32_esp32_pcb,73746d33-325f-4657-9370-33325f706362,rev?*%
%TF.SameCoordinates,Original*%
%TF.FileFunction,Drillmap*%
%TF.FilePolarity,Positive*%
%FSLAX45Y45*%
G04 Gerber Fmt 4.5, Leading zero omitted, Abs format (unit mm)*
G04 Created by KiCad (PCBNEW 7.0.10) date 2024-02-02 07:34:27*
%MOMM*%
%LPD*%
G01*
G04 APERTURE LIST*
%ADD10C,0.100000*%
%ADD11C,0.050000*%
%ADD12C,0.200000*%
%ADD13C,0.320000*%
G04 APERTURE END LIST*
D10*
X21000000Y-4900000D02*
X21000000Y-8975000D01*
D11*
X20327500Y-7600000D02*
G75*
G03*
X20227500Y-7600000I-50000J0D01*
G01*
X20227500Y-7600000D02*
G75*
G03*
X20327500Y-7600000I50000J0D01*
G01*
D10*
X12950000Y-8975000D02*
X12950000Y-4900000D01*
D11*
X20325000Y-7350000D02*
G75*
G03*
X20225000Y-7350000I-50000J0D01*
G01*
X20225000Y-7350000D02*
G75*
G03*
X20325000Y-7350000I50000J0D01*
G01*
D10*
X12950000Y-4900000D02*
X21000000Y-4900000D01*
X21000000Y-8975000D02*
X12950000Y-8975000D01*
D12*
D13*
X13929000Y-5810000D02*
X14249000Y-6130000D01*
X14249000Y-5810000D02*
X13929000Y-6130000D01*
X13929000Y-7740000D02*
X14249000Y-8060000D01*
X14249000Y-7740000D02*
X13929000Y-8060000D01*
X19491000Y-5810000D02*
X19811000Y-6130000D01*
X19811000Y-5810000D02*
X19491000Y-6130000D01*
X19491000Y-7740000D02*
X19811000Y-8060000D01*
X19811000Y-7740000D02*
X19491000Y-8060000D01*
D12*
X13205777Y-9291484D02*
X13205777Y-9091484D01*
X13205777Y-9091484D02*
X13253396Y-9091484D01*
X13253396Y-9091484D02*
X13281967Y-9101008D01*
X13281967Y-9101008D02*
X13301015Y-9120055D01*
X13301015Y-9120055D02*
X13310539Y-9139103D01*
X13310539Y-9139103D02*
X13320062Y-9177198D01*
X13320062Y-9177198D02*
X13320062Y-9205770D01*
X13320062Y-9205770D02*
X13310539Y-9243865D01*
X13310539Y-9243865D02*
X13301015Y-9262912D01*
X13301015Y-9262912D02*
X13281967Y-9281960D01*
X13281967Y-9281960D02*
X13253396Y-9291484D01*
X13253396Y-9291484D02*
X13205777Y-9291484D01*
X13405777Y-9291484D02*
X13405777Y-9158150D01*
X13405777Y-9196246D02*
X13415301Y-9177198D01*
X13415301Y-9177198D02*
X13424824Y-9167674D01*
X13424824Y-9167674D02*
X13443872Y-9158150D01*
X13443872Y-9158150D02*
X13462920Y-9158150D01*
X13529586Y-9291484D02*
X13529586Y-9158150D01*
X13529586Y-9091484D02*
X13520062Y-9101008D01*
X13520062Y-9101008D02*
X13529586Y-9110531D01*
X13529586Y-9110531D02*
X13539110Y-9101008D01*
X13539110Y-9101008D02*
X13529586Y-9091484D01*
X13529586Y-9091484D02*
X13529586Y-9110531D01*
X13653396Y-9291484D02*
X13634348Y-9281960D01*
X13634348Y-9281960D02*
X13624824Y-9262912D01*
X13624824Y-9262912D02*
X13624824Y-9091484D01*
X13758158Y-9291484D02*
X13739110Y-9281960D01*
X13739110Y-9281960D02*
X13729586Y-9262912D01*
X13729586Y-9262912D02*
X13729586Y-9091484D01*
X13986729Y-9291484D02*
X13986729Y-9091484D01*
X13986729Y-9091484D02*
X14053396Y-9234341D01*
X14053396Y-9234341D02*
X14120062Y-9091484D01*
X14120062Y-9091484D02*
X14120062Y-9291484D01*
X14301015Y-9291484D02*
X14301015Y-9186722D01*
X14301015Y-9186722D02*
X14291491Y-9167674D01*
X14291491Y-9167674D02*
X14272443Y-9158150D01*
X14272443Y-9158150D02*
X14234348Y-9158150D01*
X14234348Y-9158150D02*
X14215301Y-9167674D01*
X14301015Y-9281960D02*
X14281967Y-9291484D01*
X14281967Y-9291484D02*
X14234348Y-9291484D01*
X14234348Y-9291484D02*
X14215301Y-9281960D01*
X14215301Y-9281960D02*
X14205777Y-9262912D01*
X14205777Y-9262912D02*
X14205777Y-9243865D01*
X14205777Y-9243865D02*
X14215301Y-9224817D01*
X14215301Y-9224817D02*
X14234348Y-9215293D01*
X14234348Y-9215293D02*
X14281967Y-9215293D01*
X14281967Y-9215293D02*
X14301015Y-9205770D01*
X14396253Y-9158150D02*
X14396253Y-9358150D01*
X14396253Y-9167674D02*
X14415301Y-9158150D01*
X14415301Y-9158150D02*
X14453396Y-9158150D01*
X14453396Y-9158150D02*
X14472443Y-9167674D01*
X14472443Y-9167674D02*
X14481967Y-9177198D01*
X14481967Y-9177198D02*
X14491491Y-9196246D01*
X14491491Y-9196246D02*
X14491491Y-9253389D01*
X14491491Y-9253389D02*
X14481967Y-9272436D01*
X14481967Y-9272436D02*
X14472443Y-9281960D01*
X14472443Y-9281960D02*
X14453396Y-9291484D01*
X14453396Y-9291484D02*
X14415301Y-9291484D01*
X14415301Y-9291484D02*
X14396253Y-9281960D01*
X14577205Y-9272436D02*
X14586729Y-9281960D01*
X14586729Y-9281960D02*
X14577205Y-9291484D01*
X14577205Y-9291484D02*
X14567682Y-9281960D01*
X14567682Y-9281960D02*
X14577205Y-9272436D01*
X14577205Y-9272436D02*
X14577205Y-9291484D01*
X14577205Y-9167674D02*
X14586729Y-9177198D01*
X14586729Y-9177198D02*
X14577205Y-9186722D01*
X14577205Y-9186722D02*
X14567682Y-9177198D01*
X14567682Y-9177198D02*
X14577205Y-9167674D01*
X14577205Y-9167674D02*
X14577205Y-9186722D01*
X12745000Y-9520000D02*
X12945000Y-9720000D01*
X12945000Y-9520000D02*
X12745000Y-9720000D01*
X13186729Y-9511484D02*
X13310539Y-9511484D01*
X13310539Y-9511484D02*
X13243872Y-9587674D01*
X13243872Y-9587674D02*
X13272443Y-9587674D01*
X13272443Y-9587674D02*
X13291491Y-9597198D01*
X13291491Y-9597198D02*
X13301015Y-9606722D01*
X13301015Y-9606722D02*
X13310539Y-9625770D01*
X13310539Y-9625770D02*
X13310539Y-9673389D01*
X13310539Y-9673389D02*
X13301015Y-9692436D01*
X13301015Y-9692436D02*
X13291491Y-9701960D01*
X13291491Y-9701960D02*
X13272443Y-9711484D01*
X13272443Y-9711484D02*
X13215301Y-9711484D01*
X13215301Y-9711484D02*
X13196253Y-9701960D01*
X13196253Y-9701960D02*
X13186729Y-9692436D01*
X13396253Y-9692436D02*
X13405777Y-9701960D01*
X13405777Y-9701960D02*
X13396253Y-9711484D01*
X13396253Y-9711484D02*
X13386729Y-9701960D01*
X13386729Y-9701960D02*
X13396253Y-9692436D01*
X13396253Y-9692436D02*
X13396253Y-9711484D01*
X13481967Y-9530531D02*
X13491491Y-9521008D01*
X13491491Y-9521008D02*
X13510539Y-9511484D01*
X13510539Y-9511484D02*
X13558158Y-9511484D01*
X13558158Y-9511484D02*
X13577205Y-9521008D01*
X13577205Y-9521008D02*
X13586729Y-9530531D01*
X13586729Y-9530531D02*
X13596253Y-9549579D01*
X13596253Y-9549579D02*
X13596253Y-9568627D01*
X13596253Y-9568627D02*
X13586729Y-9597198D01*
X13586729Y-9597198D02*
X13472443Y-9711484D01*
X13472443Y-9711484D02*
X13596253Y-9711484D01*
X13720062Y-9511484D02*
X13739110Y-9511484D01*
X13739110Y-9511484D02*
X13758158Y-9521008D01*
X13758158Y-9521008D02*
X13767682Y-9530531D01*
X13767682Y-9530531D02*
X13777205Y-9549579D01*
X13777205Y-9549579D02*
X13786729Y-9587674D01*
X13786729Y-9587674D02*
X13786729Y-9635293D01*
X13786729Y-9635293D02*
X13777205Y-9673389D01*
X13777205Y-9673389D02*
X13767682Y-9692436D01*
X13767682Y-9692436D02*
X13758158Y-9701960D01*
X13758158Y-9701960D02*
X13739110Y-9711484D01*
X13739110Y-9711484D02*
X13720062Y-9711484D01*
X13720062Y-9711484D02*
X13701015Y-9701960D01*
X13701015Y-9701960D02*
X13691491Y-9692436D01*
X13691491Y-9692436D02*
X13681967Y-9673389D01*
X13681967Y-9673389D02*
X13672443Y-9635293D01*
X13672443Y-9635293D02*
X13672443Y-9587674D01*
X13672443Y-9587674D02*
X13681967Y-9549579D01*
X13681967Y-9549579D02*
X13691491Y-9530531D01*
X13691491Y-9530531D02*
X13701015Y-9521008D01*
X13701015Y-9521008D02*
X13720062Y-9511484D01*
X13910539Y-9511484D02*
X13929586Y-9511484D01*
X13929586Y-9511484D02*
X13948634Y-9521008D01*
X13948634Y-9521008D02*
X13958158Y-9530531D01*
X13958158Y-9530531D02*
X13967682Y-9549579D01*
X13967682Y-9549579D02*
X13977205Y-9587674D01*
X13977205Y-9587674D02*
X13977205Y-9635293D01*
X13977205Y-9635293D02*
X13967682Y-9673389D01*
X13967682Y-9673389D02*
X13958158Y-9692436D01*
X13958158Y-9692436D02*
X13948634Y-9701960D01*
X13948634Y-9701960D02*
X13929586Y-9711484D01*
X13929586Y-9711484D02*
X13910539Y-9711484D01*
X13910539Y-9711484D02*
X13891491Y-9701960D01*
X13891491Y-9701960D02*
X13881967Y-9692436D01*
X13881967Y-9692436D02*
X13872443Y-9673389D01*
X13872443Y-9673389D02*
X13862920Y-9635293D01*
X13862920Y-9635293D02*
X13862920Y-9587674D01*
X13862920Y-9587674D02*
X13872443Y-9549579D01*
X13872443Y-9549579D02*
X13881967Y-9530531D01*
X13881967Y-9530531D02*
X13891491Y-9521008D01*
X13891491Y-9521008D02*
X13910539Y-9511484D01*
X14062920Y-9711484D02*
X14062920Y-9578150D01*
X14062920Y-9597198D02*
X14072443Y-9587674D01*
X14072443Y-9587674D02*
X14091491Y-9578150D01*
X14091491Y-9578150D02*
X14120063Y-9578150D01*
X14120063Y-9578150D02*
X14139110Y-9587674D01*
X14139110Y-9587674D02*
X14148634Y-9606722D01*
X14148634Y-9606722D02*
X14148634Y-9711484D01*
X14148634Y-9606722D02*
X14158158Y-9587674D01*
X14158158Y-9587674D02*
X14177205Y-9578150D01*
X14177205Y-9578150D02*
X14205777Y-9578150D01*
X14205777Y-9578150D02*
X14224824Y-9587674D01*
X14224824Y-9587674D02*
X14234348Y-9606722D01*
X14234348Y-9606722D02*
X14234348Y-9711484D01*
X14329586Y-9711484D02*
X14329586Y-9578150D01*
X14329586Y-9597198D02*
X14339110Y-9587674D01*
X14339110Y-9587674D02*
X14358158Y-9578150D01*
X14358158Y-9578150D02*
X14386729Y-9578150D01*
X14386729Y-9578150D02*
X14405777Y-9587674D01*
X14405777Y-9587674D02*
X14415301Y-9606722D01*
X14415301Y-9606722D02*
X14415301Y-9711484D01*
X14415301Y-9606722D02*
X14424824Y-9587674D01*
X14424824Y-9587674D02*
X14443872Y-9578150D01*
X14443872Y-9578150D02*
X14472443Y-9578150D01*
X14472443Y-9578150D02*
X14491491Y-9587674D01*
X14491491Y-9587674D02*
X14501015Y-9606722D01*
X14501015Y-9606722D02*
X14501015Y-9711484D01*
X14891491Y-9501960D02*
X14720063Y-9759103D01*
X15148634Y-9511484D02*
X15167682Y-9511484D01*
X15167682Y-9511484D02*
X15186729Y-9521008D01*
X15186729Y-9521008D02*
X15196253Y-9530531D01*
X15196253Y-9530531D02*
X15205777Y-9549579D01*
X15205777Y-9549579D02*
X15215301Y-9587674D01*
X15215301Y-9587674D02*
X15215301Y-9635293D01*
X15215301Y-9635293D02*
X15205777Y-9673389D01*
X15205777Y-9673389D02*
X15196253Y-9692436D01*
X15196253Y-9692436D02*
X15186729Y-9701960D01*
X15186729Y-9701960D02*
X15167682Y-9711484D01*
X15167682Y-9711484D02*
X15148634Y-9711484D01*
X15148634Y-9711484D02*
X15129586Y-9701960D01*
X15129586Y-9701960D02*
X15120063Y-9692436D01*
X15120063Y-9692436D02*
X15110539Y-9673389D01*
X15110539Y-9673389D02*
X15101015Y-9635293D01*
X15101015Y-9635293D02*
X15101015Y-9587674D01*
X15101015Y-9587674D02*
X15110539Y-9549579D01*
X15110539Y-9549579D02*
X15120063Y-9530531D01*
X15120063Y-9530531D02*
X15129586Y-9521008D01*
X15129586Y-9521008D02*
X15148634Y-9511484D01*
X15301015Y-9692436D02*
X15310539Y-9701960D01*
X15310539Y-9701960D02*
X15301015Y-9711484D01*
X15301015Y-9711484D02*
X15291491Y-9701960D01*
X15291491Y-9701960D02*
X15301015Y-9692436D01*
X15301015Y-9692436D02*
X15301015Y-9711484D01*
X15501015Y-9711484D02*
X15386729Y-9711484D01*
X15443872Y-9711484D02*
X15443872Y-9511484D01*
X15443872Y-9511484D02*
X15424825Y-9540055D01*
X15424825Y-9540055D02*
X15405777Y-9559103D01*
X15405777Y-9559103D02*
X15386729Y-9568627D01*
X15577206Y-9530531D02*
X15586729Y-9521008D01*
X15586729Y-9521008D02*
X15605777Y-9511484D01*
X15605777Y-9511484D02*
X15653396Y-9511484D01*
X15653396Y-9511484D02*
X15672444Y-9521008D01*
X15672444Y-9521008D02*
X15681967Y-9530531D01*
X15681967Y-9530531D02*
X15691491Y-9549579D01*
X15691491Y-9549579D02*
X15691491Y-9568627D01*
X15691491Y-9568627D02*
X15681967Y-9597198D01*
X15681967Y-9597198D02*
X15567682Y-9711484D01*
X15567682Y-9711484D02*
X15691491Y-9711484D01*
X15862920Y-9511484D02*
X15824825Y-9511484D01*
X15824825Y-9511484D02*
X15805777Y-9521008D01*
X15805777Y-9521008D02*
X15796253Y-9530531D01*
X15796253Y-9530531D02*
X15777206Y-9559103D01*
X15777206Y-9559103D02*
X15767682Y-9597198D01*
X15767682Y-9597198D02*
X15767682Y-9673389D01*
X15767682Y-9673389D02*
X15777206Y-9692436D01*
X15777206Y-9692436D02*
X15786729Y-9701960D01*
X15786729Y-9701960D02*
X15805777Y-9711484D01*
X15805777Y-9711484D02*
X15843872Y-9711484D01*
X15843872Y-9711484D02*
X15862920Y-9701960D01*
X15862920Y-9701960D02*
X15872444Y-9692436D01*
X15872444Y-9692436D02*
X15881967Y-9673389D01*
X15881967Y-9673389D02*
X15881967Y-9625770D01*
X15881967Y-9625770D02*
X15872444Y-9606722D01*
X15872444Y-9606722D02*
X15862920Y-9597198D01*
X15862920Y-9597198D02*
X15843872Y-9587674D01*
X15843872Y-9587674D02*
X15805777Y-9587674D01*
X15805777Y-9587674D02*
X15786729Y-9597198D01*
X15786729Y-9597198D02*
X15777206Y-9606722D01*
X15777206Y-9606722D02*
X15767682Y-9625770D01*
X16005777Y-9511484D02*
X16024825Y-9511484D01*
X16024825Y-9511484D02*
X16043872Y-9521008D01*
X16043872Y-9521008D02*
X16053396Y-9530531D01*
X16053396Y-9530531D02*
X16062920Y-9549579D01*
X16062920Y-9549579D02*
X16072444Y-9587674D01*
X16072444Y-9587674D02*
X16072444Y-9635293D01*
X16072444Y-9635293D02*
X16062920Y-9673389D01*
X16062920Y-9673389D02*
X16053396Y-9692436D01*
X16053396Y-9692436D02*
X16043872Y-9701960D01*
X16043872Y-9701960D02*
X16024825Y-9711484D01*
X16024825Y-9711484D02*
X16005777Y-9711484D01*
X16005777Y-9711484D02*
X15986729Y-9701960D01*
X15986729Y-9701960D02*
X15977206Y-9692436D01*
X15977206Y-9692436D02*
X15967682Y-9673389D01*
X15967682Y-9673389D02*
X15958158Y-9635293D01*
X15958158Y-9635293D02*
X15958158Y-9587674D01*
X15958158Y-9587674D02*
X15967682Y-9549579D01*
X15967682Y-9549579D02*
X15977206Y-9530531D01*
X15977206Y-9530531D02*
X15986729Y-9521008D01*
X15986729Y-9521008D02*
X16005777Y-9511484D01*
X16148634Y-9511484D02*
X16148634Y-9549579D01*
X16224825Y-9511484D02*
X16224825Y-9549579D01*
X16520063Y-9787674D02*
X16510539Y-9778150D01*
X16510539Y-9778150D02*
X16491491Y-9749579D01*
X16491491Y-9749579D02*
X16481968Y-9730531D01*
X16481968Y-9730531D02*
X16472444Y-9701960D01*
X16472444Y-9701960D02*
X16462920Y-9654341D01*
X16462920Y-9654341D02*
X16462920Y-9616246D01*
X16462920Y-9616246D02*
X16472444Y-9568627D01*
X16472444Y-9568627D02*
X16481968Y-9540055D01*
X16481968Y-9540055D02*
X16491491Y-9521008D01*
X16491491Y-9521008D02*
X16510539Y-9492436D01*
X16510539Y-9492436D02*
X16520063Y-9482912D01*
X16681968Y-9578150D02*
X16681968Y-9711484D01*
X16634348Y-9501960D02*
X16586729Y-9644817D01*
X16586729Y-9644817D02*
X16710539Y-9644817D01*
X16939111Y-9711484D02*
X16939111Y-9511484D01*
X17024825Y-9711484D02*
X17024825Y-9606722D01*
X17024825Y-9606722D02*
X17015301Y-9587674D01*
X17015301Y-9587674D02*
X16996253Y-9578150D01*
X16996253Y-9578150D02*
X16967682Y-9578150D01*
X16967682Y-9578150D02*
X16948634Y-9587674D01*
X16948634Y-9587674D02*
X16939111Y-9597198D01*
X17148634Y-9711484D02*
X17129587Y-9701960D01*
X17129587Y-9701960D02*
X17120063Y-9692436D01*
X17120063Y-9692436D02*
X17110539Y-9673389D01*
X17110539Y-9673389D02*
X17110539Y-9616246D01*
X17110539Y-9616246D02*
X17120063Y-9597198D01*
X17120063Y-9597198D02*
X17129587Y-9587674D01*
X17129587Y-9587674D02*
X17148634Y-9578150D01*
X17148634Y-9578150D02*
X17177206Y-9578150D01*
X17177206Y-9578150D02*
X17196253Y-9587674D01*
X17196253Y-9587674D02*
X17205777Y-9597198D01*
X17205777Y-9597198D02*
X17215301Y-9616246D01*
X17215301Y-9616246D02*
X17215301Y-9673389D01*
X17215301Y-9673389D02*
X17205777Y-9692436D01*
X17205777Y-9692436D02*
X17196253Y-9701960D01*
X17196253Y-9701960D02*
X17177206Y-9711484D01*
X17177206Y-9711484D02*
X17148634Y-9711484D01*
X17329587Y-9711484D02*
X17310539Y-9701960D01*
X17310539Y-9701960D02*
X17301015Y-9682912D01*
X17301015Y-9682912D02*
X17301015Y-9511484D01*
X17481968Y-9701960D02*
X17462920Y-9711484D01*
X17462920Y-9711484D02*
X17424825Y-9711484D01*
X17424825Y-9711484D02*
X17405777Y-9701960D01*
X17405777Y-9701960D02*
X17396253Y-9682912D01*
X17396253Y-9682912D02*
X17396253Y-9606722D01*
X17396253Y-9606722D02*
X17405777Y-9587674D01*
X17405777Y-9587674D02*
X17424825Y-9578150D01*
X17424825Y-9578150D02*
X17462920Y-9578150D01*
X17462920Y-9578150D02*
X17481968Y-9587674D01*
X17481968Y-9587674D02*
X17491492Y-9606722D01*
X17491492Y-9606722D02*
X17491492Y-9625770D01*
X17491492Y-9625770D02*
X17396253Y-9644817D01*
X17567682Y-9701960D02*
X17586730Y-9711484D01*
X17586730Y-9711484D02*
X17624825Y-9711484D01*
X17624825Y-9711484D02*
X17643873Y-9701960D01*
X17643873Y-9701960D02*
X17653396Y-9682912D01*
X17653396Y-9682912D02*
X17653396Y-9673389D01*
X17653396Y-9673389D02*
X17643873Y-9654341D01*
X17643873Y-9654341D02*
X17624825Y-9644817D01*
X17624825Y-9644817D02*
X17596253Y-9644817D01*
X17596253Y-9644817D02*
X17577206Y-9635293D01*
X17577206Y-9635293D02*
X17567682Y-9616246D01*
X17567682Y-9616246D02*
X17567682Y-9606722D01*
X17567682Y-9606722D02*
X17577206Y-9587674D01*
X17577206Y-9587674D02*
X17596253Y-9578150D01*
X17596253Y-9578150D02*
X17624825Y-9578150D01*
X17624825Y-9578150D02*
X17643873Y-9587674D01*
X17720063Y-9787674D02*
X17729587Y-9778150D01*
X17729587Y-9778150D02*
X17748634Y-9749579D01*
X17748634Y-9749579D02*
X17758158Y-9730531D01*
X17758158Y-9730531D02*
X17767682Y-9701960D01*
X17767682Y-9701960D02*
X17777206Y-9654341D01*
X17777206Y-9654341D02*
X17777206Y-9616246D01*
X17777206Y-9616246D02*
X17767682Y-9568627D01*
X17767682Y-9568627D02*
X17758158Y-9540055D01*
X17758158Y-9540055D02*
X17748634Y-9521008D01*
X17748634Y-9521008D02*
X17729587Y-9492436D01*
X17729587Y-9492436D02*
X17720063Y-9482912D01*
X18081968Y-9787674D02*
X18072444Y-9778150D01*
X18072444Y-9778150D02*
X18053396Y-9749579D01*
X18053396Y-9749579D02*
X18043873Y-9730531D01*
X18043873Y-9730531D02*
X18034349Y-9701960D01*
X18034349Y-9701960D02*
X18024825Y-9654341D01*
X18024825Y-9654341D02*
X18024825Y-9616246D01*
X18024825Y-9616246D02*
X18034349Y-9568627D01*
X18034349Y-9568627D02*
X18043873Y-9540055D01*
X18043873Y-9540055D02*
X18053396Y-9521008D01*
X18053396Y-9521008D02*
X18072444Y-9492436D01*
X18072444Y-9492436D02*
X18081968Y-9482912D01*
X18158158Y-9578150D02*
X18158158Y-9711484D01*
X18158158Y-9597198D02*
X18167682Y-9587674D01*
X18167682Y-9587674D02*
X18186730Y-9578150D01*
X18186730Y-9578150D02*
X18215301Y-9578150D01*
X18215301Y-9578150D02*
X18234349Y-9587674D01*
X18234349Y-9587674D02*
X18243873Y-9606722D01*
X18243873Y-9606722D02*
X18243873Y-9711484D01*
X18367682Y-9711484D02*
X18348634Y-9701960D01*
X18348634Y-9701960D02*
X18339111Y-9692436D01*
X18339111Y-9692436D02*
X18329587Y-9673389D01*
X18329587Y-9673389D02*
X18329587Y-9616246D01*
X18329587Y-9616246D02*
X18339111Y-9597198D01*
X18339111Y-9597198D02*
X18348634Y-9587674D01*
X18348634Y-9587674D02*
X18367682Y-9578150D01*
X18367682Y-9578150D02*
X18396254Y-9578150D01*
X18396254Y-9578150D02*
X18415301Y-9587674D01*
X18415301Y-9587674D02*
X18424825Y-9597198D01*
X18424825Y-9597198D02*
X18434349Y-9616246D01*
X18434349Y-9616246D02*
X18434349Y-9673389D01*
X18434349Y-9673389D02*
X18424825Y-9692436D01*
X18424825Y-9692436D02*
X18415301Y-9701960D01*
X18415301Y-9701960D02*
X18396254Y-9711484D01*
X18396254Y-9711484D02*
X18367682Y-9711484D01*
X18491492Y-9578150D02*
X18567682Y-9578150D01*
X18520063Y-9511484D02*
X18520063Y-9682912D01*
X18520063Y-9682912D02*
X18529587Y-9701960D01*
X18529587Y-9701960D02*
X18548634Y-9711484D01*
X18548634Y-9711484D02*
X18567682Y-9711484D01*
X18786730Y-9578150D02*
X18786730Y-9778150D01*
X18786730Y-9587674D02*
X18805777Y-9578150D01*
X18805777Y-9578150D02*
X18843873Y-9578150D01*
X18843873Y-9578150D02*
X18862920Y-9587674D01*
X18862920Y-9587674D02*
X18872444Y-9597198D01*
X18872444Y-9597198D02*
X18881968Y-9616246D01*
X18881968Y-9616246D02*
X18881968Y-9673389D01*
X18881968Y-9673389D02*
X18872444Y-9692436D01*
X18872444Y-9692436D02*
X18862920Y-9701960D01*
X18862920Y-9701960D02*
X18843873Y-9711484D01*
X18843873Y-9711484D02*
X18805777Y-9711484D01*
X18805777Y-9711484D02*
X18786730Y-9701960D01*
X18996254Y-9711484D02*
X18977206Y-9701960D01*
X18977206Y-9701960D02*
X18967682Y-9682912D01*
X18967682Y-9682912D02*
X18967682Y-9511484D01*
X19158158Y-9711484D02*
X19158158Y-9606722D01*
X19158158Y-9606722D02*
X19148635Y-9587674D01*
X19148635Y-9587674D02*
X19129587Y-9578150D01*
X19129587Y-9578150D02*
X19091492Y-9578150D01*
X19091492Y-9578150D02*
X19072444Y-9587674D01*
X19158158Y-9701960D02*
X19139111Y-9711484D01*
X19139111Y-9711484D02*
X19091492Y-9711484D01*
X19091492Y-9711484D02*
X19072444Y-9701960D01*
X19072444Y-9701960D02*
X19062920Y-9682912D01*
X19062920Y-9682912D02*
X19062920Y-9663865D01*
X19062920Y-9663865D02*
X19072444Y-9644817D01*
X19072444Y-9644817D02*
X19091492Y-9635293D01*
X19091492Y-9635293D02*
X19139111Y-9635293D01*
X19139111Y-9635293D02*
X19158158Y-9625770D01*
X19224825Y-9578150D02*
X19301015Y-9578150D01*
X19253396Y-9511484D02*
X19253396Y-9682912D01*
X19253396Y-9682912D02*
X19262920Y-9701960D01*
X19262920Y-9701960D02*
X19281968Y-9711484D01*
X19281968Y-9711484D02*
X19301015Y-9711484D01*
X19443873Y-9701960D02*
X19424825Y-9711484D01*
X19424825Y-9711484D02*
X19386730Y-9711484D01*
X19386730Y-9711484D02*
X19367682Y-9701960D01*
X19367682Y-9701960D02*
X19358158Y-9682912D01*
X19358158Y-9682912D02*
X19358158Y-9606722D01*
X19358158Y-9606722D02*
X19367682Y-9587674D01*
X19367682Y-9587674D02*
X19386730Y-9578150D01*
X19386730Y-9578150D02*
X19424825Y-9578150D01*
X19424825Y-9578150D02*
X19443873Y-9587674D01*
X19443873Y-9587674D02*
X19453396Y-9606722D01*
X19453396Y-9606722D02*
X19453396Y-9625770D01*
X19453396Y-9625770D02*
X19358158Y-9644817D01*
X19624825Y-9711484D02*
X19624825Y-9511484D01*
X19624825Y-9701960D02*
X19605777Y-9711484D01*
X19605777Y-9711484D02*
X19567682Y-9711484D01*
X19567682Y-9711484D02*
X19548635Y-9701960D01*
X19548635Y-9701960D02*
X19539111Y-9692436D01*
X19539111Y-9692436D02*
X19529587Y-9673389D01*
X19529587Y-9673389D02*
X19529587Y-9616246D01*
X19529587Y-9616246D02*
X19539111Y-9597198D01*
X19539111Y-9597198D02*
X19548635Y-9587674D01*
X19548635Y-9587674D02*
X19567682Y-9578150D01*
X19567682Y-9578150D02*
X19605777Y-9578150D01*
X19605777Y-9578150D02*
X19624825Y-9587674D01*
X19701016Y-9787674D02*
X19710539Y-9778150D01*
X19710539Y-9778150D02*
X19729587Y-9749579D01*
X19729587Y-9749579D02*
X19739111Y-9730531D01*
X19739111Y-9730531D02*
X19748635Y-9701960D01*
X19748635Y-9701960D02*
X19758158Y-9654341D01*
X19758158Y-9654341D02*
X19758158Y-9616246D01*
X19758158Y-9616246D02*
X19748635Y-9568627D01*
X19748635Y-9568627D02*
X19739111Y-9540055D01*
X19739111Y-9540055D02*
X19729587Y-9521008D01*
X19729587Y-9521008D02*
X19710539Y-9492436D01*
X19710539Y-9492436D02*
X19701016Y-9482912D01*
M02*
