%TF.GenerationSoftware,KiCad,Pcbnew,7.0.10*%
%TF.CreationDate,2024-02-02T07:34:31+01:00*%
%TF.ProjectId,stm32_esp32_pcb,73746d33-325f-4657-9370-33325f706362,rev?*%
%TF.SameCoordinates,Original*%
%TF.FileFunction,Copper,L1,Top*%
%TF.FilePolarity,Positive*%
%FSLAX46Y46*%
G04 Gerber Fmt 4.6, Leading zero omitted, Abs format (unit mm)*
G04 Created by KiCad (PCBNEW 7.0.10) date 2024-02-02 07:34:31*
%MOMM*%
%LPD*%
G01*
G04 APERTURE LIST*
G04 Aperture macros list*
%AMRoundRect*
0 Rectangle with rounded corners*
0 $1 Rounding radius*
0 $2 $3 $4 $5 $6 $7 $8 $9 X,Y pos of 4 corners*
0 Add a 4 corners polygon primitive as box body*
4,1,4,$2,$3,$4,$5,$6,$7,$8,$9,$2,$3,0*
0 Add four circle primitives for the rounded corners*
1,1,$1+$1,$2,$3*
1,1,$1+$1,$4,$5*
1,1,$1+$1,$6,$7*
1,1,$1+$1,$8,$9*
0 Add four rect primitives between the rounded corners*
20,1,$1+$1,$2,$3,$4,$5,0*
20,1,$1+$1,$4,$5,$6,$7,0*
20,1,$1+$1,$6,$7,$8,$9,0*
20,1,$1+$1,$8,$9,$2,$3,0*%
G04 Aperture macros list end*
%ADD10C,0.300000*%
%TA.AperFunction,NonConductor*%
%ADD11C,0.300000*%
%TD*%
%TA.AperFunction,SMDPad,CuDef*%
%ADD12R,1.500000X0.900000*%
%TD*%
%TA.AperFunction,SMDPad,CuDef*%
%ADD13R,0.900000X1.500000*%
%TD*%
%TA.AperFunction,SMDPad,CuDef*%
%ADD14R,0.900000X0.900000*%
%TD*%
%TA.AperFunction,HeatsinkPad*%
%ADD15C,0.600000*%
%TD*%
%TA.AperFunction,SMDPad,CuDef*%
%ADD16R,3.800000X3.800000*%
%TD*%
%TA.AperFunction,SMDPad,CuDef*%
%ADD17RoundRect,0.200000X-0.275000X0.200000X-0.275000X-0.200000X0.275000X-0.200000X0.275000X0.200000X0*%
%TD*%
%TA.AperFunction,SMDPad,CuDef*%
%ADD18RoundRect,0.200000X0.275000X-0.200000X0.275000X0.200000X-0.275000X0.200000X-0.275000X-0.200000X0*%
%TD*%
%TA.AperFunction,SMDPad,CuDef*%
%ADD19RoundRect,0.225000X-0.250000X0.225000X-0.250000X-0.225000X0.250000X-0.225000X0.250000X0.225000X0*%
%TD*%
%TA.AperFunction,SMDPad,CuDef*%
%ADD20RoundRect,0.150000X0.150000X-0.587500X0.150000X0.587500X-0.150000X0.587500X-0.150000X-0.587500X0*%
%TD*%
%TA.AperFunction,SMDPad,CuDef*%
%ADD21RoundRect,0.225000X-0.225000X-0.250000X0.225000X-0.250000X0.225000X0.250000X-0.225000X0.250000X0*%
%TD*%
%TA.AperFunction,SMDPad,CuDef*%
%ADD22RoundRect,0.250000X0.475000X-0.250000X0.475000X0.250000X-0.475000X0.250000X-0.475000X-0.250000X0*%
%TD*%
%TA.AperFunction,ComponentPad*%
%ADD23R,1.700000X1.700000*%
%TD*%
%TA.AperFunction,ComponentPad*%
%ADD24O,1.700000X1.700000*%
%TD*%
%TA.AperFunction,SMDPad,CuDef*%
%ADD25RoundRect,0.200000X0.200000X0.275000X-0.200000X0.275000X-0.200000X-0.275000X0.200000X-0.275000X0*%
%TD*%
%TA.AperFunction,SMDPad,CuDef*%
%ADD26RoundRect,0.150000X0.512500X0.150000X-0.512500X0.150000X-0.512500X-0.150000X0.512500X-0.150000X0*%
%TD*%
%TA.AperFunction,ComponentPad*%
%ADD27C,1.440000*%
%TD*%
%TA.AperFunction,SMDPad,CuDef*%
%ADD28RoundRect,0.150000X-0.512500X-0.150000X0.512500X-0.150000X0.512500X0.150000X-0.512500X0.150000X0*%
%TD*%
%TA.AperFunction,SMDPad,CuDef*%
%ADD29RoundRect,0.225000X0.250000X-0.225000X0.250000X0.225000X-0.250000X0.225000X-0.250000X-0.225000X0*%
%TD*%
%TA.AperFunction,SMDPad,CuDef*%
%ADD30RoundRect,0.150000X0.587500X0.150000X-0.587500X0.150000X-0.587500X-0.150000X0.587500X-0.150000X0*%
%TD*%
%TA.AperFunction,SMDPad,CuDef*%
%ADD31RoundRect,0.250000X-0.475000X0.250000X-0.475000X-0.250000X0.475000X-0.250000X0.475000X0.250000X0*%
%TD*%
%TA.AperFunction,ComponentPad*%
%ADD32C,2.000000*%
%TD*%
%TA.AperFunction,ComponentPad*%
%ADD33C,1.000000*%
%TD*%
%TA.AperFunction,SMDPad,CuDef*%
%ADD34R,3.000000X8.000000*%
%TD*%
%TA.AperFunction,SMDPad,CuDef*%
%ADD35RoundRect,0.100000X-0.637500X-0.100000X0.637500X-0.100000X0.637500X0.100000X-0.637500X0.100000X0*%
%TD*%
%TA.AperFunction,SMDPad,CuDef*%
%ADD36RoundRect,0.150000X0.825000X0.150000X-0.825000X0.150000X-0.825000X-0.150000X0.825000X-0.150000X0*%
%TD*%
%TA.AperFunction,ComponentPad*%
%ADD37C,2.400000*%
%TD*%
%TA.AperFunction,ViaPad*%
%ADD38C,0.450000*%
%TD*%
%TA.AperFunction,ViaPad*%
%ADD39C,0.650000*%
%TD*%
%TA.AperFunction,Conductor*%
%ADD40C,0.200000*%
%TD*%
%TA.AperFunction,Conductor*%
%ADD41C,0.500000*%
%TD*%
%TA.AperFunction,Conductor*%
%ADD42C,0.400000*%
%TD*%
%TA.AperFunction,Conductor*%
%ADD43C,0.750000*%
%TD*%
G04 APERTURE END LIST*
D10*
D11*
X131683082Y-50100828D02*
X131683082Y-51172257D01*
X131683082Y-51172257D02*
X131611653Y-51386542D01*
X131611653Y-51386542D02*
X131468796Y-51529400D01*
X131468796Y-51529400D02*
X131254510Y-51600828D01*
X131254510Y-51600828D02*
X131111653Y-51600828D01*
X132397367Y-51600828D02*
X132397367Y-50100828D01*
X133254510Y-51600828D02*
X132611653Y-50743685D01*
X133254510Y-50100828D02*
X132397367Y-50957971D01*
X134397367Y-50815114D02*
X134611653Y-50886542D01*
X134611653Y-50886542D02*
X134683082Y-50957971D01*
X134683082Y-50957971D02*
X134754510Y-51100828D01*
X134754510Y-51100828D02*
X134754510Y-51315114D01*
X134754510Y-51315114D02*
X134683082Y-51457971D01*
X134683082Y-51457971D02*
X134611653Y-51529400D01*
X134611653Y-51529400D02*
X134468796Y-51600828D01*
X134468796Y-51600828D02*
X133897367Y-51600828D01*
X133897367Y-51600828D02*
X133897367Y-50100828D01*
X133897367Y-50100828D02*
X134397367Y-50100828D01*
X134397367Y-50100828D02*
X134540225Y-50172257D01*
X134540225Y-50172257D02*
X134611653Y-50243685D01*
X134611653Y-50243685D02*
X134683082Y-50386542D01*
X134683082Y-50386542D02*
X134683082Y-50529400D01*
X134683082Y-50529400D02*
X134611653Y-50672257D01*
X134611653Y-50672257D02*
X134540225Y-50743685D01*
X134540225Y-50743685D02*
X134397367Y-50815114D01*
X134397367Y-50815114D02*
X133897367Y-50815114D01*
X135397367Y-51600828D02*
X135397367Y-50100828D01*
D12*
%TO.P,U4,1,GND*%
%TO.N,GND*%
X188650000Y-87665000D03*
%TO.P,U4,2,VDD*%
%TO.N,+3.3VDAC*%
X188650000Y-86395000D03*
%TO.P,U4,3,EN*%
%TO.N,/EN*%
X188650000Y-85125000D03*
%TO.P,U4,4,SENSOR_VP*%
%TO.N,unconnected-(U4-SENSOR_VP-Pad4)*%
X188650000Y-83855000D03*
%TO.P,U4,5,SENSOR_VN*%
%TO.N,unconnected-(U4-SENSOR_VN-Pad5)*%
X188650000Y-82585000D03*
%TO.P,U4,6,IO34*%
%TO.N,unconnected-(U4-IO34-Pad6)*%
X188650000Y-81315000D03*
%TO.P,U4,7,IO35*%
%TO.N,unconnected-(U4-IO35-Pad7)*%
X188650000Y-80045000D03*
%TO.P,U4,8,IO32*%
%TO.N,unconnected-(U4-IO32-Pad8)*%
X188650000Y-78775000D03*
%TO.P,U4,9,IO33*%
%TO.N,unconnected-(U4-IO33-Pad9)*%
X188650000Y-77505000D03*
%TO.P,U4,10,IO25*%
%TO.N,unconnected-(U4-IO25-Pad10)*%
X188650000Y-76235000D03*
%TO.P,U4,11,IO26*%
%TO.N,unconnected-(U4-IO26-Pad11)*%
X188650000Y-74965000D03*
%TO.P,U4,12,IO27*%
%TO.N,unconnected-(U4-IO27-Pad12)*%
X188650000Y-73695000D03*
%TO.P,U4,13,IO14*%
%TO.N,unconnected-(U4-IO14-Pad13)*%
X188650000Y-72425000D03*
%TO.P,U4,14,IO12*%
%TO.N,unconnected-(U4-IO12-Pad14)*%
X188650000Y-71155000D03*
D13*
%TO.P,U4,15,GND*%
%TO.N,GND*%
X185615000Y-70060000D03*
%TO.P,U4,16,IO13*%
%TO.N,unconnected-(U4-IO13-Pad16)*%
X184345000Y-70060000D03*
%TO.P,U4,17,SHD/SD2*%
%TO.N,unconnected-(U4-SHD{slash}SD2-Pad17)*%
X183075000Y-70060000D03*
%TO.P,U4,18,SWP/SD3*%
%TO.N,unconnected-(U4-SWP{slash}SD3-Pad18)*%
X181805000Y-70060000D03*
%TO.P,U4,19,SCS/CMD*%
%TO.N,unconnected-(U4-SCS{slash}CMD-Pad19)*%
X180535000Y-70060000D03*
%TO.P,U4,20,SCK/CLK*%
%TO.N,unconnected-(U4-SCK{slash}CLK-Pad20)*%
X179265000Y-70060000D03*
%TO.P,U4,21,SDO/SD0*%
%TO.N,unconnected-(U4-SDO{slash}SD0-Pad21)*%
X177995000Y-70060000D03*
%TO.P,U4,22,SDI/SD1*%
%TO.N,unconnected-(U4-SDI{slash}SD1-Pad22)*%
X176725000Y-70060000D03*
%TO.P,U4,23,IO15*%
%TO.N,unconnected-(U4-IO15-Pad23)*%
X175455000Y-70060000D03*
%TO.P,U4,24,IO2*%
%TO.N,unconnected-(U4-IO2-Pad24)*%
X174185000Y-70060000D03*
D12*
%TO.P,U4,25,IO0*%
%TO.N,/IO00*%
X171150000Y-71155000D03*
%TO.P,U4,26,IO4*%
%TO.N,/BOOT0*%
X171150000Y-72425000D03*
%TO.P,U4,27,IO16*%
%TO.N,unconnected-(U4-IO16-Pad27)*%
X171150000Y-73695000D03*
%TO.P,U4,28,IO17*%
%TO.N,unconnected-(U4-IO17-Pad28)*%
X171150000Y-74965000D03*
%TO.P,U4,29,IO5*%
%TO.N,/NRST*%
X171150000Y-76235000D03*
%TO.P,U4,30,IO18*%
%TO.N,unconnected-(U4-IO18-Pad30)*%
X171150000Y-77505000D03*
%TO.P,U4,31,IO19*%
%TO.N,unconnected-(U4-IO19-Pad31)*%
X171150000Y-78775000D03*
%TO.P,U4,32,NC*%
%TO.N,unconnected-(U4-NC-Pad32)*%
X171150000Y-80045000D03*
%TO.P,U4,33,IO21*%
%TO.N,/SDA*%
X171150000Y-81315000D03*
%TO.P,U4,34,RXD0/IO3*%
%TO.N,/TX*%
X171150000Y-82585000D03*
%TO.P,U4,35,TXD0/IO1*%
%TO.N,/RX*%
X171150000Y-83855000D03*
%TO.P,U4,36,IO22*%
%TO.N,/SCL*%
X171150000Y-85125000D03*
%TO.P,U4,37,IO23*%
%TO.N,unconnected-(U4-IO23-Pad37)*%
X171150000Y-86395000D03*
%TO.P,U4,38,GND*%
%TO.N,GND*%
X171150000Y-87665000D03*
D14*
%TO.P,U4,39,GND*%
X182800000Y-81500000D03*
D15*
X182800000Y-80800000D03*
D14*
X182800000Y-80100000D03*
D15*
X182800000Y-79400000D03*
D14*
X182800000Y-78700000D03*
D15*
X182100000Y-81500000D03*
X182100000Y-80100000D03*
X182100000Y-78700000D03*
D14*
X181400000Y-81500000D03*
D15*
X181400000Y-80800000D03*
D14*
X181400000Y-80100000D03*
D16*
X181400000Y-80100000D03*
D15*
X181400000Y-79400000D03*
D14*
X181400000Y-78700000D03*
D15*
X180700000Y-81500000D03*
X180700000Y-80100000D03*
X180700000Y-78700000D03*
D14*
X180000000Y-81500000D03*
D15*
X180000000Y-80800000D03*
D14*
X180000000Y-80100000D03*
D15*
X180000000Y-79400000D03*
D14*
X180000000Y-78700000D03*
%TD*%
D17*
%TO.P,R2,1*%
%TO.N,+3V3*%
X199700000Y-80375000D03*
%TO.P,R2,2*%
%TO.N,/ESP32_E*%
X199700000Y-82025000D03*
%TD*%
%TO.P,R11,1*%
%TO.N,Net-(U2A--)*%
X204000000Y-69175000D03*
%TO.P,R11,2*%
%TO.N,GND*%
X204000000Y-70825000D03*
%TD*%
D18*
%TO.P,R3,1*%
%TO.N,+3V3*%
X170600000Y-66125000D03*
%TO.P,R3,2*%
%TO.N,/NRST*%
X170600000Y-64475000D03*
%TD*%
D19*
%TO.P,C3,1*%
%TO.N,Net-(U5-BP)*%
X158000000Y-70225000D03*
%TO.P,C3,2*%
%TO.N,GND*%
X158000000Y-71775000D03*
%TD*%
D17*
%TO.P,R13,1*%
%TO.N,Net-(U2B--)*%
X194500000Y-69425000D03*
%TO.P,R13,2*%
%TO.N,GND*%
X194500000Y-71075000D03*
%TD*%
D20*
%TO.P,D1,1*%
%TO.N,/NRST*%
X174200000Y-64300000D03*
%TO.P,D1,2*%
%TO.N,/IO00*%
X176100000Y-64300000D03*
%TO.P,D1,3*%
%TO.N,/ESP32*%
X175150000Y-62425000D03*
%TD*%
D21*
%TO.P,C7,1*%
%TO.N,+3V3*%
X160225000Y-66750000D03*
%TO.P,C7,2*%
%TO.N,GND*%
X161775000Y-66750000D03*
%TD*%
D22*
%TO.P,C12,1*%
%TO.N,VBUS*%
X204300000Y-85850000D03*
%TO.P,C12,2*%
%TO.N,GND*%
X204300000Y-83950000D03*
%TD*%
D17*
%TO.P,R17,1*%
%TO.N,/V_SENS*%
X152700000Y-71225000D03*
%TO.P,R17,2*%
%TO.N,GND*%
X152700000Y-72875000D03*
%TD*%
D19*
%TO.P,C1,1*%
%TO.N,GND*%
X153850000Y-74875000D03*
%TO.P,C1,2*%
%TO.N,/OSC2*%
X153850000Y-76425000D03*
%TD*%
D22*
%TO.P,C4,1*%
%TO.N,VBUS*%
X152750000Y-66700000D03*
%TO.P,C4,2*%
%TO.N,GND*%
X152750000Y-64800000D03*
%TD*%
D18*
%TO.P,R15,1*%
%TO.N,/EMITER*%
X205500000Y-64825000D03*
%TO.P,R15,2*%
%TO.N,GND*%
X205500000Y-63175000D03*
%TD*%
D23*
%TO.P,J1,1,Pin_1*%
%TO.N,+3V3*%
X158710000Y-59500000D03*
D24*
%TO.P,J1,2,Pin_2*%
%TO.N,/SWCLK*%
X161250000Y-59500000D03*
%TO.P,J1,3,Pin_3*%
%TO.N,GND*%
X163790000Y-59500000D03*
%TO.P,J1,4,Pin_4*%
%TO.N,/SWDIO*%
X166330000Y-59500000D03*
%TO.P,J1,5,Pin_5*%
%TO.N,/NRST*%
X168870000Y-59500000D03*
%TO.P,J1,6,Pin_6*%
%TO.N,/SWO*%
X171410000Y-59500000D03*
%TD*%
D21*
%TO.P,C8,1*%
%TO.N,+3V3*%
X160225000Y-68250000D03*
%TO.P,C8,2*%
%TO.N,GND*%
X161775000Y-68250000D03*
%TD*%
D17*
%TO.P,R4,1*%
%TO.N,/BOOT0*%
X164800000Y-66975000D03*
%TO.P,R4,2*%
%TO.N,GND*%
X164800000Y-68625000D03*
%TD*%
D25*
%TO.P,R1,1*%
%TO.N,+3.3VDAC*%
X193925000Y-64800000D03*
%TO.P,R1,2*%
%TO.N,/IO00*%
X192275000Y-64800000D03*
%TD*%
D19*
%TO.P,C11,1*%
%TO.N,+3V3*%
X196750000Y-71975000D03*
%TO.P,C11,2*%
%TO.N,GND*%
X196750000Y-73525000D03*
%TD*%
D23*
%TO.P,J5,1,Pin_1*%
%TO.N,/STM32*%
X155050000Y-59525000D03*
D24*
%TO.P,J5,2,Pin_2*%
%TO.N,GND*%
X155050000Y-56985000D03*
%TD*%
D19*
%TO.P,C9,1*%
%TO.N,+3.3VDAC*%
X190750000Y-86225000D03*
%TO.P,C9,2*%
%TO.N,GND*%
X190750000Y-87775000D03*
%TD*%
D26*
%TO.P,U3,1,VIN*%
%TO.N,VBUS*%
X200737500Y-85825000D03*
%TO.P,U3,2,GND*%
%TO.N,GND*%
X200737500Y-84875000D03*
%TO.P,U3,3,CE*%
%TO.N,/ESP32_E*%
X200737500Y-83925000D03*
%TO.P,U3,4,NC*%
%TO.N,unconnected-(U3-NC-Pad4)*%
X198462500Y-83925000D03*
%TO.P,U3,5,VOUT*%
%TO.N,+3.3VDAC*%
X198462500Y-85825000D03*
%TD*%
D27*
%TO.P,RV1,1,1*%
%TO.N,Net-(U2A--)*%
X200925000Y-59220000D03*
%TO.P,RV1,2,2*%
%TO.N,Net-(R9-Pad1)*%
X200925000Y-61760000D03*
%TO.P,RV1,3,3*%
X200925000Y-64300000D03*
%TD*%
D28*
%TO.P,U5,1,VIN*%
%TO.N,VBUS*%
X155612500Y-66800000D03*
%TO.P,U5,2,GND*%
%TO.N,GND*%
X155612500Y-67750000D03*
%TO.P,U5,3,ON/~{OFF}*%
%TO.N,VBUS*%
X155612500Y-68700000D03*
%TO.P,U5,4,BP*%
%TO.N,Net-(U5-BP)*%
X157887500Y-68700000D03*
%TO.P,U5,5,VOUT*%
%TO.N,+3V3*%
X157887500Y-66800000D03*
%TD*%
D29*
%TO.P,C14,1*%
%TO.N,VBUS*%
X202500000Y-85825000D03*
%TO.P,C14,2*%
%TO.N,GND*%
X202500000Y-84275000D03*
%TD*%
D30*
%TO.P,D2,1*%
%TO.N,/BOOT0*%
X157175000Y-64000000D03*
%TO.P,D2,2*%
%TO.N,/EN*%
X157175000Y-62100000D03*
%TO.P,D2,3*%
%TO.N,/STM32*%
X155300000Y-63050000D03*
%TD*%
D23*
%TO.P,J4,1,Pin_1*%
%TO.N,/ESP32*%
X175200000Y-59475000D03*
D24*
%TO.P,J4,2,Pin_2*%
%TO.N,GND*%
X175200000Y-56935000D03*
%TD*%
D18*
%TO.P,R10,1*%
%TO.N,/PULSE*%
X193000000Y-68075000D03*
%TO.P,R10,2*%
%TO.N,GND*%
X193000000Y-66425000D03*
%TD*%
%TO.P,R12,1*%
%TO.N,Net-(U2A-+)*%
X204000000Y-67825000D03*
%TO.P,R12,2*%
%TO.N,GND*%
X204000000Y-66175000D03*
%TD*%
D31*
%TO.P,C10,1*%
%TO.N,+3.3VDAC*%
X192600000Y-85850000D03*
%TO.P,C10,2*%
%TO.N,GND*%
X192600000Y-87750000D03*
%TD*%
D19*
%TO.P,C5,1*%
%TO.N,VBUS*%
X155500000Y-70225000D03*
%TO.P,C5,2*%
%TO.N,GND*%
X155500000Y-71775000D03*
%TD*%
D25*
%TO.P,R5,1*%
%TO.N,+3.3VDAC*%
X192225000Y-76200000D03*
%TO.P,R5,2*%
%TO.N,/EN*%
X190575000Y-76200000D03*
%TD*%
D22*
%TO.P,C13,1*%
%TO.N,+3.3VDAC*%
X196350000Y-85825000D03*
%TO.P,C13,2*%
%TO.N,GND*%
X196350000Y-83925000D03*
%TD*%
D19*
%TO.P,C16,1*%
%TO.N,/EMITER*%
X205500000Y-66225000D03*
%TO.P,C16,2*%
%TO.N,Net-(U2A-+)*%
X205500000Y-67775000D03*
%TD*%
D23*
%TO.P,J3,1,Pin_1*%
%TO.N,/EMITER*%
X199300000Y-73450000D03*
D24*
%TO.P,J3,2,Pin_2*%
%TO.N,+3V3*%
X199300000Y-75990000D03*
%TD*%
D32*
%TO.P,MOD1,1,+*%
%TO.N,unconnected-(MOD1-+-Pad1)*%
X136000000Y-87000000D03*
%TO.P,MOD1,2,-*%
%TO.N,unconnected-(MOD1---Pad2)*%
X150000000Y-87000000D03*
%TO.P,MOD1,3,OUT+*%
%TO.N,VBUS*%
X136000000Y-64000000D03*
%TO.P,MOD1,4,OUT-*%
%TO.N,GND*%
X150000000Y-64000000D03*
%TO.P,MOD1,5,B+*%
%TO.N,/B+*%
X138540000Y-64000000D03*
%TO.P,MOD1,6,B-*%
%TO.N,/B-*%
X147460000Y-64000000D03*
%TD*%
D33*
%TO.P,Y1,1,1*%
%TO.N,/OSC2*%
X153850000Y-78000000D03*
%TO.P,Y1,2,2*%
%TO.N,/OSC1*%
X155750000Y-78000000D03*
D34*
%TO.P,Y1,3*%
%TO.N,N/C*%
X154800000Y-85000000D03*
%TD*%
D35*
%TO.P,U1,1,BOOT0*%
%TO.N,/BOOT0*%
X160637500Y-76775000D03*
%TO.P,U1,2,PC14*%
%TO.N,/OSC1*%
X160637500Y-77425000D03*
%TO.P,U1,3,PC15*%
%TO.N,/OSC2*%
X160637500Y-78075000D03*
%TO.P,U1,4,NRST*%
%TO.N,/NRST*%
X160637500Y-78725000D03*
%TO.P,U1,5,VDDA*%
%TO.N,+3V3*%
X160637500Y-79375000D03*
%TO.P,U1,6,PA0*%
%TO.N,/V_SENS*%
X160637500Y-80025000D03*
%TO.P,U1,7,PA1*%
%TO.N,/ESP32_E*%
X160637500Y-80675000D03*
%TO.P,U1,8,PA2*%
%TO.N,/TX*%
X160637500Y-81325000D03*
%TO.P,U1,9,PA3*%
%TO.N,/RX*%
X160637500Y-81975000D03*
%TO.P,U1,10,PA4*%
%TO.N,/PULSE*%
X160637500Y-82625000D03*
%TO.P,U1,11,PA5*%
%TO.N,unconnected-(U1-PA5-Pad11)*%
X166362500Y-82625000D03*
%TO.P,U1,12,PA6*%
%TO.N,unconnected-(U1-PA6-Pad12)*%
X166362500Y-81975000D03*
%TO.P,U1,13,PA7*%
%TO.N,unconnected-(U1-PA7-Pad13)*%
X166362500Y-81325000D03*
%TO.P,U1,14,PB1*%
%TO.N,unconnected-(U1-PB1-Pad14)*%
X166362500Y-80675000D03*
%TO.P,U1,15,VSS*%
%TO.N,GND*%
X166362500Y-80025000D03*
%TO.P,U1,16,VDD*%
%TO.N,+3V3*%
X166362500Y-79375000D03*
%TO.P,U1,17,PA9*%
%TO.N,/SCL*%
X166362500Y-78725000D03*
%TO.P,U1,18,PA10*%
%TO.N,/SDA*%
X166362500Y-78075000D03*
%TO.P,U1,19,PA13*%
%TO.N,/SWDIO*%
X166362500Y-77425000D03*
%TO.P,U1,20,PA14*%
%TO.N,/SWCLK*%
X166362500Y-76775000D03*
%TD*%
D36*
%TO.P,U2,1*%
%TO.N,Net-(R9-Pad1)*%
X201725000Y-70405000D03*
%TO.P,U2,2,-*%
%TO.N,Net-(U2A--)*%
X201725000Y-69135000D03*
%TO.P,U2,3,+*%
%TO.N,Net-(U2A-+)*%
X201725000Y-67865000D03*
%TO.P,U2,4,V-*%
%TO.N,GND*%
X201725000Y-66595000D03*
%TO.P,U2,5,+*%
%TO.N,Net-(U2B-+)*%
X196775000Y-66595000D03*
%TO.P,U2,6,-*%
%TO.N,Net-(U2B--)*%
X196775000Y-67865000D03*
%TO.P,U2,7*%
%TO.N,/PULSE*%
X196775000Y-69135000D03*
%TO.P,U2,8,V+*%
%TO.N,+3V3*%
X196775000Y-70405000D03*
%TD*%
D25*
%TO.P,R7,1*%
%TO.N,+3.3VDAC*%
X193200000Y-81750000D03*
%TO.P,R7,2*%
%TO.N,/SCL*%
X191550000Y-81750000D03*
%TD*%
D18*
%TO.P,R14,1*%
%TO.N,+3V3*%
X193000000Y-71075000D03*
%TO.P,R14,2*%
%TO.N,Net-(U2B--)*%
X193000000Y-69425000D03*
%TD*%
D17*
%TO.P,R9,1*%
%TO.N,Net-(R9-Pad1)*%
X196900000Y-63475000D03*
%TO.P,R9,2*%
%TO.N,Net-(U2B-+)*%
X196900000Y-65125000D03*
%TD*%
D21*
%TO.P,C17,1*%
%TO.N,/V_SENS*%
X162525000Y-75400000D03*
%TO.P,C17,2*%
%TO.N,GND*%
X164075000Y-75400000D03*
%TD*%
D29*
%TO.P,C15,1*%
%TO.N,+3.3VDAC*%
X194450000Y-85850000D03*
%TO.P,C15,2*%
%TO.N,GND*%
X194450000Y-84300000D03*
%TD*%
D17*
%TO.P,R16,1*%
%TO.N,VBUS*%
X152700000Y-68225000D03*
%TO.P,R16,2*%
%TO.N,/V_SENS*%
X152700000Y-69875000D03*
%TD*%
D19*
%TO.P,C2,1*%
%TO.N,GND*%
X155750000Y-74875000D03*
%TO.P,C2,2*%
%TO.N,/OSC1*%
X155750000Y-76425000D03*
%TD*%
D23*
%TO.P,J2,1,Pin_1*%
%TO.N,+3.3VDAC*%
X178960000Y-59500000D03*
D24*
%TO.P,J2,2,Pin_2*%
%TO.N,/RX*%
X181500000Y-59500000D03*
%TO.P,J2,3,Pin_3*%
%TO.N,GND*%
X184040000Y-59500000D03*
%TO.P,J2,4,Pin_4*%
%TO.N,/TX*%
X186580000Y-59500000D03*
%TO.P,J2,5,Pin_5*%
%TO.N,/EN*%
X189120000Y-59500000D03*
%TO.P,J2,6,Pin_6*%
%TO.N,/IO00*%
X191660000Y-59500000D03*
%TD*%
D19*
%TO.P,C6,1*%
%TO.N,+3V3*%
X158500000Y-79600000D03*
%TO.P,C6,2*%
%TO.N,GND*%
X158500000Y-81150000D03*
%TD*%
D25*
%TO.P,R6,1*%
%TO.N,+3.3VDAC*%
X193200000Y-80200000D03*
%TO.P,R6,2*%
%TO.N,/SDA*%
X191550000Y-80200000D03*
%TD*%
D29*
%TO.P,C18,1*%
%TO.N,GND*%
X168200000Y-81175000D03*
%TO.P,C18,2*%
%TO.N,+3V3*%
X168200000Y-79625000D03*
%TD*%
D17*
%TO.P,R8,1*%
%TO.N,Net-(U2B-+)*%
X194500000Y-66425000D03*
%TO.P,R8,2*%
%TO.N,/PULSE*%
X194500000Y-68075000D03*
%TD*%
D37*
%TO.P,BT1,1+*%
%TO.N,/B+*%
X132100000Y-79000000D03*
%TO.P,BT1,1-*%
%TO.N,/B-*%
X205000000Y-79000000D03*
%TO.P,BT1,2+*%
%TO.N,/B+*%
X132100000Y-59700000D03*
%TO.P,BT1,2-*%
%TO.N,/B-*%
X205000000Y-59700000D03*
%TD*%
D38*
%TO.N,/ESP32_E*%
X162700000Y-81300000D03*
X198100000Y-82300000D03*
%TO.N,/RX*%
X172500000Y-83800000D03*
%TO.N,/PULSE*%
X191600000Y-68100000D03*
X168850000Y-85200000D03*
%TO.N,/SCL*%
X164950000Y-78700000D03*
X173300000Y-85100000D03*
X190650000Y-81750000D03*
%TO.N,/SDA*%
X174250000Y-81315000D03*
X190650000Y-80200000D03*
%TO.N,/TX*%
X172500000Y-82600000D03*
%TO.N,/BOOT0*%
X169700000Y-72425000D03*
X165600000Y-66150000D03*
X161900000Y-76800000D03*
%TO.N,/NRST*%
X161900000Y-78700000D03*
X169550000Y-76300000D03*
D39*
%TO.N,+3V3*%
X193000000Y-72000000D03*
X197650000Y-71975000D03*
X159400000Y-79400000D03*
X199700000Y-79600000D03*
X169000000Y-79600000D03*
X160225000Y-69075000D03*
X170600000Y-66787500D03*
%TO.N,GND*%
X153850000Y-74025000D03*
X193800000Y-87300000D03*
X162550000Y-68250000D03*
X194450000Y-83400000D03*
X152300000Y-63900000D03*
X153200000Y-63900000D03*
X155500000Y-72600000D03*
X162550000Y-66750000D03*
X204000000Y-71750000D03*
X158000000Y-72600000D03*
X164837500Y-75400000D03*
X155750000Y-74025000D03*
X154600000Y-67750000D03*
X204000000Y-65250000D03*
X196350000Y-83000000D03*
X185600000Y-68850000D03*
X169900000Y-87650000D03*
X158500000Y-81875000D03*
X205500000Y-84500000D03*
X205500000Y-83500000D03*
X192100000Y-66400000D03*
X196750000Y-74350000D03*
X164800000Y-69300000D03*
X152700000Y-73775000D03*
X169000000Y-81100000D03*
X194500000Y-72000000D03*
X205500000Y-62237500D03*
X193750000Y-88150000D03*
D38*
%TO.N,/IO00*%
X191050000Y-64750000D03*
X176100000Y-68400000D03*
D39*
%TO.N,+3.3VDAC*%
X192300000Y-75250000D03*
X194800000Y-64800000D03*
%TO.N,VBUS*%
X205500000Y-86500000D03*
X205500000Y-85300003D03*
X154100000Y-66800000D03*
%TD*%
D40*
%TO.N,/OSC1*%
X160637500Y-77425000D02*
X157225000Y-77425000D01*
X157225000Y-77425000D02*
X156650000Y-78000000D01*
X155750000Y-76425000D02*
X155750000Y-78000000D01*
X156650000Y-78000000D02*
X155750000Y-78000000D01*
%TO.N,/OSC2*%
X156650000Y-79000000D02*
X157575000Y-78075000D01*
X157575000Y-78075000D02*
X160637500Y-78075000D01*
X154850000Y-79000000D02*
X156650000Y-79000000D01*
X153850000Y-78000000D02*
X154850000Y-79000000D01*
X153850000Y-78000000D02*
X153850000Y-76425000D01*
%TO.N,/V_SENS*%
X162375000Y-75175000D02*
X160600000Y-73400000D01*
X154875000Y-73400000D02*
X152700000Y-71225000D01*
X152700000Y-69875000D02*
X152700000Y-71225000D01*
X160600000Y-73400000D02*
X154875000Y-73400000D01*
X160637500Y-80025000D02*
X162075000Y-80025000D01*
X162375000Y-79725000D02*
X162375000Y-75175000D01*
X162075000Y-80025000D02*
X162375000Y-79725000D01*
%TO.N,/ESP32_E*%
X200000000Y-82300000D02*
X198100000Y-82300000D01*
X200737500Y-83037500D02*
X200000000Y-82300000D01*
X200737500Y-83925000D02*
X200737500Y-83037500D01*
X162075000Y-80675000D02*
X162700000Y-81300000D01*
X160637500Y-80675000D02*
X162075000Y-80675000D01*
%TO.N,/RX*%
X169045000Y-83855000D02*
X171150000Y-83855000D01*
X160637500Y-81975000D02*
X161775000Y-81975000D01*
X168200000Y-84700000D02*
X169045000Y-83855000D01*
X172445000Y-83855000D02*
X172500000Y-83800000D01*
X164500000Y-84700000D02*
X168200000Y-84700000D01*
X161775000Y-81975000D02*
X164500000Y-84700000D01*
X171150000Y-83855000D02*
X172445000Y-83855000D01*
%TO.N,/PULSE*%
X193000000Y-68075000D02*
X191625000Y-68075000D01*
X197865000Y-69135000D02*
X196775000Y-69135000D01*
X191625000Y-68075000D02*
X191600000Y-68100000D01*
X198500000Y-67750000D02*
X198500000Y-68500000D01*
X168850000Y-85200000D02*
X164200000Y-85200000D01*
X198000000Y-67250000D02*
X198500000Y-67750000D01*
X161625000Y-82625000D02*
X160637500Y-82625000D01*
X195325000Y-67250000D02*
X198000000Y-67250000D01*
X164200000Y-85200000D02*
X161625000Y-82625000D01*
X194500000Y-68075000D02*
X195325000Y-67250000D01*
X194500000Y-68075000D02*
X193000000Y-68075000D01*
X198500000Y-68500000D02*
X197865000Y-69135000D01*
%TO.N,/SCL*%
X173300000Y-85100000D02*
X171175000Y-85100000D01*
X164950000Y-78700000D02*
X166337500Y-78700000D01*
X166337500Y-78700000D02*
X166362500Y-78725000D01*
X171175000Y-85100000D02*
X171150000Y-85125000D01*
X191550000Y-81750000D02*
X190650000Y-81750000D01*
%TO.N,/SDA*%
X170115000Y-81315000D02*
X171150000Y-81315000D01*
X191550000Y-80200000D02*
X190650000Y-80200000D01*
X168975000Y-78075000D02*
X169700000Y-78800000D01*
X166362500Y-78075000D02*
X168975000Y-78075000D01*
X169700000Y-80900000D02*
X170115000Y-81315000D01*
X174250000Y-81315000D02*
X171150000Y-81315000D01*
X169700000Y-78800000D02*
X169700000Y-80900000D01*
%TO.N,/TX*%
X171150000Y-82585000D02*
X169632500Y-82585000D01*
X171150000Y-82585000D02*
X172485000Y-82585000D01*
X168017500Y-84200000D02*
X164750000Y-84200000D01*
X164750000Y-84200000D02*
X161875000Y-81325000D01*
X169632500Y-82585000D02*
X168017500Y-84200000D01*
X172485000Y-82585000D02*
X172500000Y-82600000D01*
X161875000Y-81325000D02*
X160637500Y-81325000D01*
%TO.N,/BOOT0*%
X161875000Y-76775000D02*
X161900000Y-76800000D01*
X164800000Y-66950000D02*
X165600000Y-66150000D01*
X163450000Y-64000000D02*
X165600000Y-66150000D01*
X164800000Y-66975000D02*
X164800000Y-66950000D01*
X169700000Y-72425000D02*
X171150000Y-72425000D01*
X160637500Y-76775000D02*
X161875000Y-76775000D01*
X157175000Y-64000000D02*
X163450000Y-64000000D01*
%TO.N,/NRST*%
X170600000Y-64525000D02*
X170600000Y-64300000D01*
X169550000Y-76300000D02*
X168700000Y-75450000D01*
X169550000Y-76300000D02*
X169615000Y-76235000D01*
X170425000Y-64300000D02*
X168870000Y-62745000D01*
X170775000Y-64475000D02*
X174025000Y-64475000D01*
X168870000Y-59500000D02*
X168900000Y-59530000D01*
X168700000Y-66425000D02*
X170600000Y-64525000D01*
X169550000Y-76300000D02*
X171515000Y-76300000D01*
X168870000Y-62745000D02*
X168870000Y-59500000D01*
X161875000Y-78725000D02*
X161900000Y-78700000D01*
X170600000Y-64300000D02*
X170425000Y-64300000D01*
X174025000Y-64475000D02*
X174200000Y-64300000D01*
X160637500Y-78725000D02*
X161875000Y-78725000D01*
X168700000Y-75450000D02*
X168700000Y-66425000D01*
X170600000Y-64300000D02*
X170775000Y-64475000D01*
D41*
%TO.N,+3V3*%
X160225000Y-69075000D02*
X160225000Y-68250000D01*
X193000000Y-71075000D02*
X193000000Y-72000000D01*
X159200000Y-79600000D02*
X159400000Y-79400000D01*
X199700000Y-80375000D02*
X199700000Y-79600000D01*
X197650000Y-71975000D02*
X196750000Y-71975000D01*
D42*
X166362500Y-79375000D02*
X167950000Y-79375000D01*
D41*
X159425000Y-79375000D02*
X159400000Y-79400000D01*
X170600000Y-66112500D02*
X170600000Y-66787500D01*
D42*
X168975000Y-79625000D02*
X169000000Y-79600000D01*
D41*
X196775000Y-70405000D02*
X196775000Y-71950000D01*
X157887500Y-66800000D02*
X160175000Y-66800000D01*
X160175000Y-66800000D02*
X160225000Y-66750000D01*
D42*
X167950000Y-79375000D02*
X168200000Y-79625000D01*
D41*
X168200000Y-79625000D02*
X168975000Y-79625000D01*
D42*
X160637500Y-79375000D02*
X159425000Y-79375000D01*
D41*
X160225000Y-66750000D02*
X160225000Y-68250000D01*
X158500000Y-79600000D02*
X159200000Y-79600000D01*
X196775000Y-71950000D02*
X196750000Y-71975000D01*
%TO.N,GND*%
X202500000Y-84275000D02*
X202825000Y-83950000D01*
X193000000Y-88150000D02*
X193750000Y-88150000D01*
X196350000Y-83000000D02*
X196350000Y-83925000D01*
X192600000Y-87750000D02*
X190775000Y-87750000D01*
X190775000Y-87750000D02*
X190750000Y-87775000D01*
X153200000Y-64350000D02*
X152750000Y-64800000D01*
X155500000Y-71775000D02*
X155500000Y-72600000D01*
X204850000Y-84500000D02*
X204300000Y-83950000D01*
D43*
X169915000Y-87665000D02*
X169900000Y-87650000D01*
D41*
X201725000Y-66595000D02*
X203580000Y-66595000D01*
X152300000Y-63900000D02*
X152300000Y-64350000D01*
X153850000Y-74025000D02*
X153850000Y-74850000D01*
D42*
X168200000Y-81000000D02*
X168200000Y-81175000D01*
D41*
X193050000Y-87300000D02*
X192600000Y-87750000D01*
X205500000Y-63162500D02*
X205500000Y-62237500D01*
X201900000Y-84875000D02*
X202500000Y-84275000D01*
X154600000Y-67750000D02*
X155612500Y-67750000D01*
X190640000Y-87665000D02*
X190750000Y-87775000D01*
D43*
X185615000Y-68865000D02*
X185600000Y-68850000D01*
D41*
X192600000Y-87750000D02*
X193000000Y-88150000D01*
X158500000Y-81150000D02*
X158500000Y-81875000D01*
X152300000Y-64350000D02*
X152750000Y-64800000D01*
D42*
X166362500Y-80025000D02*
X167225000Y-80025000D01*
D41*
X204000000Y-70825000D02*
X204000000Y-71750000D01*
D43*
X185615000Y-70060000D02*
X185615000Y-68865000D01*
D41*
X152700000Y-73775000D02*
X152700000Y-72950000D01*
X204750000Y-83500000D02*
X205500000Y-83500000D01*
X193800000Y-87300000D02*
X193050000Y-87300000D01*
X162550000Y-68250000D02*
X161775000Y-68250000D01*
X164162500Y-75400000D02*
X164837500Y-75400000D01*
X200737500Y-84875000D02*
X201900000Y-84875000D01*
X155750000Y-74025000D02*
X155750000Y-74850000D01*
X202825000Y-83950000D02*
X204300000Y-83950000D01*
X196750000Y-74350000D02*
X196750000Y-73525000D01*
X194450000Y-83400000D02*
X194450000Y-84300000D01*
X158000000Y-71775000D02*
X158000000Y-72600000D01*
X162550000Y-66750000D02*
X161775000Y-66750000D01*
X168925000Y-81175000D02*
X169000000Y-81100000D01*
X188650000Y-87665000D02*
X190640000Y-87665000D01*
X193000000Y-66425000D02*
X192100000Y-66400000D01*
X203580000Y-66595000D02*
X204000000Y-66175000D01*
X153200000Y-63900000D02*
X153200000Y-64350000D01*
X204300000Y-83950000D02*
X204750000Y-83500000D01*
X168200000Y-81175000D02*
X168925000Y-81175000D01*
D42*
X167225000Y-80025000D02*
X168200000Y-81000000D01*
D41*
X194500000Y-71075000D02*
X194500000Y-72000000D01*
D43*
X171150000Y-87665000D02*
X169915000Y-87665000D01*
D41*
X204000000Y-66175000D02*
X204000000Y-65250000D01*
X205500000Y-84500000D02*
X204850000Y-84500000D01*
D40*
%TO.N,/SWDIO*%
X167475000Y-77425000D02*
X167700000Y-77200000D01*
X166362500Y-77425000D02*
X167475000Y-77425000D01*
X166330000Y-63330000D02*
X166330000Y-59500000D01*
X167700000Y-77200000D02*
X167700000Y-64700000D01*
X167700000Y-64700000D02*
X166330000Y-63330000D01*
%TO.N,/SWCLK*%
X166362500Y-64612500D02*
X161250000Y-59500000D01*
X166362500Y-76775000D02*
X166362500Y-64612500D01*
%TO.N,/IO00*%
X191660000Y-59500000D02*
X191660000Y-61810000D01*
X176100000Y-68400000D02*
X176100000Y-64300000D01*
X172400000Y-68400000D02*
X171150000Y-69650000D01*
X191100000Y-64800000D02*
X192275000Y-64800000D01*
X192275000Y-62425000D02*
X192275000Y-64800000D01*
X191660000Y-61810000D02*
X192275000Y-62425000D01*
X176100000Y-68400000D02*
X172400000Y-68400000D01*
X191050000Y-64750000D02*
X191100000Y-64800000D01*
X171150000Y-69650000D02*
X171150000Y-71155000D01*
%TO.N,/EN*%
X190450000Y-76075000D02*
X190450000Y-70300000D01*
X190050000Y-84600000D02*
X190050000Y-78000000D01*
X189120000Y-59500000D02*
X189120000Y-56520000D01*
X159800000Y-53850000D02*
X157175000Y-56475000D01*
X190575000Y-77475000D02*
X190575000Y-76200000D01*
X189120000Y-68970000D02*
X189120000Y-59500000D01*
X190450000Y-70300000D02*
X189120000Y-68970000D01*
X186450000Y-53850000D02*
X159800000Y-53850000D01*
X189525000Y-85125000D02*
X190050000Y-84600000D01*
X190050000Y-78000000D02*
X190575000Y-77475000D01*
X157175000Y-56475000D02*
X157175000Y-62100000D01*
X189120000Y-56520000D02*
X186450000Y-53850000D01*
X188650000Y-85125000D02*
X189525000Y-85125000D01*
X190575000Y-76200000D02*
X190450000Y-76075000D01*
D41*
%TO.N,+3.3VDAC*%
X194475000Y-85825000D02*
X194450000Y-85850000D01*
X192300000Y-75250000D02*
X192225000Y-75325000D01*
X198462500Y-85825000D02*
X194475000Y-85825000D01*
X192600000Y-83950000D02*
X193200000Y-83350000D01*
X192600000Y-85850000D02*
X192600000Y-83950000D01*
X193200000Y-79600000D02*
X192225000Y-78625000D01*
X193200000Y-80200000D02*
X193200000Y-79600000D01*
X193200000Y-83350000D02*
X193200000Y-81750000D01*
X191125000Y-85850000D02*
X192600000Y-85850000D01*
X193200000Y-81750000D02*
X193200000Y-80200000D01*
X194800000Y-64800000D02*
X193925000Y-64800000D01*
X190580000Y-86395000D02*
X190750000Y-86225000D01*
X192225000Y-78625000D02*
X192225000Y-76200000D01*
X188650000Y-86395000D02*
X190580000Y-86395000D01*
X192225000Y-75325000D02*
X192225000Y-76200000D01*
X192600000Y-85850000D02*
X194450000Y-85850000D01*
X190750000Y-86225000D02*
X191125000Y-85850000D01*
D40*
%TO.N,Net-(U2B-+)*%
X197250000Y-65000000D02*
X196775000Y-65475000D01*
X194670000Y-66595000D02*
X194500000Y-66425000D01*
X196775000Y-66595000D02*
X194670000Y-66595000D01*
X196775000Y-65475000D02*
X196775000Y-66595000D01*
%TO.N,Net-(R9-Pad1)*%
X200305000Y-70405000D02*
X199350000Y-69450000D01*
X200925000Y-62000000D02*
X200925000Y-64540000D01*
X201725000Y-70405000D02*
X200305000Y-70405000D01*
X200925000Y-64540000D02*
X199860000Y-63475000D01*
X199350000Y-66115000D02*
X200925000Y-64540000D01*
X199350000Y-69450000D02*
X199350000Y-66115000D01*
X199860000Y-63475000D02*
X196900000Y-63475000D01*
%TO.N,Net-(U2A--)*%
X202600000Y-64800000D02*
X202600000Y-61135000D01*
X201725000Y-69135000D02*
X200235000Y-69135000D01*
X199950000Y-68850000D02*
X199950000Y-66600000D01*
X203960000Y-69135000D02*
X204000000Y-69175000D01*
X201675000Y-65725000D02*
X202600000Y-64800000D01*
X202600000Y-61135000D02*
X200925000Y-59460000D01*
X200825000Y-65725000D02*
X201675000Y-65725000D01*
X199950000Y-66600000D02*
X200825000Y-65725000D01*
X200235000Y-69135000D02*
X199950000Y-68850000D01*
X201725000Y-69135000D02*
X203960000Y-69135000D01*
%TO.N,Net-(U2A-+)*%
X204000000Y-67825000D02*
X205450000Y-67825000D01*
X205450000Y-67825000D02*
X205500000Y-67775000D01*
X201725000Y-67865000D02*
X203960000Y-67865000D01*
X203960000Y-67865000D02*
X204000000Y-67825000D01*
%TO.N,Net-(U2B--)*%
X196775000Y-67865000D02*
X196060000Y-67865000D01*
X196060000Y-67865000D02*
X194500000Y-69425000D01*
X193000000Y-69425000D02*
X194500000Y-69425000D01*
%TO.N,/ESP32*%
X175150000Y-59525000D02*
X175200000Y-59475000D01*
X175150000Y-62425000D02*
X175150000Y-59525000D01*
D41*
%TO.N,Net-(U5-BP)*%
X157887500Y-70112500D02*
X158000000Y-70225000D01*
X157887500Y-68700000D02*
X157887500Y-70112500D01*
%TO.N,VBUS*%
X205500000Y-85300003D02*
X204849997Y-85300003D01*
X152750000Y-66700000D02*
X154000000Y-66700000D01*
X204950000Y-86500000D02*
X204300000Y-85850000D01*
X155612500Y-68700000D02*
X153175000Y-68700000D01*
X154100000Y-66800000D02*
X155612500Y-66800000D01*
X155500000Y-68812500D02*
X155612500Y-68700000D01*
X155500000Y-70225000D02*
X155500000Y-68812500D01*
X152700000Y-68225000D02*
X152700000Y-66750000D01*
X204275000Y-85825000D02*
X204300000Y-85850000D01*
X154000000Y-66700000D02*
X154100000Y-66800000D01*
X205500000Y-86500000D02*
X204950000Y-86500000D01*
X152700000Y-66750000D02*
X152750000Y-66700000D01*
X204849997Y-85300003D02*
X204300000Y-85850000D01*
X153175000Y-68700000D02*
X152700000Y-68225000D01*
X200737500Y-85825000D02*
X204275000Y-85825000D01*
D40*
%TO.N,/EMITER*%
X199300000Y-73450000D02*
X200550000Y-73450000D01*
X206500000Y-71050000D02*
X206500000Y-67225000D01*
X200550000Y-73450000D02*
X201450000Y-72550000D01*
X205500000Y-66225000D02*
X205500000Y-64825000D01*
X206500000Y-67225000D02*
X205500000Y-66225000D01*
X201450000Y-72550000D02*
X205000000Y-72550000D01*
X205000000Y-72550000D02*
X206500000Y-71050000D01*
%TO.N,/STM32*%
X155300000Y-63050000D02*
X155050000Y-62800000D01*
X155050000Y-62800000D02*
X155050000Y-59525000D01*
%TD*%
M02*
