%TF.GenerationSoftware,KiCad,Pcbnew,7.0.10*%
%TF.CreationDate,2024-02-02T07:34:27+01:00*%
%TF.ProjectId,stm32_esp32_pcb,73746d33-325f-4657-9370-33325f706362,rev?*%
%TF.SameCoordinates,Original*%
%TF.FileFunction,Drillmap*%
%TF.FilePolarity,Positive*%
%FSLAX45Y45*%
G04 Gerber Fmt 4.5, Leading zero omitted, Abs format (unit mm)*
G04 Created by KiCad (PCBNEW 7.0.10) date 2024-02-02 07:34:27*
%MOMM*%
%LPD*%
G01*
G04 APERTURE LIST*
%ADD10C,0.100000*%
%ADD11C,0.050000*%
%ADD12C,0.200000*%
%ADD13C,0.160000*%
G04 APERTURE END LIST*
D10*
X21000000Y-4900000D02*
X21000000Y-8975000D01*
D11*
X20327500Y-7600000D02*
G75*
G03*
X20227500Y-7600000I-50000J0D01*
G01*
X20227500Y-7600000D02*
G75*
G03*
X20327500Y-7600000I50000J0D01*
G01*
D10*
X12950000Y-8975000D02*
X12950000Y-4900000D01*
D11*
X20325000Y-7350000D02*
G75*
G03*
X20225000Y-7350000I-50000J0D01*
G01*
X20225000Y-7350000D02*
G75*
G03*
X20325000Y-7350000I50000J0D01*
G01*
D10*
X12950000Y-4900000D02*
X21000000Y-4900000D01*
X21000000Y-8975000D02*
X12950000Y-8975000D01*
D12*
D10*
X16180000Y-7670000D02*
X16200000Y-7690000D01*
X16200000Y-7670000D02*
X16180000Y-7690000D01*
X16180000Y-7860000D02*
X16200000Y-7880000D01*
X16200000Y-7860000D02*
X16180000Y-7880000D01*
X16260000Y-8120000D02*
X16280000Y-8140000D01*
X16280000Y-8120000D02*
X16260000Y-8140000D01*
X16485000Y-7860000D02*
X16505000Y-7880000D01*
X16505000Y-7860000D02*
X16485000Y-7880000D01*
X16550000Y-6605000D02*
X16570000Y-6625000D01*
X16570000Y-6605000D02*
X16550000Y-6625000D01*
X16875000Y-8510000D02*
X16895000Y-8530000D01*
X16895000Y-8510000D02*
X16875000Y-8530000D01*
X16945000Y-7620000D02*
X16965000Y-7640000D01*
X16965000Y-7620000D02*
X16945000Y-7640000D01*
X16960000Y-7232500D02*
X16980000Y-7252500D01*
X16980000Y-7232500D02*
X16960000Y-7252500D01*
X17240000Y-8250000D02*
X17260000Y-8270000D01*
X17260000Y-8250000D02*
X17240000Y-8270000D01*
X17240000Y-8370000D02*
X17260000Y-8390000D01*
X17260000Y-8370000D02*
X17240000Y-8390000D01*
X17320000Y-8500000D02*
X17340000Y-8520000D01*
X17340000Y-8500000D02*
X17320000Y-8520000D01*
X17415000Y-8121500D02*
X17435000Y-8141500D01*
X17435000Y-8121500D02*
X17415000Y-8141500D01*
X17600000Y-6830000D02*
X17620000Y-6850000D01*
X17620000Y-6830000D02*
X17600000Y-6850000D01*
X19055000Y-8010000D02*
X19075000Y-8030000D01*
X19075000Y-8010000D02*
X19055000Y-8030000D01*
X19055000Y-8165000D02*
X19075000Y-8185000D01*
X19075000Y-8165000D02*
X19055000Y-8185000D01*
X19095000Y-6465000D02*
X19115000Y-6485000D01*
X19115000Y-6465000D02*
X19095000Y-6485000D01*
X19150000Y-6800000D02*
X19170000Y-6820000D01*
X19170000Y-6800000D02*
X19150000Y-6820000D01*
X19800000Y-8220000D02*
X19820000Y-8240000D01*
X19820000Y-8220000D02*
X19800000Y-8240000D01*
X18010000Y-7940000D02*
G75*
G03*
X17990000Y-7940000I-10000J0D01*
G01*
X17990000Y-7940000D02*
G75*
G03*
X18010000Y-7940000I10000J0D01*
G01*
X18010000Y-8080000D02*
G75*
G03*
X17990000Y-8080000I-10000J0D01*
G01*
X17990000Y-8080000D02*
G75*
G03*
X18010000Y-8080000I10000J0D01*
G01*
X18080000Y-7870000D02*
G75*
G03*
X18060000Y-7870000I-10000J0D01*
G01*
X18060000Y-7870000D02*
G75*
G03*
X18080000Y-7870000I10000J0D01*
G01*
X18080000Y-8010000D02*
G75*
G03*
X18060000Y-8010000I-10000J0D01*
G01*
X18060000Y-8010000D02*
G75*
G03*
X18080000Y-8010000I10000J0D01*
G01*
X18080000Y-8150000D02*
G75*
G03*
X18060000Y-8150000I-10000J0D01*
G01*
X18060000Y-8150000D02*
G75*
G03*
X18080000Y-8150000I10000J0D01*
G01*
X18150000Y-7940000D02*
G75*
G03*
X18130000Y-7940000I-10000J0D01*
G01*
X18130000Y-7940000D02*
G75*
G03*
X18150000Y-7940000I10000J0D01*
G01*
X18150000Y-8080000D02*
G75*
G03*
X18130000Y-8080000I-10000J0D01*
G01*
X18130000Y-8080000D02*
G75*
G03*
X18150000Y-8080000I10000J0D01*
G01*
X18220000Y-7870000D02*
G75*
G03*
X18200000Y-7870000I-10000J0D01*
G01*
X18200000Y-7870000D02*
G75*
G03*
X18220000Y-7870000I10000J0D01*
G01*
X18220000Y-8010000D02*
G75*
G03*
X18200000Y-8010000I-10000J0D01*
G01*
X18200000Y-8010000D02*
G75*
G03*
X18220000Y-8010000I10000J0D01*
G01*
X18220000Y-8150000D02*
G75*
G03*
X18200000Y-8150000I-10000J0D01*
G01*
X18200000Y-8150000D02*
G75*
G03*
X18220000Y-8150000I10000J0D01*
G01*
X18290000Y-7940000D02*
G75*
G03*
X18270000Y-7940000I-10000J0D01*
G01*
X18270000Y-7940000D02*
G75*
G03*
X18290000Y-7940000I10000J0D01*
G01*
X18290000Y-8080000D02*
G75*
G03*
X18270000Y-8080000I-10000J0D01*
G01*
X18270000Y-8080000D02*
G75*
G03*
X18290000Y-8080000I10000J0D01*
G01*
X15230000Y-6375000D02*
X15230000Y-6405000D01*
X15215000Y-6390000D02*
X15245000Y-6390000D01*
X15270000Y-7362500D02*
X15270000Y-7392500D01*
X15255000Y-7377500D02*
X15285000Y-7377500D01*
X15320000Y-6375000D02*
X15320000Y-6405000D01*
X15305000Y-6390000D02*
X15335000Y-6390000D01*
X15385000Y-7387500D02*
X15385000Y-7417500D01*
X15370000Y-7402500D02*
X15400000Y-7402500D01*
X15410000Y-6665000D02*
X15410000Y-6695000D01*
X15395000Y-6680000D02*
X15425000Y-6680000D01*
X15460000Y-6760000D02*
X15460000Y-6790000D01*
X15445000Y-6775000D02*
X15475000Y-6775000D01*
X15550000Y-7245000D02*
X15550000Y-7275000D01*
X15535000Y-7260000D02*
X15565000Y-7260000D01*
X15575000Y-7387500D02*
X15575000Y-7417500D01*
X15560000Y-7402500D02*
X15590000Y-7402500D01*
X15800000Y-7245000D02*
X15800000Y-7275000D01*
X15785000Y-7260000D02*
X15815000Y-7260000D01*
X15850000Y-8172500D02*
X15850000Y-8202500D01*
X15835000Y-8187500D02*
X15865000Y-8187500D01*
X15940000Y-7925000D02*
X15940000Y-7955000D01*
X15925000Y-7940000D02*
X15955000Y-7940000D01*
X16022500Y-6892500D02*
X16022500Y-6922500D01*
X16007500Y-6907500D02*
X16037500Y-6907500D01*
X16255000Y-6660000D02*
X16255000Y-6690000D01*
X16240000Y-6675000D02*
X16270000Y-6675000D01*
X16255000Y-6810000D02*
X16255000Y-6840000D01*
X16240000Y-6825000D02*
X16270000Y-6825000D01*
X16480000Y-6915000D02*
X16480000Y-6945000D01*
X16465000Y-6930000D02*
X16495000Y-6930000D01*
X16483750Y-7525000D02*
X16483750Y-7555000D01*
X16468750Y-7540000D02*
X16498750Y-7540000D01*
X16900000Y-7945000D02*
X16900000Y-7975000D01*
X16885000Y-7960000D02*
X16915000Y-7960000D01*
X16900000Y-8095000D02*
X16900000Y-8125000D01*
X16885000Y-8110000D02*
X16915000Y-8110000D01*
X16990000Y-8750000D02*
X16990000Y-8780000D01*
X16975000Y-8765000D02*
X17005000Y-8765000D01*
X17060000Y-6663750D02*
X17060000Y-6693750D01*
X17045000Y-6678750D02*
X17075000Y-6678750D01*
X18560000Y-6870000D02*
X18560000Y-6900000D01*
X18545000Y-6885000D02*
X18575000Y-6885000D01*
X19210000Y-6625000D02*
X19210000Y-6655000D01*
X19195000Y-6640000D02*
X19225000Y-6640000D01*
X19230000Y-7510000D02*
X19230000Y-7540000D01*
X19215000Y-7525000D02*
X19245000Y-7525000D01*
X19300000Y-7185000D02*
X19300000Y-7215000D01*
X19285000Y-7200000D02*
X19315000Y-7200000D01*
X19375000Y-8800000D02*
X19375000Y-8830000D01*
X19360000Y-8815000D02*
X19390000Y-8815000D01*
X19380000Y-8715000D02*
X19380000Y-8745000D01*
X19365000Y-8730000D02*
X19395000Y-8730000D01*
X19445000Y-8325000D02*
X19445000Y-8355000D01*
X19430000Y-8340000D02*
X19460000Y-8340000D01*
X19450000Y-7185000D02*
X19450000Y-7215000D01*
X19435000Y-7200000D02*
X19465000Y-7200000D01*
X19480000Y-6465000D02*
X19480000Y-6495000D01*
X19465000Y-6480000D02*
X19495000Y-6480000D01*
X19635000Y-8285000D02*
X19635000Y-8315000D01*
X19620000Y-8300000D02*
X19650000Y-8300000D01*
X19675000Y-7420000D02*
X19675000Y-7450000D01*
X19660000Y-7435000D02*
X19690000Y-7435000D01*
X19765000Y-7182500D02*
X19765000Y-7212500D01*
X19750000Y-7197500D02*
X19780000Y-7197500D01*
X19970000Y-7945000D02*
X19970000Y-7975000D01*
X19955000Y-7960000D02*
X19985000Y-7960000D01*
X20400000Y-6510000D02*
X20400000Y-6540000D01*
X20385000Y-6525000D02*
X20415000Y-6525000D01*
X20400000Y-7160000D02*
X20400000Y-7190000D01*
X20385000Y-7175000D02*
X20415000Y-7175000D01*
X20550000Y-6208750D02*
X20550000Y-6238750D01*
X20535000Y-6223750D02*
X20565000Y-6223750D01*
X20550000Y-8335000D02*
X20550000Y-8365000D01*
X20535000Y-8350000D02*
X20565000Y-8350000D01*
X20550000Y-8435000D02*
X20550000Y-8465000D01*
X20535000Y-8450000D02*
X20565000Y-8450000D01*
X20550000Y-8515000D02*
X20550000Y-8545000D01*
X20535000Y-8530000D02*
X20565000Y-8530000D01*
X20550000Y-8635000D02*
X20550000Y-8665000D01*
X20535000Y-8650000D02*
X20565000Y-8650000D01*
X15402678Y-7817678D02*
X15402678Y-7782322D01*
X15367322Y-7782322D01*
X15367322Y-7817678D01*
X15402678Y-7817678D01*
X15592678Y-7817678D02*
X15592678Y-7782322D01*
X15557322Y-7782322D01*
X15557322Y-7817678D01*
X15592678Y-7817678D01*
X20092500Y-5962000D02*
X20132500Y-5922000D01*
X20092500Y-5882000D01*
X20052500Y-5922000D01*
X20092500Y-5962000D01*
X20092500Y-6216000D02*
X20132500Y-6176000D01*
X20092500Y-6136000D01*
X20052500Y-6176000D01*
X20092500Y-6216000D01*
X20092500Y-6470000D02*
X20132500Y-6430000D01*
X20092500Y-6390000D01*
X20052500Y-6430000D01*
X20092500Y-6470000D01*
X13550000Y-6350000D02*
X13650000Y-6450000D01*
X13650000Y-6350000D02*
X13550000Y-6450000D01*
X13650000Y-6400000D02*
G75*
G03*
X13550000Y-6400000I-50000J0D01*
G01*
X13550000Y-6400000D02*
G75*
G03*
X13650000Y-6400000I50000J0D01*
G01*
X13550000Y-8650000D02*
X13650000Y-8750000D01*
X13650000Y-8650000D02*
X13550000Y-8750000D01*
X13650000Y-8700000D02*
G75*
G03*
X13550000Y-8700000I-50000J0D01*
G01*
X13550000Y-8700000D02*
G75*
G03*
X13650000Y-8700000I50000J0D01*
G01*
X13804000Y-6350000D02*
X13904000Y-6450000D01*
X13904000Y-6350000D02*
X13804000Y-6450000D01*
X13904000Y-6400000D02*
G75*
G03*
X13804000Y-6400000I-50000J0D01*
G01*
X13804000Y-6400000D02*
G75*
G03*
X13904000Y-6400000I50000J0D01*
G01*
X14696000Y-6350000D02*
X14796000Y-6450000D01*
X14796000Y-6350000D02*
X14696000Y-6450000D01*
X14796000Y-6400000D02*
G75*
G03*
X14696000Y-6400000I-50000J0D01*
G01*
X14696000Y-6400000D02*
G75*
G03*
X14796000Y-6400000I50000J0D01*
G01*
X14950000Y-6350000D02*
X15050000Y-6450000D01*
X15050000Y-6350000D02*
X14950000Y-6450000D01*
X15050000Y-6400000D02*
G75*
G03*
X14950000Y-6400000I-50000J0D01*
G01*
X14950000Y-6400000D02*
G75*
G03*
X15050000Y-6400000I50000J0D01*
G01*
X14950000Y-8650000D02*
X15050000Y-8750000D01*
X15050000Y-8650000D02*
X14950000Y-8750000D01*
X15050000Y-8700000D02*
G75*
G03*
X14950000Y-8700000I-50000J0D01*
G01*
X14950000Y-8700000D02*
G75*
G03*
X15050000Y-8700000I50000J0D01*
G01*
X15455000Y-5648500D02*
X15555000Y-5748500D01*
X15555000Y-5648500D02*
X15455000Y-5748500D01*
X15555000Y-5698500D02*
G75*
G03*
X15455000Y-5698500I-50000J0D01*
G01*
X15455000Y-5698500D02*
G75*
G03*
X15555000Y-5698500I50000J0D01*
G01*
X15455000Y-5902500D02*
X15555000Y-6002500D01*
X15555000Y-5902500D02*
X15455000Y-6002500D01*
X15555000Y-5952500D02*
G75*
G03*
X15455000Y-5952500I-50000J0D01*
G01*
X15455000Y-5952500D02*
G75*
G03*
X15555000Y-5952500I50000J0D01*
G01*
X15821000Y-5900000D02*
X15921000Y-6000000D01*
X15921000Y-5900000D02*
X15821000Y-6000000D01*
X15921000Y-5950000D02*
G75*
G03*
X15821000Y-5950000I-50000J0D01*
G01*
X15821000Y-5950000D02*
G75*
G03*
X15921000Y-5950000I50000J0D01*
G01*
X16075000Y-5900000D02*
X16175000Y-6000000D01*
X16175000Y-5900000D02*
X16075000Y-6000000D01*
X16175000Y-5950000D02*
G75*
G03*
X16075000Y-5950000I-50000J0D01*
G01*
X16075000Y-5950000D02*
G75*
G03*
X16175000Y-5950000I50000J0D01*
G01*
X16329000Y-5900000D02*
X16429000Y-6000000D01*
X16429000Y-5900000D02*
X16329000Y-6000000D01*
X16429000Y-5950000D02*
G75*
G03*
X16329000Y-5950000I-50000J0D01*
G01*
X16329000Y-5950000D02*
G75*
G03*
X16429000Y-5950000I50000J0D01*
G01*
X16583000Y-5900000D02*
X16683000Y-6000000D01*
X16683000Y-5900000D02*
X16583000Y-6000000D01*
X16683000Y-5950000D02*
G75*
G03*
X16583000Y-5950000I-50000J0D01*
G01*
X16583000Y-5950000D02*
G75*
G03*
X16683000Y-5950000I50000J0D01*
G01*
X16837000Y-5900000D02*
X16937000Y-6000000D01*
X16937000Y-5900000D02*
X16837000Y-6000000D01*
X16937000Y-5950000D02*
G75*
G03*
X16837000Y-5950000I-50000J0D01*
G01*
X16837000Y-5950000D02*
G75*
G03*
X16937000Y-5950000I50000J0D01*
G01*
X17091000Y-5900000D02*
X17191000Y-6000000D01*
X17191000Y-5900000D02*
X17091000Y-6000000D01*
X17191000Y-5950000D02*
G75*
G03*
X17091000Y-5950000I-50000J0D01*
G01*
X17091000Y-5950000D02*
G75*
G03*
X17191000Y-5950000I50000J0D01*
G01*
X17470000Y-5643500D02*
X17570000Y-5743500D01*
X17570000Y-5643500D02*
X17470000Y-5743500D01*
X17570000Y-5693500D02*
G75*
G03*
X17470000Y-5693500I-50000J0D01*
G01*
X17470000Y-5693500D02*
G75*
G03*
X17570000Y-5693500I50000J0D01*
G01*
X17470000Y-5897500D02*
X17570000Y-5997500D01*
X17570000Y-5897500D02*
X17470000Y-5997500D01*
X17570000Y-5947500D02*
G75*
G03*
X17470000Y-5947500I-50000J0D01*
G01*
X17470000Y-5947500D02*
G75*
G03*
X17570000Y-5947500I50000J0D01*
G01*
X17846000Y-5900000D02*
X17946000Y-6000000D01*
X17946000Y-5900000D02*
X17846000Y-6000000D01*
X17946000Y-5950000D02*
G75*
G03*
X17846000Y-5950000I-50000J0D01*
G01*
X17846000Y-5950000D02*
G75*
G03*
X17946000Y-5950000I50000J0D01*
G01*
X18100000Y-5900000D02*
X18200000Y-6000000D01*
X18200000Y-5900000D02*
X18100000Y-6000000D01*
X18200000Y-5950000D02*
G75*
G03*
X18100000Y-5950000I-50000J0D01*
G01*
X18100000Y-5950000D02*
G75*
G03*
X18200000Y-5950000I50000J0D01*
G01*
X18354000Y-5900000D02*
X18454000Y-6000000D01*
X18454000Y-5900000D02*
X18354000Y-6000000D01*
X18454000Y-5950000D02*
G75*
G03*
X18354000Y-5950000I-50000J0D01*
G01*
X18354000Y-5950000D02*
G75*
G03*
X18454000Y-5950000I50000J0D01*
G01*
X18608000Y-5900000D02*
X18708000Y-6000000D01*
X18708000Y-5900000D02*
X18608000Y-6000000D01*
X18708000Y-5950000D02*
G75*
G03*
X18608000Y-5950000I-50000J0D01*
G01*
X18608000Y-5950000D02*
G75*
G03*
X18708000Y-5950000I50000J0D01*
G01*
X18862000Y-5900000D02*
X18962000Y-6000000D01*
X18962000Y-5900000D02*
X18862000Y-6000000D01*
X18962000Y-5950000D02*
G75*
G03*
X18862000Y-5950000I-50000J0D01*
G01*
X18862000Y-5950000D02*
G75*
G03*
X18962000Y-5950000I50000J0D01*
G01*
X19116000Y-5900000D02*
X19216000Y-6000000D01*
X19216000Y-5900000D02*
X19116000Y-6000000D01*
X19216000Y-5950000D02*
G75*
G03*
X19116000Y-5950000I-50000J0D01*
G01*
X19116000Y-5950000D02*
G75*
G03*
X19216000Y-5950000I50000J0D01*
G01*
X19880000Y-7295000D02*
X19980000Y-7395000D01*
X19980000Y-7295000D02*
X19880000Y-7395000D01*
X19980000Y-7345000D02*
G75*
G03*
X19880000Y-7345000I-50000J0D01*
G01*
X19880000Y-7345000D02*
G75*
G03*
X19980000Y-7345000I50000J0D01*
G01*
X19880000Y-7549000D02*
X19980000Y-7649000D01*
X19980000Y-7549000D02*
X19880000Y-7649000D01*
X19980000Y-7599000D02*
G75*
G03*
X19880000Y-7599000I-50000J0D01*
G01*
X19880000Y-7599000D02*
G75*
G03*
X19980000Y-7599000I50000J0D01*
G01*
D13*
X13130000Y-5890000D02*
X13290000Y-6050000D01*
X13290000Y-5890000D02*
X13130000Y-6050000D01*
X13210000Y-5890000D02*
X13210000Y-6050000D01*
X13130000Y-5970000D02*
X13290000Y-5970000D01*
X13130000Y-7820000D02*
X13290000Y-7980000D01*
X13290000Y-7820000D02*
X13130000Y-7980000D01*
X13210000Y-7820000D02*
X13210000Y-7980000D01*
X13130000Y-7900000D02*
X13290000Y-7900000D01*
X20420000Y-5890000D02*
X20580000Y-6050000D01*
X20580000Y-5890000D02*
X20420000Y-6050000D01*
X20500000Y-5890000D02*
X20500000Y-6050000D01*
X20420000Y-5970000D02*
X20580000Y-5970000D01*
X20420000Y-7820000D02*
X20580000Y-7980000D01*
X20580000Y-7820000D02*
X20420000Y-7980000D01*
X20500000Y-7820000D02*
X20500000Y-7980000D01*
X20420000Y-7900000D02*
X20580000Y-7900000D01*
D12*
X13205777Y-9291484D02*
X13205777Y-9091484D01*
X13205777Y-9091484D02*
X13253396Y-9091484D01*
X13253396Y-9091484D02*
X13281967Y-9101008D01*
X13281967Y-9101008D02*
X13301015Y-9120055D01*
X13301015Y-9120055D02*
X13310539Y-9139103D01*
X13310539Y-9139103D02*
X13320062Y-9177198D01*
X13320062Y-9177198D02*
X13320062Y-9205770D01*
X13320062Y-9205770D02*
X13310539Y-9243865D01*
X13310539Y-9243865D02*
X13301015Y-9262912D01*
X13301015Y-9262912D02*
X13281967Y-9281960D01*
X13281967Y-9281960D02*
X13253396Y-9291484D01*
X13253396Y-9291484D02*
X13205777Y-9291484D01*
X13405777Y-9291484D02*
X13405777Y-9158150D01*
X13405777Y-9196246D02*
X13415301Y-9177198D01*
X13415301Y-9177198D02*
X13424824Y-9167674D01*
X13424824Y-9167674D02*
X13443872Y-9158150D01*
X13443872Y-9158150D02*
X13462920Y-9158150D01*
X13529586Y-9291484D02*
X13529586Y-9158150D01*
X13529586Y-9091484D02*
X13520062Y-9101008D01*
X13520062Y-9101008D02*
X13529586Y-9110531D01*
X13529586Y-9110531D02*
X13539110Y-9101008D01*
X13539110Y-9101008D02*
X13529586Y-9091484D01*
X13529586Y-9091484D02*
X13529586Y-9110531D01*
X13653396Y-9291484D02*
X13634348Y-9281960D01*
X13634348Y-9281960D02*
X13624824Y-9262912D01*
X13624824Y-9262912D02*
X13624824Y-9091484D01*
X13758158Y-9291484D02*
X13739110Y-9281960D01*
X13739110Y-9281960D02*
X13729586Y-9262912D01*
X13729586Y-9262912D02*
X13729586Y-9091484D01*
X13986729Y-9291484D02*
X13986729Y-9091484D01*
X13986729Y-9091484D02*
X14053396Y-9234341D01*
X14053396Y-9234341D02*
X14120062Y-9091484D01*
X14120062Y-9091484D02*
X14120062Y-9291484D01*
X14301015Y-9291484D02*
X14301015Y-9186722D01*
X14301015Y-9186722D02*
X14291491Y-9167674D01*
X14291491Y-9167674D02*
X14272443Y-9158150D01*
X14272443Y-9158150D02*
X14234348Y-9158150D01*
X14234348Y-9158150D02*
X14215301Y-9167674D01*
X14301015Y-9281960D02*
X14281967Y-9291484D01*
X14281967Y-9291484D02*
X14234348Y-9291484D01*
X14234348Y-9291484D02*
X14215301Y-9281960D01*
X14215301Y-9281960D02*
X14205777Y-9262912D01*
X14205777Y-9262912D02*
X14205777Y-9243865D01*
X14205777Y-9243865D02*
X14215301Y-9224817D01*
X14215301Y-9224817D02*
X14234348Y-9215293D01*
X14234348Y-9215293D02*
X14281967Y-9215293D01*
X14281967Y-9215293D02*
X14301015Y-9205770D01*
X14396253Y-9158150D02*
X14396253Y-9358150D01*
X14396253Y-9167674D02*
X14415301Y-9158150D01*
X14415301Y-9158150D02*
X14453396Y-9158150D01*
X14453396Y-9158150D02*
X14472443Y-9167674D01*
X14472443Y-9167674D02*
X14481967Y-9177198D01*
X14481967Y-9177198D02*
X14491491Y-9196246D01*
X14491491Y-9196246D02*
X14491491Y-9253389D01*
X14491491Y-9253389D02*
X14481967Y-9272436D01*
X14481967Y-9272436D02*
X14472443Y-9281960D01*
X14472443Y-9281960D02*
X14453396Y-9291484D01*
X14453396Y-9291484D02*
X14415301Y-9291484D01*
X14415301Y-9291484D02*
X14396253Y-9281960D01*
X14577205Y-9272436D02*
X14586729Y-9281960D01*
X14586729Y-9281960D02*
X14577205Y-9291484D01*
X14577205Y-9291484D02*
X14567682Y-9281960D01*
X14567682Y-9281960D02*
X14577205Y-9272436D01*
X14577205Y-9272436D02*
X14577205Y-9291484D01*
X14577205Y-9167674D02*
X14586729Y-9177198D01*
X14586729Y-9177198D02*
X14577205Y-9186722D01*
X14577205Y-9186722D02*
X14567682Y-9177198D01*
X14567682Y-9177198D02*
X14577205Y-9167674D01*
X14577205Y-9167674D02*
X14577205Y-9186722D01*
D10*
X12925000Y-9610000D02*
X12945000Y-9630000D01*
X12945000Y-9610000D02*
X12925000Y-9630000D01*
D12*
X13243872Y-9511484D02*
X13262920Y-9511484D01*
X13262920Y-9511484D02*
X13281967Y-9521008D01*
X13281967Y-9521008D02*
X13291491Y-9530531D01*
X13291491Y-9530531D02*
X13301015Y-9549579D01*
X13301015Y-9549579D02*
X13310539Y-9587674D01*
X13310539Y-9587674D02*
X13310539Y-9635293D01*
X13310539Y-9635293D02*
X13301015Y-9673389D01*
X13301015Y-9673389D02*
X13291491Y-9692436D01*
X13291491Y-9692436D02*
X13281967Y-9701960D01*
X13281967Y-9701960D02*
X13262920Y-9711484D01*
X13262920Y-9711484D02*
X13243872Y-9711484D01*
X13243872Y-9711484D02*
X13224824Y-9701960D01*
X13224824Y-9701960D02*
X13215301Y-9692436D01*
X13215301Y-9692436D02*
X13205777Y-9673389D01*
X13205777Y-9673389D02*
X13196253Y-9635293D01*
X13196253Y-9635293D02*
X13196253Y-9587674D01*
X13196253Y-9587674D02*
X13205777Y-9549579D01*
X13205777Y-9549579D02*
X13215301Y-9530531D01*
X13215301Y-9530531D02*
X13224824Y-9521008D01*
X13224824Y-9521008D02*
X13243872Y-9511484D01*
X13396253Y-9692436D02*
X13405777Y-9701960D01*
X13405777Y-9701960D02*
X13396253Y-9711484D01*
X13396253Y-9711484D02*
X13386729Y-9701960D01*
X13386729Y-9701960D02*
X13396253Y-9692436D01*
X13396253Y-9692436D02*
X13396253Y-9711484D01*
X13481967Y-9530531D02*
X13491491Y-9521008D01*
X13491491Y-9521008D02*
X13510539Y-9511484D01*
X13510539Y-9511484D02*
X13558158Y-9511484D01*
X13558158Y-9511484D02*
X13577205Y-9521008D01*
X13577205Y-9521008D02*
X13586729Y-9530531D01*
X13586729Y-9530531D02*
X13596253Y-9549579D01*
X13596253Y-9549579D02*
X13596253Y-9568627D01*
X13596253Y-9568627D02*
X13586729Y-9597198D01*
X13586729Y-9597198D02*
X13472443Y-9711484D01*
X13472443Y-9711484D02*
X13596253Y-9711484D01*
X13720062Y-9511484D02*
X13739110Y-9511484D01*
X13739110Y-9511484D02*
X13758158Y-9521008D01*
X13758158Y-9521008D02*
X13767682Y-9530531D01*
X13767682Y-9530531D02*
X13777205Y-9549579D01*
X13777205Y-9549579D02*
X13786729Y-9587674D01*
X13786729Y-9587674D02*
X13786729Y-9635293D01*
X13786729Y-9635293D02*
X13777205Y-9673389D01*
X13777205Y-9673389D02*
X13767682Y-9692436D01*
X13767682Y-9692436D02*
X13758158Y-9701960D01*
X13758158Y-9701960D02*
X13739110Y-9711484D01*
X13739110Y-9711484D02*
X13720062Y-9711484D01*
X13720062Y-9711484D02*
X13701015Y-9701960D01*
X13701015Y-9701960D02*
X13691491Y-9692436D01*
X13691491Y-9692436D02*
X13681967Y-9673389D01*
X13681967Y-9673389D02*
X13672443Y-9635293D01*
X13672443Y-9635293D02*
X13672443Y-9587674D01*
X13672443Y-9587674D02*
X13681967Y-9549579D01*
X13681967Y-9549579D02*
X13691491Y-9530531D01*
X13691491Y-9530531D02*
X13701015Y-9521008D01*
X13701015Y-9521008D02*
X13720062Y-9511484D01*
X13910539Y-9511484D02*
X13929586Y-9511484D01*
X13929586Y-9511484D02*
X13948634Y-9521008D01*
X13948634Y-9521008D02*
X13958158Y-9530531D01*
X13958158Y-9530531D02*
X13967682Y-9549579D01*
X13967682Y-9549579D02*
X13977205Y-9587674D01*
X13977205Y-9587674D02*
X13977205Y-9635293D01*
X13977205Y-9635293D02*
X13967682Y-9673389D01*
X13967682Y-9673389D02*
X13958158Y-9692436D01*
X13958158Y-9692436D02*
X13948634Y-9701960D01*
X13948634Y-9701960D02*
X13929586Y-9711484D01*
X13929586Y-9711484D02*
X13910539Y-9711484D01*
X13910539Y-9711484D02*
X13891491Y-9701960D01*
X13891491Y-9701960D02*
X13881967Y-9692436D01*
X13881967Y-9692436D02*
X13872443Y-9673389D01*
X13872443Y-9673389D02*
X13862920Y-9635293D01*
X13862920Y-9635293D02*
X13862920Y-9587674D01*
X13862920Y-9587674D02*
X13872443Y-9549579D01*
X13872443Y-9549579D02*
X13881967Y-9530531D01*
X13881967Y-9530531D02*
X13891491Y-9521008D01*
X13891491Y-9521008D02*
X13910539Y-9511484D01*
X14062920Y-9711484D02*
X14062920Y-9578150D01*
X14062920Y-9597198D02*
X14072443Y-9587674D01*
X14072443Y-9587674D02*
X14091491Y-9578150D01*
X14091491Y-9578150D02*
X14120063Y-9578150D01*
X14120063Y-9578150D02*
X14139110Y-9587674D01*
X14139110Y-9587674D02*
X14148634Y-9606722D01*
X14148634Y-9606722D02*
X14148634Y-9711484D01*
X14148634Y-9606722D02*
X14158158Y-9587674D01*
X14158158Y-9587674D02*
X14177205Y-9578150D01*
X14177205Y-9578150D02*
X14205777Y-9578150D01*
X14205777Y-9578150D02*
X14224824Y-9587674D01*
X14224824Y-9587674D02*
X14234348Y-9606722D01*
X14234348Y-9606722D02*
X14234348Y-9711484D01*
X14329586Y-9711484D02*
X14329586Y-9578150D01*
X14329586Y-9597198D02*
X14339110Y-9587674D01*
X14339110Y-9587674D02*
X14358158Y-9578150D01*
X14358158Y-9578150D02*
X14386729Y-9578150D01*
X14386729Y-9578150D02*
X14405777Y-9587674D01*
X14405777Y-9587674D02*
X14415301Y-9606722D01*
X14415301Y-9606722D02*
X14415301Y-9711484D01*
X14415301Y-9606722D02*
X14424824Y-9587674D01*
X14424824Y-9587674D02*
X14443872Y-9578150D01*
X14443872Y-9578150D02*
X14472443Y-9578150D01*
X14472443Y-9578150D02*
X14491491Y-9587674D01*
X14491491Y-9587674D02*
X14501015Y-9606722D01*
X14501015Y-9606722D02*
X14501015Y-9711484D01*
X14891491Y-9501960D02*
X14720063Y-9759103D01*
X15148634Y-9511484D02*
X15167682Y-9511484D01*
X15167682Y-9511484D02*
X15186729Y-9521008D01*
X15186729Y-9521008D02*
X15196253Y-9530531D01*
X15196253Y-9530531D02*
X15205777Y-9549579D01*
X15205777Y-9549579D02*
X15215301Y-9587674D01*
X15215301Y-9587674D02*
X15215301Y-9635293D01*
X15215301Y-9635293D02*
X15205777Y-9673389D01*
X15205777Y-9673389D02*
X15196253Y-9692436D01*
X15196253Y-9692436D02*
X15186729Y-9701960D01*
X15186729Y-9701960D02*
X15167682Y-9711484D01*
X15167682Y-9711484D02*
X15148634Y-9711484D01*
X15148634Y-9711484D02*
X15129586Y-9701960D01*
X15129586Y-9701960D02*
X15120063Y-9692436D01*
X15120063Y-9692436D02*
X15110539Y-9673389D01*
X15110539Y-9673389D02*
X15101015Y-9635293D01*
X15101015Y-9635293D02*
X15101015Y-9587674D01*
X15101015Y-9587674D02*
X15110539Y-9549579D01*
X15110539Y-9549579D02*
X15120063Y-9530531D01*
X15120063Y-9530531D02*
X15129586Y-9521008D01*
X15129586Y-9521008D02*
X15148634Y-9511484D01*
X15301015Y-9692436D02*
X15310539Y-9701960D01*
X15310539Y-9701960D02*
X15301015Y-9711484D01*
X15301015Y-9711484D02*
X15291491Y-9701960D01*
X15291491Y-9701960D02*
X15301015Y-9692436D01*
X15301015Y-9692436D02*
X15301015Y-9711484D01*
X15434348Y-9511484D02*
X15453396Y-9511484D01*
X15453396Y-9511484D02*
X15472444Y-9521008D01*
X15472444Y-9521008D02*
X15481967Y-9530531D01*
X15481967Y-9530531D02*
X15491491Y-9549579D01*
X15491491Y-9549579D02*
X15501015Y-9587674D01*
X15501015Y-9587674D02*
X15501015Y-9635293D01*
X15501015Y-9635293D02*
X15491491Y-9673389D01*
X15491491Y-9673389D02*
X15481967Y-9692436D01*
X15481967Y-9692436D02*
X15472444Y-9701960D01*
X15472444Y-9701960D02*
X15453396Y-9711484D01*
X15453396Y-9711484D02*
X15434348Y-9711484D01*
X15434348Y-9711484D02*
X15415301Y-9701960D01*
X15415301Y-9701960D02*
X15405777Y-9692436D01*
X15405777Y-9692436D02*
X15396253Y-9673389D01*
X15396253Y-9673389D02*
X15386729Y-9635293D01*
X15386729Y-9635293D02*
X15386729Y-9587674D01*
X15386729Y-9587674D02*
X15396253Y-9549579D01*
X15396253Y-9549579D02*
X15405777Y-9530531D01*
X15405777Y-9530531D02*
X15415301Y-9521008D01*
X15415301Y-9521008D02*
X15434348Y-9511484D01*
X15624825Y-9511484D02*
X15643872Y-9511484D01*
X15643872Y-9511484D02*
X15662920Y-9521008D01*
X15662920Y-9521008D02*
X15672444Y-9530531D01*
X15672444Y-9530531D02*
X15681967Y-9549579D01*
X15681967Y-9549579D02*
X15691491Y-9587674D01*
X15691491Y-9587674D02*
X15691491Y-9635293D01*
X15691491Y-9635293D02*
X15681967Y-9673389D01*
X15681967Y-9673389D02*
X15672444Y-9692436D01*
X15672444Y-9692436D02*
X15662920Y-9701960D01*
X15662920Y-9701960D02*
X15643872Y-9711484D01*
X15643872Y-9711484D02*
X15624825Y-9711484D01*
X15624825Y-9711484D02*
X15605777Y-9701960D01*
X15605777Y-9701960D02*
X15596253Y-9692436D01*
X15596253Y-9692436D02*
X15586729Y-9673389D01*
X15586729Y-9673389D02*
X15577206Y-9635293D01*
X15577206Y-9635293D02*
X15577206Y-9587674D01*
X15577206Y-9587674D02*
X15586729Y-9549579D01*
X15586729Y-9549579D02*
X15596253Y-9530531D01*
X15596253Y-9530531D02*
X15605777Y-9521008D01*
X15605777Y-9521008D02*
X15624825Y-9511484D01*
X15758158Y-9511484D02*
X15891491Y-9511484D01*
X15891491Y-9511484D02*
X15805777Y-9711484D01*
X15977206Y-9711484D02*
X16015301Y-9711484D01*
X16015301Y-9711484D02*
X16034348Y-9701960D01*
X16034348Y-9701960D02*
X16043872Y-9692436D01*
X16043872Y-9692436D02*
X16062920Y-9663865D01*
X16062920Y-9663865D02*
X16072444Y-9625770D01*
X16072444Y-9625770D02*
X16072444Y-9549579D01*
X16072444Y-9549579D02*
X16062920Y-9530531D01*
X16062920Y-9530531D02*
X16053396Y-9521008D01*
X16053396Y-9521008D02*
X16034348Y-9511484D01*
X16034348Y-9511484D02*
X15996253Y-9511484D01*
X15996253Y-9511484D02*
X15977206Y-9521008D01*
X15977206Y-9521008D02*
X15967682Y-9530531D01*
X15967682Y-9530531D02*
X15958158Y-9549579D01*
X15958158Y-9549579D02*
X15958158Y-9597198D01*
X15958158Y-9597198D02*
X15967682Y-9616246D01*
X15967682Y-9616246D02*
X15977206Y-9625770D01*
X15977206Y-9625770D02*
X15996253Y-9635293D01*
X15996253Y-9635293D02*
X16034348Y-9635293D01*
X16034348Y-9635293D02*
X16053396Y-9625770D01*
X16053396Y-9625770D02*
X16062920Y-9616246D01*
X16062920Y-9616246D02*
X16072444Y-9597198D01*
X16148634Y-9511484D02*
X16148634Y-9549579D01*
X16224825Y-9511484D02*
X16224825Y-9549579D01*
X16520063Y-9787674D02*
X16510539Y-9778150D01*
X16510539Y-9778150D02*
X16491491Y-9749579D01*
X16491491Y-9749579D02*
X16481968Y-9730531D01*
X16481968Y-9730531D02*
X16472444Y-9701960D01*
X16472444Y-9701960D02*
X16462920Y-9654341D01*
X16462920Y-9654341D02*
X16462920Y-9616246D01*
X16462920Y-9616246D02*
X16472444Y-9568627D01*
X16472444Y-9568627D02*
X16481968Y-9540055D01*
X16481968Y-9540055D02*
X16491491Y-9521008D01*
X16491491Y-9521008D02*
X16510539Y-9492436D01*
X16510539Y-9492436D02*
X16520063Y-9482912D01*
X16701015Y-9711484D02*
X16586729Y-9711484D01*
X16643872Y-9711484D02*
X16643872Y-9511484D01*
X16643872Y-9511484D02*
X16624825Y-9540055D01*
X16624825Y-9540055D02*
X16605777Y-9559103D01*
X16605777Y-9559103D02*
X16586729Y-9568627D01*
X16815301Y-9597198D02*
X16796253Y-9587674D01*
X16796253Y-9587674D02*
X16786730Y-9578150D01*
X16786730Y-9578150D02*
X16777206Y-9559103D01*
X16777206Y-9559103D02*
X16777206Y-9549579D01*
X16777206Y-9549579D02*
X16786730Y-9530531D01*
X16786730Y-9530531D02*
X16796253Y-9521008D01*
X16796253Y-9521008D02*
X16815301Y-9511484D01*
X16815301Y-9511484D02*
X16853396Y-9511484D01*
X16853396Y-9511484D02*
X16872444Y-9521008D01*
X16872444Y-9521008D02*
X16881968Y-9530531D01*
X16881968Y-9530531D02*
X16891491Y-9549579D01*
X16891491Y-9549579D02*
X16891491Y-9559103D01*
X16891491Y-9559103D02*
X16881968Y-9578150D01*
X16881968Y-9578150D02*
X16872444Y-9587674D01*
X16872444Y-9587674D02*
X16853396Y-9597198D01*
X16853396Y-9597198D02*
X16815301Y-9597198D01*
X16815301Y-9597198D02*
X16796253Y-9606722D01*
X16796253Y-9606722D02*
X16786730Y-9616246D01*
X16786730Y-9616246D02*
X16777206Y-9635293D01*
X16777206Y-9635293D02*
X16777206Y-9673389D01*
X16777206Y-9673389D02*
X16786730Y-9692436D01*
X16786730Y-9692436D02*
X16796253Y-9701960D01*
X16796253Y-9701960D02*
X16815301Y-9711484D01*
X16815301Y-9711484D02*
X16853396Y-9711484D01*
X16853396Y-9711484D02*
X16872444Y-9701960D01*
X16872444Y-9701960D02*
X16881968Y-9692436D01*
X16881968Y-9692436D02*
X16891491Y-9673389D01*
X16891491Y-9673389D02*
X16891491Y-9635293D01*
X16891491Y-9635293D02*
X16881968Y-9616246D01*
X16881968Y-9616246D02*
X16872444Y-9606722D01*
X16872444Y-9606722D02*
X16853396Y-9597198D01*
X17129587Y-9711484D02*
X17129587Y-9511484D01*
X17215301Y-9711484D02*
X17215301Y-9606722D01*
X17215301Y-9606722D02*
X17205777Y-9587674D01*
X17205777Y-9587674D02*
X17186730Y-9578150D01*
X17186730Y-9578150D02*
X17158158Y-9578150D01*
X17158158Y-9578150D02*
X17139111Y-9587674D01*
X17139111Y-9587674D02*
X17129587Y-9597198D01*
X17339111Y-9711484D02*
X17320063Y-9701960D01*
X17320063Y-9701960D02*
X17310539Y-9692436D01*
X17310539Y-9692436D02*
X17301015Y-9673389D01*
X17301015Y-9673389D02*
X17301015Y-9616246D01*
X17301015Y-9616246D02*
X17310539Y-9597198D01*
X17310539Y-9597198D02*
X17320063Y-9587674D01*
X17320063Y-9587674D02*
X17339111Y-9578150D01*
X17339111Y-9578150D02*
X17367682Y-9578150D01*
X17367682Y-9578150D02*
X17386730Y-9587674D01*
X17386730Y-9587674D02*
X17396253Y-9597198D01*
X17396253Y-9597198D02*
X17405777Y-9616246D01*
X17405777Y-9616246D02*
X17405777Y-9673389D01*
X17405777Y-9673389D02*
X17396253Y-9692436D01*
X17396253Y-9692436D02*
X17386730Y-9701960D01*
X17386730Y-9701960D02*
X17367682Y-9711484D01*
X17367682Y-9711484D02*
X17339111Y-9711484D01*
X17520063Y-9711484D02*
X17501015Y-9701960D01*
X17501015Y-9701960D02*
X17491492Y-9682912D01*
X17491492Y-9682912D02*
X17491492Y-9511484D01*
X17672444Y-9701960D02*
X17653396Y-9711484D01*
X17653396Y-9711484D02*
X17615301Y-9711484D01*
X17615301Y-9711484D02*
X17596253Y-9701960D01*
X17596253Y-9701960D02*
X17586730Y-9682912D01*
X17586730Y-9682912D02*
X17586730Y-9606722D01*
X17586730Y-9606722D02*
X17596253Y-9587674D01*
X17596253Y-9587674D02*
X17615301Y-9578150D01*
X17615301Y-9578150D02*
X17653396Y-9578150D01*
X17653396Y-9578150D02*
X17672444Y-9587674D01*
X17672444Y-9587674D02*
X17681968Y-9606722D01*
X17681968Y-9606722D02*
X17681968Y-9625770D01*
X17681968Y-9625770D02*
X17586730Y-9644817D01*
X17758158Y-9701960D02*
X17777206Y-9711484D01*
X17777206Y-9711484D02*
X17815301Y-9711484D01*
X17815301Y-9711484D02*
X17834349Y-9701960D01*
X17834349Y-9701960D02*
X17843873Y-9682912D01*
X17843873Y-9682912D02*
X17843873Y-9673389D01*
X17843873Y-9673389D02*
X17834349Y-9654341D01*
X17834349Y-9654341D02*
X17815301Y-9644817D01*
X17815301Y-9644817D02*
X17786730Y-9644817D01*
X17786730Y-9644817D02*
X17767682Y-9635293D01*
X17767682Y-9635293D02*
X17758158Y-9616246D01*
X17758158Y-9616246D02*
X17758158Y-9606722D01*
X17758158Y-9606722D02*
X17767682Y-9587674D01*
X17767682Y-9587674D02*
X17786730Y-9578150D01*
X17786730Y-9578150D02*
X17815301Y-9578150D01*
X17815301Y-9578150D02*
X17834349Y-9587674D01*
X17910539Y-9787674D02*
X17920063Y-9778150D01*
X17920063Y-9778150D02*
X17939111Y-9749579D01*
X17939111Y-9749579D02*
X17948634Y-9730531D01*
X17948634Y-9730531D02*
X17958158Y-9701960D01*
X17958158Y-9701960D02*
X17967682Y-9654341D01*
X17967682Y-9654341D02*
X17967682Y-9616246D01*
X17967682Y-9616246D02*
X17958158Y-9568627D01*
X17958158Y-9568627D02*
X17948634Y-9540055D01*
X17948634Y-9540055D02*
X17939111Y-9521008D01*
X17939111Y-9521008D02*
X17920063Y-9492436D01*
X17920063Y-9492436D02*
X17910539Y-9482912D01*
D10*
X12945000Y-9884000D02*
G75*
G03*
X12925000Y-9884000I-10000J0D01*
G01*
X12925000Y-9884000D02*
G75*
G03*
X12945000Y-9884000I10000J0D01*
G01*
D12*
X13243872Y-9775484D02*
X13262920Y-9775484D01*
X13262920Y-9775484D02*
X13281967Y-9785008D01*
X13281967Y-9785008D02*
X13291491Y-9794531D01*
X13291491Y-9794531D02*
X13301015Y-9813579D01*
X13301015Y-9813579D02*
X13310539Y-9851674D01*
X13310539Y-9851674D02*
X13310539Y-9899293D01*
X13310539Y-9899293D02*
X13301015Y-9937389D01*
X13301015Y-9937389D02*
X13291491Y-9956436D01*
X13291491Y-9956436D02*
X13281967Y-9965960D01*
X13281967Y-9965960D02*
X13262920Y-9975484D01*
X13262920Y-9975484D02*
X13243872Y-9975484D01*
X13243872Y-9975484D02*
X13224824Y-9965960D01*
X13224824Y-9965960D02*
X13215301Y-9956436D01*
X13215301Y-9956436D02*
X13205777Y-9937389D01*
X13205777Y-9937389D02*
X13196253Y-9899293D01*
X13196253Y-9899293D02*
X13196253Y-9851674D01*
X13196253Y-9851674D02*
X13205777Y-9813579D01*
X13205777Y-9813579D02*
X13215301Y-9794531D01*
X13215301Y-9794531D02*
X13224824Y-9785008D01*
X13224824Y-9785008D02*
X13243872Y-9775484D01*
X13396253Y-9956436D02*
X13405777Y-9965960D01*
X13405777Y-9965960D02*
X13396253Y-9975484D01*
X13396253Y-9975484D02*
X13386729Y-9965960D01*
X13386729Y-9965960D02*
X13396253Y-9956436D01*
X13396253Y-9956436D02*
X13396253Y-9975484D01*
X13481967Y-9794531D02*
X13491491Y-9785008D01*
X13491491Y-9785008D02*
X13510539Y-9775484D01*
X13510539Y-9775484D02*
X13558158Y-9775484D01*
X13558158Y-9775484D02*
X13577205Y-9785008D01*
X13577205Y-9785008D02*
X13586729Y-9794531D01*
X13586729Y-9794531D02*
X13596253Y-9813579D01*
X13596253Y-9813579D02*
X13596253Y-9832627D01*
X13596253Y-9832627D02*
X13586729Y-9861198D01*
X13586729Y-9861198D02*
X13472443Y-9975484D01*
X13472443Y-9975484D02*
X13596253Y-9975484D01*
X13720062Y-9775484D02*
X13739110Y-9775484D01*
X13739110Y-9775484D02*
X13758158Y-9785008D01*
X13758158Y-9785008D02*
X13767682Y-9794531D01*
X13767682Y-9794531D02*
X13777205Y-9813579D01*
X13777205Y-9813579D02*
X13786729Y-9851674D01*
X13786729Y-9851674D02*
X13786729Y-9899293D01*
X13786729Y-9899293D02*
X13777205Y-9937389D01*
X13777205Y-9937389D02*
X13767682Y-9956436D01*
X13767682Y-9956436D02*
X13758158Y-9965960D01*
X13758158Y-9965960D02*
X13739110Y-9975484D01*
X13739110Y-9975484D02*
X13720062Y-9975484D01*
X13720062Y-9975484D02*
X13701015Y-9965960D01*
X13701015Y-9965960D02*
X13691491Y-9956436D01*
X13691491Y-9956436D02*
X13681967Y-9937389D01*
X13681967Y-9937389D02*
X13672443Y-9899293D01*
X13672443Y-9899293D02*
X13672443Y-9851674D01*
X13672443Y-9851674D02*
X13681967Y-9813579D01*
X13681967Y-9813579D02*
X13691491Y-9794531D01*
X13691491Y-9794531D02*
X13701015Y-9785008D01*
X13701015Y-9785008D02*
X13720062Y-9775484D01*
X13910539Y-9775484D02*
X13929586Y-9775484D01*
X13929586Y-9775484D02*
X13948634Y-9785008D01*
X13948634Y-9785008D02*
X13958158Y-9794531D01*
X13958158Y-9794531D02*
X13967682Y-9813579D01*
X13967682Y-9813579D02*
X13977205Y-9851674D01*
X13977205Y-9851674D02*
X13977205Y-9899293D01*
X13977205Y-9899293D02*
X13967682Y-9937389D01*
X13967682Y-9937389D02*
X13958158Y-9956436D01*
X13958158Y-9956436D02*
X13948634Y-9965960D01*
X13948634Y-9965960D02*
X13929586Y-9975484D01*
X13929586Y-9975484D02*
X13910539Y-9975484D01*
X13910539Y-9975484D02*
X13891491Y-9965960D01*
X13891491Y-9965960D02*
X13881967Y-9956436D01*
X13881967Y-9956436D02*
X13872443Y-9937389D01*
X13872443Y-9937389D02*
X13862920Y-9899293D01*
X13862920Y-9899293D02*
X13862920Y-9851674D01*
X13862920Y-9851674D02*
X13872443Y-9813579D01*
X13872443Y-9813579D02*
X13881967Y-9794531D01*
X13881967Y-9794531D02*
X13891491Y-9785008D01*
X13891491Y-9785008D02*
X13910539Y-9775484D01*
X14062920Y-9975484D02*
X14062920Y-9842150D01*
X14062920Y-9861198D02*
X14072443Y-9851674D01*
X14072443Y-9851674D02*
X14091491Y-9842150D01*
X14091491Y-9842150D02*
X14120063Y-9842150D01*
X14120063Y-9842150D02*
X14139110Y-9851674D01*
X14139110Y-9851674D02*
X14148634Y-9870722D01*
X14148634Y-9870722D02*
X14148634Y-9975484D01*
X14148634Y-9870722D02*
X14158158Y-9851674D01*
X14158158Y-9851674D02*
X14177205Y-9842150D01*
X14177205Y-9842150D02*
X14205777Y-9842150D01*
X14205777Y-9842150D02*
X14224824Y-9851674D01*
X14224824Y-9851674D02*
X14234348Y-9870722D01*
X14234348Y-9870722D02*
X14234348Y-9975484D01*
X14329586Y-9975484D02*
X14329586Y-9842150D01*
X14329586Y-9861198D02*
X14339110Y-9851674D01*
X14339110Y-9851674D02*
X14358158Y-9842150D01*
X14358158Y-9842150D02*
X14386729Y-9842150D01*
X14386729Y-9842150D02*
X14405777Y-9851674D01*
X14405777Y-9851674D02*
X14415301Y-9870722D01*
X14415301Y-9870722D02*
X14415301Y-9975484D01*
X14415301Y-9870722D02*
X14424824Y-9851674D01*
X14424824Y-9851674D02*
X14443872Y-9842150D01*
X14443872Y-9842150D02*
X14472443Y-9842150D01*
X14472443Y-9842150D02*
X14491491Y-9851674D01*
X14491491Y-9851674D02*
X14501015Y-9870722D01*
X14501015Y-9870722D02*
X14501015Y-9975484D01*
X14891491Y-9765960D02*
X14720063Y-10023103D01*
X15148634Y-9775484D02*
X15167682Y-9775484D01*
X15167682Y-9775484D02*
X15186729Y-9785008D01*
X15186729Y-9785008D02*
X15196253Y-9794531D01*
X15196253Y-9794531D02*
X15205777Y-9813579D01*
X15205777Y-9813579D02*
X15215301Y-9851674D01*
X15215301Y-9851674D02*
X15215301Y-9899293D01*
X15215301Y-9899293D02*
X15205777Y-9937389D01*
X15205777Y-9937389D02*
X15196253Y-9956436D01*
X15196253Y-9956436D02*
X15186729Y-9965960D01*
X15186729Y-9965960D02*
X15167682Y-9975484D01*
X15167682Y-9975484D02*
X15148634Y-9975484D01*
X15148634Y-9975484D02*
X15129586Y-9965960D01*
X15129586Y-9965960D02*
X15120063Y-9956436D01*
X15120063Y-9956436D02*
X15110539Y-9937389D01*
X15110539Y-9937389D02*
X15101015Y-9899293D01*
X15101015Y-9899293D02*
X15101015Y-9851674D01*
X15101015Y-9851674D02*
X15110539Y-9813579D01*
X15110539Y-9813579D02*
X15120063Y-9794531D01*
X15120063Y-9794531D02*
X15129586Y-9785008D01*
X15129586Y-9785008D02*
X15148634Y-9775484D01*
X15301015Y-9956436D02*
X15310539Y-9965960D01*
X15310539Y-9965960D02*
X15301015Y-9975484D01*
X15301015Y-9975484D02*
X15291491Y-9965960D01*
X15291491Y-9965960D02*
X15301015Y-9956436D01*
X15301015Y-9956436D02*
X15301015Y-9975484D01*
X15434348Y-9775484D02*
X15453396Y-9775484D01*
X15453396Y-9775484D02*
X15472444Y-9785008D01*
X15472444Y-9785008D02*
X15481967Y-9794531D01*
X15481967Y-9794531D02*
X15491491Y-9813579D01*
X15491491Y-9813579D02*
X15501015Y-9851674D01*
X15501015Y-9851674D02*
X15501015Y-9899293D01*
X15501015Y-9899293D02*
X15491491Y-9937389D01*
X15491491Y-9937389D02*
X15481967Y-9956436D01*
X15481967Y-9956436D02*
X15472444Y-9965960D01*
X15472444Y-9965960D02*
X15453396Y-9975484D01*
X15453396Y-9975484D02*
X15434348Y-9975484D01*
X15434348Y-9975484D02*
X15415301Y-9965960D01*
X15415301Y-9965960D02*
X15405777Y-9956436D01*
X15405777Y-9956436D02*
X15396253Y-9937389D01*
X15396253Y-9937389D02*
X15386729Y-9899293D01*
X15386729Y-9899293D02*
X15386729Y-9851674D01*
X15386729Y-9851674D02*
X15396253Y-9813579D01*
X15396253Y-9813579D02*
X15405777Y-9794531D01*
X15405777Y-9794531D02*
X15415301Y-9785008D01*
X15415301Y-9785008D02*
X15434348Y-9775484D01*
X15624825Y-9775484D02*
X15643872Y-9775484D01*
X15643872Y-9775484D02*
X15662920Y-9785008D01*
X15662920Y-9785008D02*
X15672444Y-9794531D01*
X15672444Y-9794531D02*
X15681967Y-9813579D01*
X15681967Y-9813579D02*
X15691491Y-9851674D01*
X15691491Y-9851674D02*
X15691491Y-9899293D01*
X15691491Y-9899293D02*
X15681967Y-9937389D01*
X15681967Y-9937389D02*
X15672444Y-9956436D01*
X15672444Y-9956436D02*
X15662920Y-9965960D01*
X15662920Y-9965960D02*
X15643872Y-9975484D01*
X15643872Y-9975484D02*
X15624825Y-9975484D01*
X15624825Y-9975484D02*
X15605777Y-9965960D01*
X15605777Y-9965960D02*
X15596253Y-9956436D01*
X15596253Y-9956436D02*
X15586729Y-9937389D01*
X15586729Y-9937389D02*
X15577206Y-9899293D01*
X15577206Y-9899293D02*
X15577206Y-9851674D01*
X15577206Y-9851674D02*
X15586729Y-9813579D01*
X15586729Y-9813579D02*
X15596253Y-9794531D01*
X15596253Y-9794531D02*
X15605777Y-9785008D01*
X15605777Y-9785008D02*
X15624825Y-9775484D01*
X15758158Y-9775484D02*
X15891491Y-9775484D01*
X15891491Y-9775484D02*
X15805777Y-9975484D01*
X15977206Y-9975484D02*
X16015301Y-9975484D01*
X16015301Y-9975484D02*
X16034348Y-9965960D01*
X16034348Y-9965960D02*
X16043872Y-9956436D01*
X16043872Y-9956436D02*
X16062920Y-9927865D01*
X16062920Y-9927865D02*
X16072444Y-9889770D01*
X16072444Y-9889770D02*
X16072444Y-9813579D01*
X16072444Y-9813579D02*
X16062920Y-9794531D01*
X16062920Y-9794531D02*
X16053396Y-9785008D01*
X16053396Y-9785008D02*
X16034348Y-9775484D01*
X16034348Y-9775484D02*
X15996253Y-9775484D01*
X15996253Y-9775484D02*
X15977206Y-9785008D01*
X15977206Y-9785008D02*
X15967682Y-9794531D01*
X15967682Y-9794531D02*
X15958158Y-9813579D01*
X15958158Y-9813579D02*
X15958158Y-9861198D01*
X15958158Y-9861198D02*
X15967682Y-9880246D01*
X15967682Y-9880246D02*
X15977206Y-9889770D01*
X15977206Y-9889770D02*
X15996253Y-9899293D01*
X15996253Y-9899293D02*
X16034348Y-9899293D01*
X16034348Y-9899293D02*
X16053396Y-9889770D01*
X16053396Y-9889770D02*
X16062920Y-9880246D01*
X16062920Y-9880246D02*
X16072444Y-9861198D01*
X16148634Y-9775484D02*
X16148634Y-9813579D01*
X16224825Y-9775484D02*
X16224825Y-9813579D01*
X16520063Y-10051674D02*
X16510539Y-10042150D01*
X16510539Y-10042150D02*
X16491491Y-10013579D01*
X16491491Y-10013579D02*
X16481968Y-9994531D01*
X16481968Y-9994531D02*
X16472444Y-9965960D01*
X16472444Y-9965960D02*
X16462920Y-9918341D01*
X16462920Y-9918341D02*
X16462920Y-9880246D01*
X16462920Y-9880246D02*
X16472444Y-9832627D01*
X16472444Y-9832627D02*
X16481968Y-9804055D01*
X16481968Y-9804055D02*
X16491491Y-9785008D01*
X16491491Y-9785008D02*
X16510539Y-9756436D01*
X16510539Y-9756436D02*
X16520063Y-9746912D01*
X16701015Y-9975484D02*
X16586729Y-9975484D01*
X16643872Y-9975484D02*
X16643872Y-9775484D01*
X16643872Y-9775484D02*
X16624825Y-9804055D01*
X16624825Y-9804055D02*
X16605777Y-9823103D01*
X16605777Y-9823103D02*
X16586729Y-9832627D01*
X16777206Y-9794531D02*
X16786730Y-9785008D01*
X16786730Y-9785008D02*
X16805777Y-9775484D01*
X16805777Y-9775484D02*
X16853396Y-9775484D01*
X16853396Y-9775484D02*
X16872444Y-9785008D01*
X16872444Y-9785008D02*
X16881968Y-9794531D01*
X16881968Y-9794531D02*
X16891491Y-9813579D01*
X16891491Y-9813579D02*
X16891491Y-9832627D01*
X16891491Y-9832627D02*
X16881968Y-9861198D01*
X16881968Y-9861198D02*
X16767682Y-9975484D01*
X16767682Y-9975484D02*
X16891491Y-9975484D01*
X17129587Y-9975484D02*
X17129587Y-9775484D01*
X17215301Y-9975484D02*
X17215301Y-9870722D01*
X17215301Y-9870722D02*
X17205777Y-9851674D01*
X17205777Y-9851674D02*
X17186730Y-9842150D01*
X17186730Y-9842150D02*
X17158158Y-9842150D01*
X17158158Y-9842150D02*
X17139111Y-9851674D01*
X17139111Y-9851674D02*
X17129587Y-9861198D01*
X17339111Y-9975484D02*
X17320063Y-9965960D01*
X17320063Y-9965960D02*
X17310539Y-9956436D01*
X17310539Y-9956436D02*
X17301015Y-9937389D01*
X17301015Y-9937389D02*
X17301015Y-9880246D01*
X17301015Y-9880246D02*
X17310539Y-9861198D01*
X17310539Y-9861198D02*
X17320063Y-9851674D01*
X17320063Y-9851674D02*
X17339111Y-9842150D01*
X17339111Y-9842150D02*
X17367682Y-9842150D01*
X17367682Y-9842150D02*
X17386730Y-9851674D01*
X17386730Y-9851674D02*
X17396253Y-9861198D01*
X17396253Y-9861198D02*
X17405777Y-9880246D01*
X17405777Y-9880246D02*
X17405777Y-9937389D01*
X17405777Y-9937389D02*
X17396253Y-9956436D01*
X17396253Y-9956436D02*
X17386730Y-9965960D01*
X17386730Y-9965960D02*
X17367682Y-9975484D01*
X17367682Y-9975484D02*
X17339111Y-9975484D01*
X17520063Y-9975484D02*
X17501015Y-9965960D01*
X17501015Y-9965960D02*
X17491492Y-9946912D01*
X17491492Y-9946912D02*
X17491492Y-9775484D01*
X17672444Y-9965960D02*
X17653396Y-9975484D01*
X17653396Y-9975484D02*
X17615301Y-9975484D01*
X17615301Y-9975484D02*
X17596253Y-9965960D01*
X17596253Y-9965960D02*
X17586730Y-9946912D01*
X17586730Y-9946912D02*
X17586730Y-9870722D01*
X17586730Y-9870722D02*
X17596253Y-9851674D01*
X17596253Y-9851674D02*
X17615301Y-9842150D01*
X17615301Y-9842150D02*
X17653396Y-9842150D01*
X17653396Y-9842150D02*
X17672444Y-9851674D01*
X17672444Y-9851674D02*
X17681968Y-9870722D01*
X17681968Y-9870722D02*
X17681968Y-9889770D01*
X17681968Y-9889770D02*
X17586730Y-9908817D01*
X17758158Y-9965960D02*
X17777206Y-9975484D01*
X17777206Y-9975484D02*
X17815301Y-9975484D01*
X17815301Y-9975484D02*
X17834349Y-9965960D01*
X17834349Y-9965960D02*
X17843873Y-9946912D01*
X17843873Y-9946912D02*
X17843873Y-9937389D01*
X17843873Y-9937389D02*
X17834349Y-9918341D01*
X17834349Y-9918341D02*
X17815301Y-9908817D01*
X17815301Y-9908817D02*
X17786730Y-9908817D01*
X17786730Y-9908817D02*
X17767682Y-9899293D01*
X17767682Y-9899293D02*
X17758158Y-9880246D01*
X17758158Y-9880246D02*
X17758158Y-9870722D01*
X17758158Y-9870722D02*
X17767682Y-9851674D01*
X17767682Y-9851674D02*
X17786730Y-9842150D01*
X17786730Y-9842150D02*
X17815301Y-9842150D01*
X17815301Y-9842150D02*
X17834349Y-9851674D01*
X17910539Y-10051674D02*
X17920063Y-10042150D01*
X17920063Y-10042150D02*
X17939111Y-10013579D01*
X17939111Y-10013579D02*
X17948634Y-9994531D01*
X17948634Y-9994531D02*
X17958158Y-9965960D01*
X17958158Y-9965960D02*
X17967682Y-9918341D01*
X17967682Y-9918341D02*
X17967682Y-9880246D01*
X17967682Y-9880246D02*
X17958158Y-9832627D01*
X17958158Y-9832627D02*
X17948634Y-9804055D01*
X17948634Y-9804055D02*
X17939111Y-9785008D01*
X17939111Y-9785008D02*
X17920063Y-9756436D01*
X17920063Y-9756436D02*
X17910539Y-9746912D01*
D10*
X12930000Y-10133000D02*
X12930000Y-10163000D01*
X12915000Y-10148000D02*
X12945000Y-10148000D01*
D12*
X13243872Y-10039484D02*
X13262920Y-10039484D01*
X13262920Y-10039484D02*
X13281967Y-10049008D01*
X13281967Y-10049008D02*
X13291491Y-10058531D01*
X13291491Y-10058531D02*
X13301015Y-10077579D01*
X13301015Y-10077579D02*
X13310539Y-10115674D01*
X13310539Y-10115674D02*
X13310539Y-10163293D01*
X13310539Y-10163293D02*
X13301015Y-10201389D01*
X13301015Y-10201389D02*
X13291491Y-10220436D01*
X13291491Y-10220436D02*
X13281967Y-10229960D01*
X13281967Y-10229960D02*
X13262920Y-10239484D01*
X13262920Y-10239484D02*
X13243872Y-10239484D01*
X13243872Y-10239484D02*
X13224824Y-10229960D01*
X13224824Y-10229960D02*
X13215301Y-10220436D01*
X13215301Y-10220436D02*
X13205777Y-10201389D01*
X13205777Y-10201389D02*
X13196253Y-10163293D01*
X13196253Y-10163293D02*
X13196253Y-10115674D01*
X13196253Y-10115674D02*
X13205777Y-10077579D01*
X13205777Y-10077579D02*
X13215301Y-10058531D01*
X13215301Y-10058531D02*
X13224824Y-10049008D01*
X13224824Y-10049008D02*
X13243872Y-10039484D01*
X13396253Y-10220436D02*
X13405777Y-10229960D01*
X13405777Y-10229960D02*
X13396253Y-10239484D01*
X13396253Y-10239484D02*
X13386729Y-10229960D01*
X13386729Y-10229960D02*
X13396253Y-10220436D01*
X13396253Y-10220436D02*
X13396253Y-10239484D01*
X13472443Y-10039484D02*
X13596253Y-10039484D01*
X13596253Y-10039484D02*
X13529586Y-10115674D01*
X13529586Y-10115674D02*
X13558158Y-10115674D01*
X13558158Y-10115674D02*
X13577205Y-10125198D01*
X13577205Y-10125198D02*
X13586729Y-10134722D01*
X13586729Y-10134722D02*
X13596253Y-10153770D01*
X13596253Y-10153770D02*
X13596253Y-10201389D01*
X13596253Y-10201389D02*
X13586729Y-10220436D01*
X13586729Y-10220436D02*
X13577205Y-10229960D01*
X13577205Y-10229960D02*
X13558158Y-10239484D01*
X13558158Y-10239484D02*
X13501015Y-10239484D01*
X13501015Y-10239484D02*
X13481967Y-10229960D01*
X13481967Y-10229960D02*
X13472443Y-10220436D01*
X13720062Y-10039484D02*
X13739110Y-10039484D01*
X13739110Y-10039484D02*
X13758158Y-10049008D01*
X13758158Y-10049008D02*
X13767682Y-10058531D01*
X13767682Y-10058531D02*
X13777205Y-10077579D01*
X13777205Y-10077579D02*
X13786729Y-10115674D01*
X13786729Y-10115674D02*
X13786729Y-10163293D01*
X13786729Y-10163293D02*
X13777205Y-10201389D01*
X13777205Y-10201389D02*
X13767682Y-10220436D01*
X13767682Y-10220436D02*
X13758158Y-10229960D01*
X13758158Y-10229960D02*
X13739110Y-10239484D01*
X13739110Y-10239484D02*
X13720062Y-10239484D01*
X13720062Y-10239484D02*
X13701015Y-10229960D01*
X13701015Y-10229960D02*
X13691491Y-10220436D01*
X13691491Y-10220436D02*
X13681967Y-10201389D01*
X13681967Y-10201389D02*
X13672443Y-10163293D01*
X13672443Y-10163293D02*
X13672443Y-10115674D01*
X13672443Y-10115674D02*
X13681967Y-10077579D01*
X13681967Y-10077579D02*
X13691491Y-10058531D01*
X13691491Y-10058531D02*
X13701015Y-10049008D01*
X13701015Y-10049008D02*
X13720062Y-10039484D01*
X13910539Y-10039484D02*
X13929586Y-10039484D01*
X13929586Y-10039484D02*
X13948634Y-10049008D01*
X13948634Y-10049008D02*
X13958158Y-10058531D01*
X13958158Y-10058531D02*
X13967682Y-10077579D01*
X13967682Y-10077579D02*
X13977205Y-10115674D01*
X13977205Y-10115674D02*
X13977205Y-10163293D01*
X13977205Y-10163293D02*
X13967682Y-10201389D01*
X13967682Y-10201389D02*
X13958158Y-10220436D01*
X13958158Y-10220436D02*
X13948634Y-10229960D01*
X13948634Y-10229960D02*
X13929586Y-10239484D01*
X13929586Y-10239484D02*
X13910539Y-10239484D01*
X13910539Y-10239484D02*
X13891491Y-10229960D01*
X13891491Y-10229960D02*
X13881967Y-10220436D01*
X13881967Y-10220436D02*
X13872443Y-10201389D01*
X13872443Y-10201389D02*
X13862920Y-10163293D01*
X13862920Y-10163293D02*
X13862920Y-10115674D01*
X13862920Y-10115674D02*
X13872443Y-10077579D01*
X13872443Y-10077579D02*
X13881967Y-10058531D01*
X13881967Y-10058531D02*
X13891491Y-10049008D01*
X13891491Y-10049008D02*
X13910539Y-10039484D01*
X14062920Y-10239484D02*
X14062920Y-10106150D01*
X14062920Y-10125198D02*
X14072443Y-10115674D01*
X14072443Y-10115674D02*
X14091491Y-10106150D01*
X14091491Y-10106150D02*
X14120063Y-10106150D01*
X14120063Y-10106150D02*
X14139110Y-10115674D01*
X14139110Y-10115674D02*
X14148634Y-10134722D01*
X14148634Y-10134722D02*
X14148634Y-10239484D01*
X14148634Y-10134722D02*
X14158158Y-10115674D01*
X14158158Y-10115674D02*
X14177205Y-10106150D01*
X14177205Y-10106150D02*
X14205777Y-10106150D01*
X14205777Y-10106150D02*
X14224824Y-10115674D01*
X14224824Y-10115674D02*
X14234348Y-10134722D01*
X14234348Y-10134722D02*
X14234348Y-10239484D01*
X14329586Y-10239484D02*
X14329586Y-10106150D01*
X14329586Y-10125198D02*
X14339110Y-10115674D01*
X14339110Y-10115674D02*
X14358158Y-10106150D01*
X14358158Y-10106150D02*
X14386729Y-10106150D01*
X14386729Y-10106150D02*
X14405777Y-10115674D01*
X14405777Y-10115674D02*
X14415301Y-10134722D01*
X14415301Y-10134722D02*
X14415301Y-10239484D01*
X14415301Y-10134722D02*
X14424824Y-10115674D01*
X14424824Y-10115674D02*
X14443872Y-10106150D01*
X14443872Y-10106150D02*
X14472443Y-10106150D01*
X14472443Y-10106150D02*
X14491491Y-10115674D01*
X14491491Y-10115674D02*
X14501015Y-10134722D01*
X14501015Y-10134722D02*
X14501015Y-10239484D01*
X14891491Y-10029960D02*
X14720063Y-10287103D01*
X15148634Y-10039484D02*
X15167682Y-10039484D01*
X15167682Y-10039484D02*
X15186729Y-10049008D01*
X15186729Y-10049008D02*
X15196253Y-10058531D01*
X15196253Y-10058531D02*
X15205777Y-10077579D01*
X15205777Y-10077579D02*
X15215301Y-10115674D01*
X15215301Y-10115674D02*
X15215301Y-10163293D01*
X15215301Y-10163293D02*
X15205777Y-10201389D01*
X15205777Y-10201389D02*
X15196253Y-10220436D01*
X15196253Y-10220436D02*
X15186729Y-10229960D01*
X15186729Y-10229960D02*
X15167682Y-10239484D01*
X15167682Y-10239484D02*
X15148634Y-10239484D01*
X15148634Y-10239484D02*
X15129586Y-10229960D01*
X15129586Y-10229960D02*
X15120063Y-10220436D01*
X15120063Y-10220436D02*
X15110539Y-10201389D01*
X15110539Y-10201389D02*
X15101015Y-10163293D01*
X15101015Y-10163293D02*
X15101015Y-10115674D01*
X15101015Y-10115674D02*
X15110539Y-10077579D01*
X15110539Y-10077579D02*
X15120063Y-10058531D01*
X15120063Y-10058531D02*
X15129586Y-10049008D01*
X15129586Y-10049008D02*
X15148634Y-10039484D01*
X15301015Y-10220436D02*
X15310539Y-10229960D01*
X15310539Y-10229960D02*
X15301015Y-10239484D01*
X15301015Y-10239484D02*
X15291491Y-10229960D01*
X15291491Y-10229960D02*
X15301015Y-10220436D01*
X15301015Y-10220436D02*
X15301015Y-10239484D01*
X15434348Y-10039484D02*
X15453396Y-10039484D01*
X15453396Y-10039484D02*
X15472444Y-10049008D01*
X15472444Y-10049008D02*
X15481967Y-10058531D01*
X15481967Y-10058531D02*
X15491491Y-10077579D01*
X15491491Y-10077579D02*
X15501015Y-10115674D01*
X15501015Y-10115674D02*
X15501015Y-10163293D01*
X15501015Y-10163293D02*
X15491491Y-10201389D01*
X15491491Y-10201389D02*
X15481967Y-10220436D01*
X15481967Y-10220436D02*
X15472444Y-10229960D01*
X15472444Y-10229960D02*
X15453396Y-10239484D01*
X15453396Y-10239484D02*
X15434348Y-10239484D01*
X15434348Y-10239484D02*
X15415301Y-10229960D01*
X15415301Y-10229960D02*
X15405777Y-10220436D01*
X15405777Y-10220436D02*
X15396253Y-10201389D01*
X15396253Y-10201389D02*
X15386729Y-10163293D01*
X15386729Y-10163293D02*
X15386729Y-10115674D01*
X15386729Y-10115674D02*
X15396253Y-10077579D01*
X15396253Y-10077579D02*
X15405777Y-10058531D01*
X15405777Y-10058531D02*
X15415301Y-10049008D01*
X15415301Y-10049008D02*
X15434348Y-10039484D01*
X15691491Y-10239484D02*
X15577206Y-10239484D01*
X15634348Y-10239484D02*
X15634348Y-10039484D01*
X15634348Y-10039484D02*
X15615301Y-10068055D01*
X15615301Y-10068055D02*
X15596253Y-10087103D01*
X15596253Y-10087103D02*
X15577206Y-10096627D01*
X15881967Y-10239484D02*
X15767682Y-10239484D01*
X15824825Y-10239484D02*
X15824825Y-10039484D01*
X15824825Y-10039484D02*
X15805777Y-10068055D01*
X15805777Y-10068055D02*
X15786729Y-10087103D01*
X15786729Y-10087103D02*
X15767682Y-10096627D01*
X15996253Y-10125198D02*
X15977206Y-10115674D01*
X15977206Y-10115674D02*
X15967682Y-10106150D01*
X15967682Y-10106150D02*
X15958158Y-10087103D01*
X15958158Y-10087103D02*
X15958158Y-10077579D01*
X15958158Y-10077579D02*
X15967682Y-10058531D01*
X15967682Y-10058531D02*
X15977206Y-10049008D01*
X15977206Y-10049008D02*
X15996253Y-10039484D01*
X15996253Y-10039484D02*
X16034348Y-10039484D01*
X16034348Y-10039484D02*
X16053396Y-10049008D01*
X16053396Y-10049008D02*
X16062920Y-10058531D01*
X16062920Y-10058531D02*
X16072444Y-10077579D01*
X16072444Y-10077579D02*
X16072444Y-10087103D01*
X16072444Y-10087103D02*
X16062920Y-10106150D01*
X16062920Y-10106150D02*
X16053396Y-10115674D01*
X16053396Y-10115674D02*
X16034348Y-10125198D01*
X16034348Y-10125198D02*
X15996253Y-10125198D01*
X15996253Y-10125198D02*
X15977206Y-10134722D01*
X15977206Y-10134722D02*
X15967682Y-10144246D01*
X15967682Y-10144246D02*
X15958158Y-10163293D01*
X15958158Y-10163293D02*
X15958158Y-10201389D01*
X15958158Y-10201389D02*
X15967682Y-10220436D01*
X15967682Y-10220436D02*
X15977206Y-10229960D01*
X15977206Y-10229960D02*
X15996253Y-10239484D01*
X15996253Y-10239484D02*
X16034348Y-10239484D01*
X16034348Y-10239484D02*
X16053396Y-10229960D01*
X16053396Y-10229960D02*
X16062920Y-10220436D01*
X16062920Y-10220436D02*
X16072444Y-10201389D01*
X16072444Y-10201389D02*
X16072444Y-10163293D01*
X16072444Y-10163293D02*
X16062920Y-10144246D01*
X16062920Y-10144246D02*
X16053396Y-10134722D01*
X16053396Y-10134722D02*
X16034348Y-10125198D01*
X16148634Y-10039484D02*
X16148634Y-10077579D01*
X16224825Y-10039484D02*
X16224825Y-10077579D01*
X16520063Y-10315674D02*
X16510539Y-10306150D01*
X16510539Y-10306150D02*
X16491491Y-10277579D01*
X16491491Y-10277579D02*
X16481968Y-10258531D01*
X16481968Y-10258531D02*
X16472444Y-10229960D01*
X16472444Y-10229960D02*
X16462920Y-10182341D01*
X16462920Y-10182341D02*
X16462920Y-10144246D01*
X16462920Y-10144246D02*
X16472444Y-10096627D01*
X16472444Y-10096627D02*
X16481968Y-10068055D01*
X16481968Y-10068055D02*
X16491491Y-10049008D01*
X16491491Y-10049008D02*
X16510539Y-10020436D01*
X16510539Y-10020436D02*
X16520063Y-10010912D01*
X16681968Y-10106150D02*
X16681968Y-10239484D01*
X16634348Y-10029960D02*
X16586729Y-10172817D01*
X16586729Y-10172817D02*
X16710539Y-10172817D01*
X16824825Y-10039484D02*
X16843872Y-10039484D01*
X16843872Y-10039484D02*
X16862920Y-10049008D01*
X16862920Y-10049008D02*
X16872444Y-10058531D01*
X16872444Y-10058531D02*
X16881968Y-10077579D01*
X16881968Y-10077579D02*
X16891491Y-10115674D01*
X16891491Y-10115674D02*
X16891491Y-10163293D01*
X16891491Y-10163293D02*
X16881968Y-10201389D01*
X16881968Y-10201389D02*
X16872444Y-10220436D01*
X16872444Y-10220436D02*
X16862920Y-10229960D01*
X16862920Y-10229960D02*
X16843872Y-10239484D01*
X16843872Y-10239484D02*
X16824825Y-10239484D01*
X16824825Y-10239484D02*
X16805777Y-10229960D01*
X16805777Y-10229960D02*
X16796253Y-10220436D01*
X16796253Y-10220436D02*
X16786730Y-10201389D01*
X16786730Y-10201389D02*
X16777206Y-10163293D01*
X16777206Y-10163293D02*
X16777206Y-10115674D01*
X16777206Y-10115674D02*
X16786730Y-10077579D01*
X16786730Y-10077579D02*
X16796253Y-10058531D01*
X16796253Y-10058531D02*
X16805777Y-10049008D01*
X16805777Y-10049008D02*
X16824825Y-10039484D01*
X17129587Y-10239484D02*
X17129587Y-10039484D01*
X17215301Y-10239484D02*
X17215301Y-10134722D01*
X17215301Y-10134722D02*
X17205777Y-10115674D01*
X17205777Y-10115674D02*
X17186730Y-10106150D01*
X17186730Y-10106150D02*
X17158158Y-10106150D01*
X17158158Y-10106150D02*
X17139111Y-10115674D01*
X17139111Y-10115674D02*
X17129587Y-10125198D01*
X17339111Y-10239484D02*
X17320063Y-10229960D01*
X17320063Y-10229960D02*
X17310539Y-10220436D01*
X17310539Y-10220436D02*
X17301015Y-10201389D01*
X17301015Y-10201389D02*
X17301015Y-10144246D01*
X17301015Y-10144246D02*
X17310539Y-10125198D01*
X17310539Y-10125198D02*
X17320063Y-10115674D01*
X17320063Y-10115674D02*
X17339111Y-10106150D01*
X17339111Y-10106150D02*
X17367682Y-10106150D01*
X17367682Y-10106150D02*
X17386730Y-10115674D01*
X17386730Y-10115674D02*
X17396253Y-10125198D01*
X17396253Y-10125198D02*
X17405777Y-10144246D01*
X17405777Y-10144246D02*
X17405777Y-10201389D01*
X17405777Y-10201389D02*
X17396253Y-10220436D01*
X17396253Y-10220436D02*
X17386730Y-10229960D01*
X17386730Y-10229960D02*
X17367682Y-10239484D01*
X17367682Y-10239484D02*
X17339111Y-10239484D01*
X17520063Y-10239484D02*
X17501015Y-10229960D01*
X17501015Y-10229960D02*
X17491492Y-10210912D01*
X17491492Y-10210912D02*
X17491492Y-10039484D01*
X17672444Y-10229960D02*
X17653396Y-10239484D01*
X17653396Y-10239484D02*
X17615301Y-10239484D01*
X17615301Y-10239484D02*
X17596253Y-10229960D01*
X17596253Y-10229960D02*
X17586730Y-10210912D01*
X17586730Y-10210912D02*
X17586730Y-10134722D01*
X17586730Y-10134722D02*
X17596253Y-10115674D01*
X17596253Y-10115674D02*
X17615301Y-10106150D01*
X17615301Y-10106150D02*
X17653396Y-10106150D01*
X17653396Y-10106150D02*
X17672444Y-10115674D01*
X17672444Y-10115674D02*
X17681968Y-10134722D01*
X17681968Y-10134722D02*
X17681968Y-10153770D01*
X17681968Y-10153770D02*
X17586730Y-10172817D01*
X17758158Y-10229960D02*
X17777206Y-10239484D01*
X17777206Y-10239484D02*
X17815301Y-10239484D01*
X17815301Y-10239484D02*
X17834349Y-10229960D01*
X17834349Y-10229960D02*
X17843873Y-10210912D01*
X17843873Y-10210912D02*
X17843873Y-10201389D01*
X17843873Y-10201389D02*
X17834349Y-10182341D01*
X17834349Y-10182341D02*
X17815301Y-10172817D01*
X17815301Y-10172817D02*
X17786730Y-10172817D01*
X17786730Y-10172817D02*
X17767682Y-10163293D01*
X17767682Y-10163293D02*
X17758158Y-10144246D01*
X17758158Y-10144246D02*
X17758158Y-10134722D01*
X17758158Y-10134722D02*
X17767682Y-10115674D01*
X17767682Y-10115674D02*
X17786730Y-10106150D01*
X17786730Y-10106150D02*
X17815301Y-10106150D01*
X17815301Y-10106150D02*
X17834349Y-10115674D01*
X17910539Y-10315674D02*
X17920063Y-10306150D01*
X17920063Y-10306150D02*
X17939111Y-10277579D01*
X17939111Y-10277579D02*
X17948634Y-10258531D01*
X17948634Y-10258531D02*
X17958158Y-10229960D01*
X17958158Y-10229960D02*
X17967682Y-10182341D01*
X17967682Y-10182341D02*
X17967682Y-10144246D01*
X17967682Y-10144246D02*
X17958158Y-10096627D01*
X17958158Y-10096627D02*
X17948634Y-10068055D01*
X17948634Y-10068055D02*
X17939111Y-10049008D01*
X17939111Y-10049008D02*
X17920063Y-10020436D01*
X17920063Y-10020436D02*
X17910539Y-10010912D01*
D10*
X12937678Y-10429678D02*
X12937678Y-10394322D01*
X12902322Y-10394322D01*
X12902322Y-10429678D01*
X12937678Y-10429678D01*
D12*
X13243872Y-10303484D02*
X13262920Y-10303484D01*
X13262920Y-10303484D02*
X13281967Y-10313008D01*
X13281967Y-10313008D02*
X13291491Y-10322531D01*
X13291491Y-10322531D02*
X13301015Y-10341579D01*
X13301015Y-10341579D02*
X13310539Y-10379674D01*
X13310539Y-10379674D02*
X13310539Y-10427293D01*
X13310539Y-10427293D02*
X13301015Y-10465389D01*
X13301015Y-10465389D02*
X13291491Y-10484436D01*
X13291491Y-10484436D02*
X13281967Y-10493960D01*
X13281967Y-10493960D02*
X13262920Y-10503484D01*
X13262920Y-10503484D02*
X13243872Y-10503484D01*
X13243872Y-10503484D02*
X13224824Y-10493960D01*
X13224824Y-10493960D02*
X13215301Y-10484436D01*
X13215301Y-10484436D02*
X13205777Y-10465389D01*
X13205777Y-10465389D02*
X13196253Y-10427293D01*
X13196253Y-10427293D02*
X13196253Y-10379674D01*
X13196253Y-10379674D02*
X13205777Y-10341579D01*
X13205777Y-10341579D02*
X13215301Y-10322531D01*
X13215301Y-10322531D02*
X13224824Y-10313008D01*
X13224824Y-10313008D02*
X13243872Y-10303484D01*
X13396253Y-10484436D02*
X13405777Y-10493960D01*
X13405777Y-10493960D02*
X13396253Y-10503484D01*
X13396253Y-10503484D02*
X13386729Y-10493960D01*
X13386729Y-10493960D02*
X13396253Y-10484436D01*
X13396253Y-10484436D02*
X13396253Y-10503484D01*
X13586729Y-10303484D02*
X13491491Y-10303484D01*
X13491491Y-10303484D02*
X13481967Y-10398722D01*
X13481967Y-10398722D02*
X13491491Y-10389198D01*
X13491491Y-10389198D02*
X13510539Y-10379674D01*
X13510539Y-10379674D02*
X13558158Y-10379674D01*
X13558158Y-10379674D02*
X13577205Y-10389198D01*
X13577205Y-10389198D02*
X13586729Y-10398722D01*
X13586729Y-10398722D02*
X13596253Y-10417770D01*
X13596253Y-10417770D02*
X13596253Y-10465389D01*
X13596253Y-10465389D02*
X13586729Y-10484436D01*
X13586729Y-10484436D02*
X13577205Y-10493960D01*
X13577205Y-10493960D02*
X13558158Y-10503484D01*
X13558158Y-10503484D02*
X13510539Y-10503484D01*
X13510539Y-10503484D02*
X13491491Y-10493960D01*
X13491491Y-10493960D02*
X13481967Y-10484436D01*
X13720062Y-10303484D02*
X13739110Y-10303484D01*
X13739110Y-10303484D02*
X13758158Y-10313008D01*
X13758158Y-10313008D02*
X13767682Y-10322531D01*
X13767682Y-10322531D02*
X13777205Y-10341579D01*
X13777205Y-10341579D02*
X13786729Y-10379674D01*
X13786729Y-10379674D02*
X13786729Y-10427293D01*
X13786729Y-10427293D02*
X13777205Y-10465389D01*
X13777205Y-10465389D02*
X13767682Y-10484436D01*
X13767682Y-10484436D02*
X13758158Y-10493960D01*
X13758158Y-10493960D02*
X13739110Y-10503484D01*
X13739110Y-10503484D02*
X13720062Y-10503484D01*
X13720062Y-10503484D02*
X13701015Y-10493960D01*
X13701015Y-10493960D02*
X13691491Y-10484436D01*
X13691491Y-10484436D02*
X13681967Y-10465389D01*
X13681967Y-10465389D02*
X13672443Y-10427293D01*
X13672443Y-10427293D02*
X13672443Y-10379674D01*
X13672443Y-10379674D02*
X13681967Y-10341579D01*
X13681967Y-10341579D02*
X13691491Y-10322531D01*
X13691491Y-10322531D02*
X13701015Y-10313008D01*
X13701015Y-10313008D02*
X13720062Y-10303484D01*
X13910539Y-10303484D02*
X13929586Y-10303484D01*
X13929586Y-10303484D02*
X13948634Y-10313008D01*
X13948634Y-10313008D02*
X13958158Y-10322531D01*
X13958158Y-10322531D02*
X13967682Y-10341579D01*
X13967682Y-10341579D02*
X13977205Y-10379674D01*
X13977205Y-10379674D02*
X13977205Y-10427293D01*
X13977205Y-10427293D02*
X13967682Y-10465389D01*
X13967682Y-10465389D02*
X13958158Y-10484436D01*
X13958158Y-10484436D02*
X13948634Y-10493960D01*
X13948634Y-10493960D02*
X13929586Y-10503484D01*
X13929586Y-10503484D02*
X13910539Y-10503484D01*
X13910539Y-10503484D02*
X13891491Y-10493960D01*
X13891491Y-10493960D02*
X13881967Y-10484436D01*
X13881967Y-10484436D02*
X13872443Y-10465389D01*
X13872443Y-10465389D02*
X13862920Y-10427293D01*
X13862920Y-10427293D02*
X13862920Y-10379674D01*
X13862920Y-10379674D02*
X13872443Y-10341579D01*
X13872443Y-10341579D02*
X13881967Y-10322531D01*
X13881967Y-10322531D02*
X13891491Y-10313008D01*
X13891491Y-10313008D02*
X13910539Y-10303484D01*
X14062920Y-10503484D02*
X14062920Y-10370150D01*
X14062920Y-10389198D02*
X14072443Y-10379674D01*
X14072443Y-10379674D02*
X14091491Y-10370150D01*
X14091491Y-10370150D02*
X14120063Y-10370150D01*
X14120063Y-10370150D02*
X14139110Y-10379674D01*
X14139110Y-10379674D02*
X14148634Y-10398722D01*
X14148634Y-10398722D02*
X14148634Y-10503484D01*
X14148634Y-10398722D02*
X14158158Y-10379674D01*
X14158158Y-10379674D02*
X14177205Y-10370150D01*
X14177205Y-10370150D02*
X14205777Y-10370150D01*
X14205777Y-10370150D02*
X14224824Y-10379674D01*
X14224824Y-10379674D02*
X14234348Y-10398722D01*
X14234348Y-10398722D02*
X14234348Y-10503484D01*
X14329586Y-10503484D02*
X14329586Y-10370150D01*
X14329586Y-10389198D02*
X14339110Y-10379674D01*
X14339110Y-10379674D02*
X14358158Y-10370150D01*
X14358158Y-10370150D02*
X14386729Y-10370150D01*
X14386729Y-10370150D02*
X14405777Y-10379674D01*
X14405777Y-10379674D02*
X14415301Y-10398722D01*
X14415301Y-10398722D02*
X14415301Y-10503484D01*
X14415301Y-10398722D02*
X14424824Y-10379674D01*
X14424824Y-10379674D02*
X14443872Y-10370150D01*
X14443872Y-10370150D02*
X14472443Y-10370150D01*
X14472443Y-10370150D02*
X14491491Y-10379674D01*
X14491491Y-10379674D02*
X14501015Y-10398722D01*
X14501015Y-10398722D02*
X14501015Y-10503484D01*
X14891491Y-10293960D02*
X14720063Y-10551103D01*
X15148634Y-10303484D02*
X15167682Y-10303484D01*
X15167682Y-10303484D02*
X15186729Y-10313008D01*
X15186729Y-10313008D02*
X15196253Y-10322531D01*
X15196253Y-10322531D02*
X15205777Y-10341579D01*
X15205777Y-10341579D02*
X15215301Y-10379674D01*
X15215301Y-10379674D02*
X15215301Y-10427293D01*
X15215301Y-10427293D02*
X15205777Y-10465389D01*
X15205777Y-10465389D02*
X15196253Y-10484436D01*
X15196253Y-10484436D02*
X15186729Y-10493960D01*
X15186729Y-10493960D02*
X15167682Y-10503484D01*
X15167682Y-10503484D02*
X15148634Y-10503484D01*
X15148634Y-10503484D02*
X15129586Y-10493960D01*
X15129586Y-10493960D02*
X15120063Y-10484436D01*
X15120063Y-10484436D02*
X15110539Y-10465389D01*
X15110539Y-10465389D02*
X15101015Y-10427293D01*
X15101015Y-10427293D02*
X15101015Y-10379674D01*
X15101015Y-10379674D02*
X15110539Y-10341579D01*
X15110539Y-10341579D02*
X15120063Y-10322531D01*
X15120063Y-10322531D02*
X15129586Y-10313008D01*
X15129586Y-10313008D02*
X15148634Y-10303484D01*
X15301015Y-10484436D02*
X15310539Y-10493960D01*
X15310539Y-10493960D02*
X15301015Y-10503484D01*
X15301015Y-10503484D02*
X15291491Y-10493960D01*
X15291491Y-10493960D02*
X15301015Y-10484436D01*
X15301015Y-10484436D02*
X15301015Y-10503484D01*
X15434348Y-10303484D02*
X15453396Y-10303484D01*
X15453396Y-10303484D02*
X15472444Y-10313008D01*
X15472444Y-10313008D02*
X15481967Y-10322531D01*
X15481967Y-10322531D02*
X15491491Y-10341579D01*
X15491491Y-10341579D02*
X15501015Y-10379674D01*
X15501015Y-10379674D02*
X15501015Y-10427293D01*
X15501015Y-10427293D02*
X15491491Y-10465389D01*
X15491491Y-10465389D02*
X15481967Y-10484436D01*
X15481967Y-10484436D02*
X15472444Y-10493960D01*
X15472444Y-10493960D02*
X15453396Y-10503484D01*
X15453396Y-10503484D02*
X15434348Y-10503484D01*
X15434348Y-10503484D02*
X15415301Y-10493960D01*
X15415301Y-10493960D02*
X15405777Y-10484436D01*
X15405777Y-10484436D02*
X15396253Y-10465389D01*
X15396253Y-10465389D02*
X15386729Y-10427293D01*
X15386729Y-10427293D02*
X15386729Y-10379674D01*
X15386729Y-10379674D02*
X15396253Y-10341579D01*
X15396253Y-10341579D02*
X15405777Y-10322531D01*
X15405777Y-10322531D02*
X15415301Y-10313008D01*
X15415301Y-10313008D02*
X15434348Y-10303484D01*
X15691491Y-10503484D02*
X15577206Y-10503484D01*
X15634348Y-10503484D02*
X15634348Y-10303484D01*
X15634348Y-10303484D02*
X15615301Y-10332055D01*
X15615301Y-10332055D02*
X15596253Y-10351103D01*
X15596253Y-10351103D02*
X15577206Y-10360627D01*
X15786729Y-10503484D02*
X15824825Y-10503484D01*
X15824825Y-10503484D02*
X15843872Y-10493960D01*
X15843872Y-10493960D02*
X15853396Y-10484436D01*
X15853396Y-10484436D02*
X15872444Y-10455865D01*
X15872444Y-10455865D02*
X15881967Y-10417770D01*
X15881967Y-10417770D02*
X15881967Y-10341579D01*
X15881967Y-10341579D02*
X15872444Y-10322531D01*
X15872444Y-10322531D02*
X15862920Y-10313008D01*
X15862920Y-10313008D02*
X15843872Y-10303484D01*
X15843872Y-10303484D02*
X15805777Y-10303484D01*
X15805777Y-10303484D02*
X15786729Y-10313008D01*
X15786729Y-10313008D02*
X15777206Y-10322531D01*
X15777206Y-10322531D02*
X15767682Y-10341579D01*
X15767682Y-10341579D02*
X15767682Y-10389198D01*
X15767682Y-10389198D02*
X15777206Y-10408246D01*
X15777206Y-10408246D02*
X15786729Y-10417770D01*
X15786729Y-10417770D02*
X15805777Y-10427293D01*
X15805777Y-10427293D02*
X15843872Y-10427293D01*
X15843872Y-10427293D02*
X15862920Y-10417770D01*
X15862920Y-10417770D02*
X15872444Y-10408246D01*
X15872444Y-10408246D02*
X15881967Y-10389198D01*
X15948634Y-10303484D02*
X16081967Y-10303484D01*
X16081967Y-10303484D02*
X15996253Y-10503484D01*
X16148634Y-10303484D02*
X16148634Y-10341579D01*
X16224825Y-10303484D02*
X16224825Y-10341579D01*
X16520063Y-10579674D02*
X16510539Y-10570150D01*
X16510539Y-10570150D02*
X16491491Y-10541579D01*
X16491491Y-10541579D02*
X16481968Y-10522531D01*
X16481968Y-10522531D02*
X16472444Y-10493960D01*
X16472444Y-10493960D02*
X16462920Y-10446341D01*
X16462920Y-10446341D02*
X16462920Y-10408246D01*
X16462920Y-10408246D02*
X16472444Y-10360627D01*
X16472444Y-10360627D02*
X16481968Y-10332055D01*
X16481968Y-10332055D02*
X16491491Y-10313008D01*
X16491491Y-10313008D02*
X16510539Y-10284436D01*
X16510539Y-10284436D02*
X16520063Y-10274912D01*
X16586729Y-10322531D02*
X16596253Y-10313008D01*
X16596253Y-10313008D02*
X16615301Y-10303484D01*
X16615301Y-10303484D02*
X16662920Y-10303484D01*
X16662920Y-10303484D02*
X16681968Y-10313008D01*
X16681968Y-10313008D02*
X16691491Y-10322531D01*
X16691491Y-10322531D02*
X16701015Y-10341579D01*
X16701015Y-10341579D02*
X16701015Y-10360627D01*
X16701015Y-10360627D02*
X16691491Y-10389198D01*
X16691491Y-10389198D02*
X16577206Y-10503484D01*
X16577206Y-10503484D02*
X16701015Y-10503484D01*
X16939111Y-10503484D02*
X16939111Y-10303484D01*
X17024825Y-10503484D02*
X17024825Y-10398722D01*
X17024825Y-10398722D02*
X17015301Y-10379674D01*
X17015301Y-10379674D02*
X16996253Y-10370150D01*
X16996253Y-10370150D02*
X16967682Y-10370150D01*
X16967682Y-10370150D02*
X16948634Y-10379674D01*
X16948634Y-10379674D02*
X16939111Y-10389198D01*
X17148634Y-10503484D02*
X17129587Y-10493960D01*
X17129587Y-10493960D02*
X17120063Y-10484436D01*
X17120063Y-10484436D02*
X17110539Y-10465389D01*
X17110539Y-10465389D02*
X17110539Y-10408246D01*
X17110539Y-10408246D02*
X17120063Y-10389198D01*
X17120063Y-10389198D02*
X17129587Y-10379674D01*
X17129587Y-10379674D02*
X17148634Y-10370150D01*
X17148634Y-10370150D02*
X17177206Y-10370150D01*
X17177206Y-10370150D02*
X17196253Y-10379674D01*
X17196253Y-10379674D02*
X17205777Y-10389198D01*
X17205777Y-10389198D02*
X17215301Y-10408246D01*
X17215301Y-10408246D02*
X17215301Y-10465389D01*
X17215301Y-10465389D02*
X17205777Y-10484436D01*
X17205777Y-10484436D02*
X17196253Y-10493960D01*
X17196253Y-10493960D02*
X17177206Y-10503484D01*
X17177206Y-10503484D02*
X17148634Y-10503484D01*
X17329587Y-10503484D02*
X17310539Y-10493960D01*
X17310539Y-10493960D02*
X17301015Y-10474912D01*
X17301015Y-10474912D02*
X17301015Y-10303484D01*
X17481968Y-10493960D02*
X17462920Y-10503484D01*
X17462920Y-10503484D02*
X17424825Y-10503484D01*
X17424825Y-10503484D02*
X17405777Y-10493960D01*
X17405777Y-10493960D02*
X17396253Y-10474912D01*
X17396253Y-10474912D02*
X17396253Y-10398722D01*
X17396253Y-10398722D02*
X17405777Y-10379674D01*
X17405777Y-10379674D02*
X17424825Y-10370150D01*
X17424825Y-10370150D02*
X17462920Y-10370150D01*
X17462920Y-10370150D02*
X17481968Y-10379674D01*
X17481968Y-10379674D02*
X17491492Y-10398722D01*
X17491492Y-10398722D02*
X17491492Y-10417770D01*
X17491492Y-10417770D02*
X17396253Y-10436817D01*
X17567682Y-10493960D02*
X17586730Y-10503484D01*
X17586730Y-10503484D02*
X17624825Y-10503484D01*
X17624825Y-10503484D02*
X17643873Y-10493960D01*
X17643873Y-10493960D02*
X17653396Y-10474912D01*
X17653396Y-10474912D02*
X17653396Y-10465389D01*
X17653396Y-10465389D02*
X17643873Y-10446341D01*
X17643873Y-10446341D02*
X17624825Y-10436817D01*
X17624825Y-10436817D02*
X17596253Y-10436817D01*
X17596253Y-10436817D02*
X17577206Y-10427293D01*
X17577206Y-10427293D02*
X17567682Y-10408246D01*
X17567682Y-10408246D02*
X17567682Y-10398722D01*
X17567682Y-10398722D02*
X17577206Y-10379674D01*
X17577206Y-10379674D02*
X17596253Y-10370150D01*
X17596253Y-10370150D02*
X17624825Y-10370150D01*
X17624825Y-10370150D02*
X17643873Y-10379674D01*
X17720063Y-10579674D02*
X17729587Y-10570150D01*
X17729587Y-10570150D02*
X17748634Y-10541579D01*
X17748634Y-10541579D02*
X17758158Y-10522531D01*
X17758158Y-10522531D02*
X17767682Y-10493960D01*
X17767682Y-10493960D02*
X17777206Y-10446341D01*
X17777206Y-10446341D02*
X17777206Y-10408246D01*
X17777206Y-10408246D02*
X17767682Y-10360627D01*
X17767682Y-10360627D02*
X17758158Y-10332055D01*
X17758158Y-10332055D02*
X17748634Y-10313008D01*
X17748634Y-10313008D02*
X17729587Y-10284436D01*
X17729587Y-10284436D02*
X17720063Y-10274912D01*
D10*
X12905000Y-10716000D02*
X12945000Y-10676000D01*
X12905000Y-10636000D01*
X12865000Y-10676000D01*
X12905000Y-10716000D01*
D12*
X13243872Y-10567484D02*
X13262920Y-10567484D01*
X13262920Y-10567484D02*
X13281967Y-10577008D01*
X13281967Y-10577008D02*
X13291491Y-10586531D01*
X13291491Y-10586531D02*
X13301015Y-10605579D01*
X13301015Y-10605579D02*
X13310539Y-10643674D01*
X13310539Y-10643674D02*
X13310539Y-10691293D01*
X13310539Y-10691293D02*
X13301015Y-10729389D01*
X13301015Y-10729389D02*
X13291491Y-10748436D01*
X13291491Y-10748436D02*
X13281967Y-10757960D01*
X13281967Y-10757960D02*
X13262920Y-10767484D01*
X13262920Y-10767484D02*
X13243872Y-10767484D01*
X13243872Y-10767484D02*
X13224824Y-10757960D01*
X13224824Y-10757960D02*
X13215301Y-10748436D01*
X13215301Y-10748436D02*
X13205777Y-10729389D01*
X13205777Y-10729389D02*
X13196253Y-10691293D01*
X13196253Y-10691293D02*
X13196253Y-10643674D01*
X13196253Y-10643674D02*
X13205777Y-10605579D01*
X13205777Y-10605579D02*
X13215301Y-10586531D01*
X13215301Y-10586531D02*
X13224824Y-10577008D01*
X13224824Y-10577008D02*
X13243872Y-10567484D01*
X13396253Y-10748436D02*
X13405777Y-10757960D01*
X13405777Y-10757960D02*
X13396253Y-10767484D01*
X13396253Y-10767484D02*
X13386729Y-10757960D01*
X13386729Y-10757960D02*
X13396253Y-10748436D01*
X13396253Y-10748436D02*
X13396253Y-10767484D01*
X13520062Y-10653198D02*
X13501015Y-10643674D01*
X13501015Y-10643674D02*
X13491491Y-10634150D01*
X13491491Y-10634150D02*
X13481967Y-10615103D01*
X13481967Y-10615103D02*
X13481967Y-10605579D01*
X13481967Y-10605579D02*
X13491491Y-10586531D01*
X13491491Y-10586531D02*
X13501015Y-10577008D01*
X13501015Y-10577008D02*
X13520062Y-10567484D01*
X13520062Y-10567484D02*
X13558158Y-10567484D01*
X13558158Y-10567484D02*
X13577205Y-10577008D01*
X13577205Y-10577008D02*
X13586729Y-10586531D01*
X13586729Y-10586531D02*
X13596253Y-10605579D01*
X13596253Y-10605579D02*
X13596253Y-10615103D01*
X13596253Y-10615103D02*
X13586729Y-10634150D01*
X13586729Y-10634150D02*
X13577205Y-10643674D01*
X13577205Y-10643674D02*
X13558158Y-10653198D01*
X13558158Y-10653198D02*
X13520062Y-10653198D01*
X13520062Y-10653198D02*
X13501015Y-10662722D01*
X13501015Y-10662722D02*
X13491491Y-10672246D01*
X13491491Y-10672246D02*
X13481967Y-10691293D01*
X13481967Y-10691293D02*
X13481967Y-10729389D01*
X13481967Y-10729389D02*
X13491491Y-10748436D01*
X13491491Y-10748436D02*
X13501015Y-10757960D01*
X13501015Y-10757960D02*
X13520062Y-10767484D01*
X13520062Y-10767484D02*
X13558158Y-10767484D01*
X13558158Y-10767484D02*
X13577205Y-10757960D01*
X13577205Y-10757960D02*
X13586729Y-10748436D01*
X13586729Y-10748436D02*
X13596253Y-10729389D01*
X13596253Y-10729389D02*
X13596253Y-10691293D01*
X13596253Y-10691293D02*
X13586729Y-10672246D01*
X13586729Y-10672246D02*
X13577205Y-10662722D01*
X13577205Y-10662722D02*
X13558158Y-10653198D01*
X13720062Y-10567484D02*
X13739110Y-10567484D01*
X13739110Y-10567484D02*
X13758158Y-10577008D01*
X13758158Y-10577008D02*
X13767682Y-10586531D01*
X13767682Y-10586531D02*
X13777205Y-10605579D01*
X13777205Y-10605579D02*
X13786729Y-10643674D01*
X13786729Y-10643674D02*
X13786729Y-10691293D01*
X13786729Y-10691293D02*
X13777205Y-10729389D01*
X13777205Y-10729389D02*
X13767682Y-10748436D01*
X13767682Y-10748436D02*
X13758158Y-10757960D01*
X13758158Y-10757960D02*
X13739110Y-10767484D01*
X13739110Y-10767484D02*
X13720062Y-10767484D01*
X13720062Y-10767484D02*
X13701015Y-10757960D01*
X13701015Y-10757960D02*
X13691491Y-10748436D01*
X13691491Y-10748436D02*
X13681967Y-10729389D01*
X13681967Y-10729389D02*
X13672443Y-10691293D01*
X13672443Y-10691293D02*
X13672443Y-10643674D01*
X13672443Y-10643674D02*
X13681967Y-10605579D01*
X13681967Y-10605579D02*
X13691491Y-10586531D01*
X13691491Y-10586531D02*
X13701015Y-10577008D01*
X13701015Y-10577008D02*
X13720062Y-10567484D01*
X13910539Y-10567484D02*
X13929586Y-10567484D01*
X13929586Y-10567484D02*
X13948634Y-10577008D01*
X13948634Y-10577008D02*
X13958158Y-10586531D01*
X13958158Y-10586531D02*
X13967682Y-10605579D01*
X13967682Y-10605579D02*
X13977205Y-10643674D01*
X13977205Y-10643674D02*
X13977205Y-10691293D01*
X13977205Y-10691293D02*
X13967682Y-10729389D01*
X13967682Y-10729389D02*
X13958158Y-10748436D01*
X13958158Y-10748436D02*
X13948634Y-10757960D01*
X13948634Y-10757960D02*
X13929586Y-10767484D01*
X13929586Y-10767484D02*
X13910539Y-10767484D01*
X13910539Y-10767484D02*
X13891491Y-10757960D01*
X13891491Y-10757960D02*
X13881967Y-10748436D01*
X13881967Y-10748436D02*
X13872443Y-10729389D01*
X13872443Y-10729389D02*
X13862920Y-10691293D01*
X13862920Y-10691293D02*
X13862920Y-10643674D01*
X13862920Y-10643674D02*
X13872443Y-10605579D01*
X13872443Y-10605579D02*
X13881967Y-10586531D01*
X13881967Y-10586531D02*
X13891491Y-10577008D01*
X13891491Y-10577008D02*
X13910539Y-10567484D01*
X14062920Y-10767484D02*
X14062920Y-10634150D01*
X14062920Y-10653198D02*
X14072443Y-10643674D01*
X14072443Y-10643674D02*
X14091491Y-10634150D01*
X14091491Y-10634150D02*
X14120063Y-10634150D01*
X14120063Y-10634150D02*
X14139110Y-10643674D01*
X14139110Y-10643674D02*
X14148634Y-10662722D01*
X14148634Y-10662722D02*
X14148634Y-10767484D01*
X14148634Y-10662722D02*
X14158158Y-10643674D01*
X14158158Y-10643674D02*
X14177205Y-10634150D01*
X14177205Y-10634150D02*
X14205777Y-10634150D01*
X14205777Y-10634150D02*
X14224824Y-10643674D01*
X14224824Y-10643674D02*
X14234348Y-10662722D01*
X14234348Y-10662722D02*
X14234348Y-10767484D01*
X14329586Y-10767484D02*
X14329586Y-10634150D01*
X14329586Y-10653198D02*
X14339110Y-10643674D01*
X14339110Y-10643674D02*
X14358158Y-10634150D01*
X14358158Y-10634150D02*
X14386729Y-10634150D01*
X14386729Y-10634150D02*
X14405777Y-10643674D01*
X14405777Y-10643674D02*
X14415301Y-10662722D01*
X14415301Y-10662722D02*
X14415301Y-10767484D01*
X14415301Y-10662722D02*
X14424824Y-10643674D01*
X14424824Y-10643674D02*
X14443872Y-10634150D01*
X14443872Y-10634150D02*
X14472443Y-10634150D01*
X14472443Y-10634150D02*
X14491491Y-10643674D01*
X14491491Y-10643674D02*
X14501015Y-10662722D01*
X14501015Y-10662722D02*
X14501015Y-10767484D01*
X14891491Y-10557960D02*
X14720063Y-10815103D01*
X15148634Y-10567484D02*
X15167682Y-10567484D01*
X15167682Y-10567484D02*
X15186729Y-10577008D01*
X15186729Y-10577008D02*
X15196253Y-10586531D01*
X15196253Y-10586531D02*
X15205777Y-10605579D01*
X15205777Y-10605579D02*
X15215301Y-10643674D01*
X15215301Y-10643674D02*
X15215301Y-10691293D01*
X15215301Y-10691293D02*
X15205777Y-10729389D01*
X15205777Y-10729389D02*
X15196253Y-10748436D01*
X15196253Y-10748436D02*
X15186729Y-10757960D01*
X15186729Y-10757960D02*
X15167682Y-10767484D01*
X15167682Y-10767484D02*
X15148634Y-10767484D01*
X15148634Y-10767484D02*
X15129586Y-10757960D01*
X15129586Y-10757960D02*
X15120063Y-10748436D01*
X15120063Y-10748436D02*
X15110539Y-10729389D01*
X15110539Y-10729389D02*
X15101015Y-10691293D01*
X15101015Y-10691293D02*
X15101015Y-10643674D01*
X15101015Y-10643674D02*
X15110539Y-10605579D01*
X15110539Y-10605579D02*
X15120063Y-10586531D01*
X15120063Y-10586531D02*
X15129586Y-10577008D01*
X15129586Y-10577008D02*
X15148634Y-10567484D01*
X15301015Y-10748436D02*
X15310539Y-10757960D01*
X15310539Y-10757960D02*
X15301015Y-10767484D01*
X15301015Y-10767484D02*
X15291491Y-10757960D01*
X15291491Y-10757960D02*
X15301015Y-10748436D01*
X15301015Y-10748436D02*
X15301015Y-10767484D01*
X15434348Y-10567484D02*
X15453396Y-10567484D01*
X15453396Y-10567484D02*
X15472444Y-10577008D01*
X15472444Y-10577008D02*
X15481967Y-10586531D01*
X15481967Y-10586531D02*
X15491491Y-10605579D01*
X15491491Y-10605579D02*
X15501015Y-10643674D01*
X15501015Y-10643674D02*
X15501015Y-10691293D01*
X15501015Y-10691293D02*
X15491491Y-10729389D01*
X15491491Y-10729389D02*
X15481967Y-10748436D01*
X15481967Y-10748436D02*
X15472444Y-10757960D01*
X15472444Y-10757960D02*
X15453396Y-10767484D01*
X15453396Y-10767484D02*
X15434348Y-10767484D01*
X15434348Y-10767484D02*
X15415301Y-10757960D01*
X15415301Y-10757960D02*
X15405777Y-10748436D01*
X15405777Y-10748436D02*
X15396253Y-10729389D01*
X15396253Y-10729389D02*
X15386729Y-10691293D01*
X15386729Y-10691293D02*
X15386729Y-10643674D01*
X15386729Y-10643674D02*
X15396253Y-10605579D01*
X15396253Y-10605579D02*
X15405777Y-10586531D01*
X15405777Y-10586531D02*
X15415301Y-10577008D01*
X15415301Y-10577008D02*
X15434348Y-10567484D01*
X15567682Y-10567484D02*
X15691491Y-10567484D01*
X15691491Y-10567484D02*
X15624825Y-10643674D01*
X15624825Y-10643674D02*
X15653396Y-10643674D01*
X15653396Y-10643674D02*
X15672444Y-10653198D01*
X15672444Y-10653198D02*
X15681967Y-10662722D01*
X15681967Y-10662722D02*
X15691491Y-10681770D01*
X15691491Y-10681770D02*
X15691491Y-10729389D01*
X15691491Y-10729389D02*
X15681967Y-10748436D01*
X15681967Y-10748436D02*
X15672444Y-10757960D01*
X15672444Y-10757960D02*
X15653396Y-10767484D01*
X15653396Y-10767484D02*
X15596253Y-10767484D01*
X15596253Y-10767484D02*
X15577206Y-10757960D01*
X15577206Y-10757960D02*
X15567682Y-10748436D01*
X15881967Y-10767484D02*
X15767682Y-10767484D01*
X15824825Y-10767484D02*
X15824825Y-10567484D01*
X15824825Y-10567484D02*
X15805777Y-10596055D01*
X15805777Y-10596055D02*
X15786729Y-10615103D01*
X15786729Y-10615103D02*
X15767682Y-10624627D01*
X16062920Y-10567484D02*
X15967682Y-10567484D01*
X15967682Y-10567484D02*
X15958158Y-10662722D01*
X15958158Y-10662722D02*
X15967682Y-10653198D01*
X15967682Y-10653198D02*
X15986729Y-10643674D01*
X15986729Y-10643674D02*
X16034348Y-10643674D01*
X16034348Y-10643674D02*
X16053396Y-10653198D01*
X16053396Y-10653198D02*
X16062920Y-10662722D01*
X16062920Y-10662722D02*
X16072444Y-10681770D01*
X16072444Y-10681770D02*
X16072444Y-10729389D01*
X16072444Y-10729389D02*
X16062920Y-10748436D01*
X16062920Y-10748436D02*
X16053396Y-10757960D01*
X16053396Y-10757960D02*
X16034348Y-10767484D01*
X16034348Y-10767484D02*
X15986729Y-10767484D01*
X15986729Y-10767484D02*
X15967682Y-10757960D01*
X15967682Y-10757960D02*
X15958158Y-10748436D01*
X16148634Y-10567484D02*
X16148634Y-10605579D01*
X16224825Y-10567484D02*
X16224825Y-10605579D01*
X16520063Y-10843674D02*
X16510539Y-10834150D01*
X16510539Y-10834150D02*
X16491491Y-10805579D01*
X16491491Y-10805579D02*
X16481968Y-10786531D01*
X16481968Y-10786531D02*
X16472444Y-10757960D01*
X16472444Y-10757960D02*
X16462920Y-10710341D01*
X16462920Y-10710341D02*
X16462920Y-10672246D01*
X16462920Y-10672246D02*
X16472444Y-10624627D01*
X16472444Y-10624627D02*
X16481968Y-10596055D01*
X16481968Y-10596055D02*
X16491491Y-10577008D01*
X16491491Y-10577008D02*
X16510539Y-10548436D01*
X16510539Y-10548436D02*
X16520063Y-10538912D01*
X16577206Y-10567484D02*
X16701015Y-10567484D01*
X16701015Y-10567484D02*
X16634348Y-10643674D01*
X16634348Y-10643674D02*
X16662920Y-10643674D01*
X16662920Y-10643674D02*
X16681968Y-10653198D01*
X16681968Y-10653198D02*
X16691491Y-10662722D01*
X16691491Y-10662722D02*
X16701015Y-10681770D01*
X16701015Y-10681770D02*
X16701015Y-10729389D01*
X16701015Y-10729389D02*
X16691491Y-10748436D01*
X16691491Y-10748436D02*
X16681968Y-10757960D01*
X16681968Y-10757960D02*
X16662920Y-10767484D01*
X16662920Y-10767484D02*
X16605777Y-10767484D01*
X16605777Y-10767484D02*
X16586729Y-10757960D01*
X16586729Y-10757960D02*
X16577206Y-10748436D01*
X16939111Y-10767484D02*
X16939111Y-10567484D01*
X17024825Y-10767484D02*
X17024825Y-10662722D01*
X17024825Y-10662722D02*
X17015301Y-10643674D01*
X17015301Y-10643674D02*
X16996253Y-10634150D01*
X16996253Y-10634150D02*
X16967682Y-10634150D01*
X16967682Y-10634150D02*
X16948634Y-10643674D01*
X16948634Y-10643674D02*
X16939111Y-10653198D01*
X17148634Y-10767484D02*
X17129587Y-10757960D01*
X17129587Y-10757960D02*
X17120063Y-10748436D01*
X17120063Y-10748436D02*
X17110539Y-10729389D01*
X17110539Y-10729389D02*
X17110539Y-10672246D01*
X17110539Y-10672246D02*
X17120063Y-10653198D01*
X17120063Y-10653198D02*
X17129587Y-10643674D01*
X17129587Y-10643674D02*
X17148634Y-10634150D01*
X17148634Y-10634150D02*
X17177206Y-10634150D01*
X17177206Y-10634150D02*
X17196253Y-10643674D01*
X17196253Y-10643674D02*
X17205777Y-10653198D01*
X17205777Y-10653198D02*
X17215301Y-10672246D01*
X17215301Y-10672246D02*
X17215301Y-10729389D01*
X17215301Y-10729389D02*
X17205777Y-10748436D01*
X17205777Y-10748436D02*
X17196253Y-10757960D01*
X17196253Y-10757960D02*
X17177206Y-10767484D01*
X17177206Y-10767484D02*
X17148634Y-10767484D01*
X17329587Y-10767484D02*
X17310539Y-10757960D01*
X17310539Y-10757960D02*
X17301015Y-10738912D01*
X17301015Y-10738912D02*
X17301015Y-10567484D01*
X17481968Y-10757960D02*
X17462920Y-10767484D01*
X17462920Y-10767484D02*
X17424825Y-10767484D01*
X17424825Y-10767484D02*
X17405777Y-10757960D01*
X17405777Y-10757960D02*
X17396253Y-10738912D01*
X17396253Y-10738912D02*
X17396253Y-10662722D01*
X17396253Y-10662722D02*
X17405777Y-10643674D01*
X17405777Y-10643674D02*
X17424825Y-10634150D01*
X17424825Y-10634150D02*
X17462920Y-10634150D01*
X17462920Y-10634150D02*
X17481968Y-10643674D01*
X17481968Y-10643674D02*
X17491492Y-10662722D01*
X17491492Y-10662722D02*
X17491492Y-10681770D01*
X17491492Y-10681770D02*
X17396253Y-10700817D01*
X17567682Y-10757960D02*
X17586730Y-10767484D01*
X17586730Y-10767484D02*
X17624825Y-10767484D01*
X17624825Y-10767484D02*
X17643873Y-10757960D01*
X17643873Y-10757960D02*
X17653396Y-10738912D01*
X17653396Y-10738912D02*
X17653396Y-10729389D01*
X17653396Y-10729389D02*
X17643873Y-10710341D01*
X17643873Y-10710341D02*
X17624825Y-10700817D01*
X17624825Y-10700817D02*
X17596253Y-10700817D01*
X17596253Y-10700817D02*
X17577206Y-10691293D01*
X17577206Y-10691293D02*
X17567682Y-10672246D01*
X17567682Y-10672246D02*
X17567682Y-10662722D01*
X17567682Y-10662722D02*
X17577206Y-10643674D01*
X17577206Y-10643674D02*
X17596253Y-10634150D01*
X17596253Y-10634150D02*
X17624825Y-10634150D01*
X17624825Y-10634150D02*
X17643873Y-10643674D01*
X17720063Y-10843674D02*
X17729587Y-10834150D01*
X17729587Y-10834150D02*
X17748634Y-10805579D01*
X17748634Y-10805579D02*
X17758158Y-10786531D01*
X17758158Y-10786531D02*
X17767682Y-10757960D01*
X17767682Y-10757960D02*
X17777206Y-10710341D01*
X17777206Y-10710341D02*
X17777206Y-10672246D01*
X17777206Y-10672246D02*
X17767682Y-10624627D01*
X17767682Y-10624627D02*
X17758158Y-10596055D01*
X17758158Y-10596055D02*
X17748634Y-10577008D01*
X17748634Y-10577008D02*
X17729587Y-10548436D01*
X17729587Y-10548436D02*
X17720063Y-10538912D01*
D10*
X12845000Y-10890000D02*
X12945000Y-10990000D01*
X12945000Y-10890000D02*
X12845000Y-10990000D01*
X12945000Y-10940000D02*
G75*
G03*
X12845000Y-10940000I-50000J0D01*
G01*
X12845000Y-10940000D02*
G75*
G03*
X12945000Y-10940000I50000J0D01*
G01*
D12*
X13310539Y-11031484D02*
X13196253Y-11031484D01*
X13253396Y-11031484D02*
X13253396Y-10831484D01*
X13253396Y-10831484D02*
X13234348Y-10860055D01*
X13234348Y-10860055D02*
X13215301Y-10879103D01*
X13215301Y-10879103D02*
X13196253Y-10888627D01*
X13396253Y-11012436D02*
X13405777Y-11021960D01*
X13405777Y-11021960D02*
X13396253Y-11031484D01*
X13396253Y-11031484D02*
X13386729Y-11021960D01*
X13386729Y-11021960D02*
X13396253Y-11012436D01*
X13396253Y-11012436D02*
X13396253Y-11031484D01*
X13529586Y-10831484D02*
X13548634Y-10831484D01*
X13548634Y-10831484D02*
X13567682Y-10841008D01*
X13567682Y-10841008D02*
X13577205Y-10850531D01*
X13577205Y-10850531D02*
X13586729Y-10869579D01*
X13586729Y-10869579D02*
X13596253Y-10907674D01*
X13596253Y-10907674D02*
X13596253Y-10955293D01*
X13596253Y-10955293D02*
X13586729Y-10993389D01*
X13586729Y-10993389D02*
X13577205Y-11012436D01*
X13577205Y-11012436D02*
X13567682Y-11021960D01*
X13567682Y-11021960D02*
X13548634Y-11031484D01*
X13548634Y-11031484D02*
X13529586Y-11031484D01*
X13529586Y-11031484D02*
X13510539Y-11021960D01*
X13510539Y-11021960D02*
X13501015Y-11012436D01*
X13501015Y-11012436D02*
X13491491Y-10993389D01*
X13491491Y-10993389D02*
X13481967Y-10955293D01*
X13481967Y-10955293D02*
X13481967Y-10907674D01*
X13481967Y-10907674D02*
X13491491Y-10869579D01*
X13491491Y-10869579D02*
X13501015Y-10850531D01*
X13501015Y-10850531D02*
X13510539Y-10841008D01*
X13510539Y-10841008D02*
X13529586Y-10831484D01*
X13720062Y-10831484D02*
X13739110Y-10831484D01*
X13739110Y-10831484D02*
X13758158Y-10841008D01*
X13758158Y-10841008D02*
X13767682Y-10850531D01*
X13767682Y-10850531D02*
X13777205Y-10869579D01*
X13777205Y-10869579D02*
X13786729Y-10907674D01*
X13786729Y-10907674D02*
X13786729Y-10955293D01*
X13786729Y-10955293D02*
X13777205Y-10993389D01*
X13777205Y-10993389D02*
X13767682Y-11012436D01*
X13767682Y-11012436D02*
X13758158Y-11021960D01*
X13758158Y-11021960D02*
X13739110Y-11031484D01*
X13739110Y-11031484D02*
X13720062Y-11031484D01*
X13720062Y-11031484D02*
X13701015Y-11021960D01*
X13701015Y-11021960D02*
X13691491Y-11012436D01*
X13691491Y-11012436D02*
X13681967Y-10993389D01*
X13681967Y-10993389D02*
X13672443Y-10955293D01*
X13672443Y-10955293D02*
X13672443Y-10907674D01*
X13672443Y-10907674D02*
X13681967Y-10869579D01*
X13681967Y-10869579D02*
X13691491Y-10850531D01*
X13691491Y-10850531D02*
X13701015Y-10841008D01*
X13701015Y-10841008D02*
X13720062Y-10831484D01*
X13910539Y-10831484D02*
X13929586Y-10831484D01*
X13929586Y-10831484D02*
X13948634Y-10841008D01*
X13948634Y-10841008D02*
X13958158Y-10850531D01*
X13958158Y-10850531D02*
X13967682Y-10869579D01*
X13967682Y-10869579D02*
X13977205Y-10907674D01*
X13977205Y-10907674D02*
X13977205Y-10955293D01*
X13977205Y-10955293D02*
X13967682Y-10993389D01*
X13967682Y-10993389D02*
X13958158Y-11012436D01*
X13958158Y-11012436D02*
X13948634Y-11021960D01*
X13948634Y-11021960D02*
X13929586Y-11031484D01*
X13929586Y-11031484D02*
X13910539Y-11031484D01*
X13910539Y-11031484D02*
X13891491Y-11021960D01*
X13891491Y-11021960D02*
X13881967Y-11012436D01*
X13881967Y-11012436D02*
X13872443Y-10993389D01*
X13872443Y-10993389D02*
X13862920Y-10955293D01*
X13862920Y-10955293D02*
X13862920Y-10907674D01*
X13862920Y-10907674D02*
X13872443Y-10869579D01*
X13872443Y-10869579D02*
X13881967Y-10850531D01*
X13881967Y-10850531D02*
X13891491Y-10841008D01*
X13891491Y-10841008D02*
X13910539Y-10831484D01*
X14062920Y-11031484D02*
X14062920Y-10898150D01*
X14062920Y-10917198D02*
X14072443Y-10907674D01*
X14072443Y-10907674D02*
X14091491Y-10898150D01*
X14091491Y-10898150D02*
X14120063Y-10898150D01*
X14120063Y-10898150D02*
X14139110Y-10907674D01*
X14139110Y-10907674D02*
X14148634Y-10926722D01*
X14148634Y-10926722D02*
X14148634Y-11031484D01*
X14148634Y-10926722D02*
X14158158Y-10907674D01*
X14158158Y-10907674D02*
X14177205Y-10898150D01*
X14177205Y-10898150D02*
X14205777Y-10898150D01*
X14205777Y-10898150D02*
X14224824Y-10907674D01*
X14224824Y-10907674D02*
X14234348Y-10926722D01*
X14234348Y-10926722D02*
X14234348Y-11031484D01*
X14329586Y-11031484D02*
X14329586Y-10898150D01*
X14329586Y-10917198D02*
X14339110Y-10907674D01*
X14339110Y-10907674D02*
X14358158Y-10898150D01*
X14358158Y-10898150D02*
X14386729Y-10898150D01*
X14386729Y-10898150D02*
X14405777Y-10907674D01*
X14405777Y-10907674D02*
X14415301Y-10926722D01*
X14415301Y-10926722D02*
X14415301Y-11031484D01*
X14415301Y-10926722D02*
X14424824Y-10907674D01*
X14424824Y-10907674D02*
X14443872Y-10898150D01*
X14443872Y-10898150D02*
X14472443Y-10898150D01*
X14472443Y-10898150D02*
X14491491Y-10907674D01*
X14491491Y-10907674D02*
X14501015Y-10926722D01*
X14501015Y-10926722D02*
X14501015Y-11031484D01*
X14891491Y-10821960D02*
X14720063Y-11079103D01*
X15148634Y-10831484D02*
X15167682Y-10831484D01*
X15167682Y-10831484D02*
X15186729Y-10841008D01*
X15186729Y-10841008D02*
X15196253Y-10850531D01*
X15196253Y-10850531D02*
X15205777Y-10869579D01*
X15205777Y-10869579D02*
X15215301Y-10907674D01*
X15215301Y-10907674D02*
X15215301Y-10955293D01*
X15215301Y-10955293D02*
X15205777Y-10993389D01*
X15205777Y-10993389D02*
X15196253Y-11012436D01*
X15196253Y-11012436D02*
X15186729Y-11021960D01*
X15186729Y-11021960D02*
X15167682Y-11031484D01*
X15167682Y-11031484D02*
X15148634Y-11031484D01*
X15148634Y-11031484D02*
X15129586Y-11021960D01*
X15129586Y-11021960D02*
X15120063Y-11012436D01*
X15120063Y-11012436D02*
X15110539Y-10993389D01*
X15110539Y-10993389D02*
X15101015Y-10955293D01*
X15101015Y-10955293D02*
X15101015Y-10907674D01*
X15101015Y-10907674D02*
X15110539Y-10869579D01*
X15110539Y-10869579D02*
X15120063Y-10850531D01*
X15120063Y-10850531D02*
X15129586Y-10841008D01*
X15129586Y-10841008D02*
X15148634Y-10831484D01*
X15301015Y-11012436D02*
X15310539Y-11021960D01*
X15310539Y-11021960D02*
X15301015Y-11031484D01*
X15301015Y-11031484D02*
X15291491Y-11021960D01*
X15291491Y-11021960D02*
X15301015Y-11012436D01*
X15301015Y-11012436D02*
X15301015Y-11031484D01*
X15434348Y-10831484D02*
X15453396Y-10831484D01*
X15453396Y-10831484D02*
X15472444Y-10841008D01*
X15472444Y-10841008D02*
X15481967Y-10850531D01*
X15481967Y-10850531D02*
X15491491Y-10869579D01*
X15491491Y-10869579D02*
X15501015Y-10907674D01*
X15501015Y-10907674D02*
X15501015Y-10955293D01*
X15501015Y-10955293D02*
X15491491Y-10993389D01*
X15491491Y-10993389D02*
X15481967Y-11012436D01*
X15481967Y-11012436D02*
X15472444Y-11021960D01*
X15472444Y-11021960D02*
X15453396Y-11031484D01*
X15453396Y-11031484D02*
X15434348Y-11031484D01*
X15434348Y-11031484D02*
X15415301Y-11021960D01*
X15415301Y-11021960D02*
X15405777Y-11012436D01*
X15405777Y-11012436D02*
X15396253Y-10993389D01*
X15396253Y-10993389D02*
X15386729Y-10955293D01*
X15386729Y-10955293D02*
X15386729Y-10907674D01*
X15386729Y-10907674D02*
X15396253Y-10869579D01*
X15396253Y-10869579D02*
X15405777Y-10850531D01*
X15405777Y-10850531D02*
X15415301Y-10841008D01*
X15415301Y-10841008D02*
X15434348Y-10831484D01*
X15567682Y-10831484D02*
X15691491Y-10831484D01*
X15691491Y-10831484D02*
X15624825Y-10907674D01*
X15624825Y-10907674D02*
X15653396Y-10907674D01*
X15653396Y-10907674D02*
X15672444Y-10917198D01*
X15672444Y-10917198D02*
X15681967Y-10926722D01*
X15681967Y-10926722D02*
X15691491Y-10945770D01*
X15691491Y-10945770D02*
X15691491Y-10993389D01*
X15691491Y-10993389D02*
X15681967Y-11012436D01*
X15681967Y-11012436D02*
X15672444Y-11021960D01*
X15672444Y-11021960D02*
X15653396Y-11031484D01*
X15653396Y-11031484D02*
X15596253Y-11031484D01*
X15596253Y-11031484D02*
X15577206Y-11021960D01*
X15577206Y-11021960D02*
X15567682Y-11012436D01*
X15786729Y-11031484D02*
X15824825Y-11031484D01*
X15824825Y-11031484D02*
X15843872Y-11021960D01*
X15843872Y-11021960D02*
X15853396Y-11012436D01*
X15853396Y-11012436D02*
X15872444Y-10983865D01*
X15872444Y-10983865D02*
X15881967Y-10945770D01*
X15881967Y-10945770D02*
X15881967Y-10869579D01*
X15881967Y-10869579D02*
X15872444Y-10850531D01*
X15872444Y-10850531D02*
X15862920Y-10841008D01*
X15862920Y-10841008D02*
X15843872Y-10831484D01*
X15843872Y-10831484D02*
X15805777Y-10831484D01*
X15805777Y-10831484D02*
X15786729Y-10841008D01*
X15786729Y-10841008D02*
X15777206Y-10850531D01*
X15777206Y-10850531D02*
X15767682Y-10869579D01*
X15767682Y-10869579D02*
X15767682Y-10917198D01*
X15767682Y-10917198D02*
X15777206Y-10936246D01*
X15777206Y-10936246D02*
X15786729Y-10945770D01*
X15786729Y-10945770D02*
X15805777Y-10955293D01*
X15805777Y-10955293D02*
X15843872Y-10955293D01*
X15843872Y-10955293D02*
X15862920Y-10945770D01*
X15862920Y-10945770D02*
X15872444Y-10936246D01*
X15872444Y-10936246D02*
X15881967Y-10917198D01*
X16053396Y-10898150D02*
X16053396Y-11031484D01*
X16005777Y-10821960D02*
X15958158Y-10964817D01*
X15958158Y-10964817D02*
X16081967Y-10964817D01*
X16148634Y-10831484D02*
X16148634Y-10869579D01*
X16224825Y-10831484D02*
X16224825Y-10869579D01*
X16520063Y-11107674D02*
X16510539Y-11098150D01*
X16510539Y-11098150D02*
X16491491Y-11069579D01*
X16491491Y-11069579D02*
X16481968Y-11050531D01*
X16481968Y-11050531D02*
X16472444Y-11021960D01*
X16472444Y-11021960D02*
X16462920Y-10974341D01*
X16462920Y-10974341D02*
X16462920Y-10936246D01*
X16462920Y-10936246D02*
X16472444Y-10888627D01*
X16472444Y-10888627D02*
X16481968Y-10860055D01*
X16481968Y-10860055D02*
X16491491Y-10841008D01*
X16491491Y-10841008D02*
X16510539Y-10812436D01*
X16510539Y-10812436D02*
X16520063Y-10802912D01*
X16586729Y-10850531D02*
X16596253Y-10841008D01*
X16596253Y-10841008D02*
X16615301Y-10831484D01*
X16615301Y-10831484D02*
X16662920Y-10831484D01*
X16662920Y-10831484D02*
X16681968Y-10841008D01*
X16681968Y-10841008D02*
X16691491Y-10850531D01*
X16691491Y-10850531D02*
X16701015Y-10869579D01*
X16701015Y-10869579D02*
X16701015Y-10888627D01*
X16701015Y-10888627D02*
X16691491Y-10917198D01*
X16691491Y-10917198D02*
X16577206Y-11031484D01*
X16577206Y-11031484D02*
X16701015Y-11031484D01*
X16872444Y-10898150D02*
X16872444Y-11031484D01*
X16824825Y-10821960D02*
X16777206Y-10964817D01*
X16777206Y-10964817D02*
X16901015Y-10964817D01*
X17129587Y-11031484D02*
X17129587Y-10831484D01*
X17215301Y-11031484D02*
X17215301Y-10926722D01*
X17215301Y-10926722D02*
X17205777Y-10907674D01*
X17205777Y-10907674D02*
X17186730Y-10898150D01*
X17186730Y-10898150D02*
X17158158Y-10898150D01*
X17158158Y-10898150D02*
X17139111Y-10907674D01*
X17139111Y-10907674D02*
X17129587Y-10917198D01*
X17339111Y-11031484D02*
X17320063Y-11021960D01*
X17320063Y-11021960D02*
X17310539Y-11012436D01*
X17310539Y-11012436D02*
X17301015Y-10993389D01*
X17301015Y-10993389D02*
X17301015Y-10936246D01*
X17301015Y-10936246D02*
X17310539Y-10917198D01*
X17310539Y-10917198D02*
X17320063Y-10907674D01*
X17320063Y-10907674D02*
X17339111Y-10898150D01*
X17339111Y-10898150D02*
X17367682Y-10898150D01*
X17367682Y-10898150D02*
X17386730Y-10907674D01*
X17386730Y-10907674D02*
X17396253Y-10917198D01*
X17396253Y-10917198D02*
X17405777Y-10936246D01*
X17405777Y-10936246D02*
X17405777Y-10993389D01*
X17405777Y-10993389D02*
X17396253Y-11012436D01*
X17396253Y-11012436D02*
X17386730Y-11021960D01*
X17386730Y-11021960D02*
X17367682Y-11031484D01*
X17367682Y-11031484D02*
X17339111Y-11031484D01*
X17520063Y-11031484D02*
X17501015Y-11021960D01*
X17501015Y-11021960D02*
X17491492Y-11002912D01*
X17491492Y-11002912D02*
X17491492Y-10831484D01*
X17672444Y-11021960D02*
X17653396Y-11031484D01*
X17653396Y-11031484D02*
X17615301Y-11031484D01*
X17615301Y-11031484D02*
X17596253Y-11021960D01*
X17596253Y-11021960D02*
X17586730Y-11002912D01*
X17586730Y-11002912D02*
X17586730Y-10926722D01*
X17586730Y-10926722D02*
X17596253Y-10907674D01*
X17596253Y-10907674D02*
X17615301Y-10898150D01*
X17615301Y-10898150D02*
X17653396Y-10898150D01*
X17653396Y-10898150D02*
X17672444Y-10907674D01*
X17672444Y-10907674D02*
X17681968Y-10926722D01*
X17681968Y-10926722D02*
X17681968Y-10945770D01*
X17681968Y-10945770D02*
X17586730Y-10964817D01*
X17758158Y-11021960D02*
X17777206Y-11031484D01*
X17777206Y-11031484D02*
X17815301Y-11031484D01*
X17815301Y-11031484D02*
X17834349Y-11021960D01*
X17834349Y-11021960D02*
X17843873Y-11002912D01*
X17843873Y-11002912D02*
X17843873Y-10993389D01*
X17843873Y-10993389D02*
X17834349Y-10974341D01*
X17834349Y-10974341D02*
X17815301Y-10964817D01*
X17815301Y-10964817D02*
X17786730Y-10964817D01*
X17786730Y-10964817D02*
X17767682Y-10955293D01*
X17767682Y-10955293D02*
X17758158Y-10936246D01*
X17758158Y-10936246D02*
X17758158Y-10926722D01*
X17758158Y-10926722D02*
X17767682Y-10907674D01*
X17767682Y-10907674D02*
X17786730Y-10898150D01*
X17786730Y-10898150D02*
X17815301Y-10898150D01*
X17815301Y-10898150D02*
X17834349Y-10907674D01*
X17910539Y-11107674D02*
X17920063Y-11098150D01*
X17920063Y-11098150D02*
X17939111Y-11069579D01*
X17939111Y-11069579D02*
X17948634Y-11050531D01*
X17948634Y-11050531D02*
X17958158Y-11021960D01*
X17958158Y-11021960D02*
X17967682Y-10974341D01*
X17967682Y-10974341D02*
X17967682Y-10936246D01*
X17967682Y-10936246D02*
X17958158Y-10888627D01*
X17958158Y-10888627D02*
X17948634Y-10860055D01*
X17948634Y-10860055D02*
X17939111Y-10841008D01*
X17939111Y-10841008D02*
X17920063Y-10812436D01*
X17920063Y-10812436D02*
X17910539Y-10802912D01*
D13*
X12785000Y-11124000D02*
X12945000Y-11284000D01*
X12945000Y-11124000D02*
X12785000Y-11284000D01*
X12865000Y-11124000D02*
X12865000Y-11284000D01*
X12785000Y-11204000D02*
X12945000Y-11204000D01*
D12*
X13310539Y-11295484D02*
X13196253Y-11295484D01*
X13253396Y-11295484D02*
X13253396Y-11095484D01*
X13253396Y-11095484D02*
X13234348Y-11124055D01*
X13234348Y-11124055D02*
X13215301Y-11143103D01*
X13215301Y-11143103D02*
X13196253Y-11152627D01*
X13396253Y-11276436D02*
X13405777Y-11285960D01*
X13405777Y-11285960D02*
X13396253Y-11295484D01*
X13396253Y-11295484D02*
X13386729Y-11285960D01*
X13386729Y-11285960D02*
X13396253Y-11276436D01*
X13396253Y-11276436D02*
X13396253Y-11295484D01*
X13577205Y-11095484D02*
X13539110Y-11095484D01*
X13539110Y-11095484D02*
X13520062Y-11105008D01*
X13520062Y-11105008D02*
X13510539Y-11114531D01*
X13510539Y-11114531D02*
X13491491Y-11143103D01*
X13491491Y-11143103D02*
X13481967Y-11181198D01*
X13481967Y-11181198D02*
X13481967Y-11257388D01*
X13481967Y-11257388D02*
X13491491Y-11276436D01*
X13491491Y-11276436D02*
X13501015Y-11285960D01*
X13501015Y-11285960D02*
X13520062Y-11295484D01*
X13520062Y-11295484D02*
X13558158Y-11295484D01*
X13558158Y-11295484D02*
X13577205Y-11285960D01*
X13577205Y-11285960D02*
X13586729Y-11276436D01*
X13586729Y-11276436D02*
X13596253Y-11257388D01*
X13596253Y-11257388D02*
X13596253Y-11209769D01*
X13596253Y-11209769D02*
X13586729Y-11190722D01*
X13586729Y-11190722D02*
X13577205Y-11181198D01*
X13577205Y-11181198D02*
X13558158Y-11171674D01*
X13558158Y-11171674D02*
X13520062Y-11171674D01*
X13520062Y-11171674D02*
X13501015Y-11181198D01*
X13501015Y-11181198D02*
X13491491Y-11190722D01*
X13491491Y-11190722D02*
X13481967Y-11209769D01*
X13720062Y-11095484D02*
X13739110Y-11095484D01*
X13739110Y-11095484D02*
X13758158Y-11105008D01*
X13758158Y-11105008D02*
X13767682Y-11114531D01*
X13767682Y-11114531D02*
X13777205Y-11133579D01*
X13777205Y-11133579D02*
X13786729Y-11171674D01*
X13786729Y-11171674D02*
X13786729Y-11219293D01*
X13786729Y-11219293D02*
X13777205Y-11257388D01*
X13777205Y-11257388D02*
X13767682Y-11276436D01*
X13767682Y-11276436D02*
X13758158Y-11285960D01*
X13758158Y-11285960D02*
X13739110Y-11295484D01*
X13739110Y-11295484D02*
X13720062Y-11295484D01*
X13720062Y-11295484D02*
X13701015Y-11285960D01*
X13701015Y-11285960D02*
X13691491Y-11276436D01*
X13691491Y-11276436D02*
X13681967Y-11257388D01*
X13681967Y-11257388D02*
X13672443Y-11219293D01*
X13672443Y-11219293D02*
X13672443Y-11171674D01*
X13672443Y-11171674D02*
X13681967Y-11133579D01*
X13681967Y-11133579D02*
X13691491Y-11114531D01*
X13691491Y-11114531D02*
X13701015Y-11105008D01*
X13701015Y-11105008D02*
X13720062Y-11095484D01*
X13910539Y-11095484D02*
X13929586Y-11095484D01*
X13929586Y-11095484D02*
X13948634Y-11105008D01*
X13948634Y-11105008D02*
X13958158Y-11114531D01*
X13958158Y-11114531D02*
X13967682Y-11133579D01*
X13967682Y-11133579D02*
X13977205Y-11171674D01*
X13977205Y-11171674D02*
X13977205Y-11219293D01*
X13977205Y-11219293D02*
X13967682Y-11257388D01*
X13967682Y-11257388D02*
X13958158Y-11276436D01*
X13958158Y-11276436D02*
X13948634Y-11285960D01*
X13948634Y-11285960D02*
X13929586Y-11295484D01*
X13929586Y-11295484D02*
X13910539Y-11295484D01*
X13910539Y-11295484D02*
X13891491Y-11285960D01*
X13891491Y-11285960D02*
X13881967Y-11276436D01*
X13881967Y-11276436D02*
X13872443Y-11257388D01*
X13872443Y-11257388D02*
X13862920Y-11219293D01*
X13862920Y-11219293D02*
X13862920Y-11171674D01*
X13862920Y-11171674D02*
X13872443Y-11133579D01*
X13872443Y-11133579D02*
X13881967Y-11114531D01*
X13881967Y-11114531D02*
X13891491Y-11105008D01*
X13891491Y-11105008D02*
X13910539Y-11095484D01*
X14062920Y-11295484D02*
X14062920Y-11162150D01*
X14062920Y-11181198D02*
X14072443Y-11171674D01*
X14072443Y-11171674D02*
X14091491Y-11162150D01*
X14091491Y-11162150D02*
X14120063Y-11162150D01*
X14120063Y-11162150D02*
X14139110Y-11171674D01*
X14139110Y-11171674D02*
X14148634Y-11190722D01*
X14148634Y-11190722D02*
X14148634Y-11295484D01*
X14148634Y-11190722D02*
X14158158Y-11171674D01*
X14158158Y-11171674D02*
X14177205Y-11162150D01*
X14177205Y-11162150D02*
X14205777Y-11162150D01*
X14205777Y-11162150D02*
X14224824Y-11171674D01*
X14224824Y-11171674D02*
X14234348Y-11190722D01*
X14234348Y-11190722D02*
X14234348Y-11295484D01*
X14329586Y-11295484D02*
X14329586Y-11162150D01*
X14329586Y-11181198D02*
X14339110Y-11171674D01*
X14339110Y-11171674D02*
X14358158Y-11162150D01*
X14358158Y-11162150D02*
X14386729Y-11162150D01*
X14386729Y-11162150D02*
X14405777Y-11171674D01*
X14405777Y-11171674D02*
X14415301Y-11190722D01*
X14415301Y-11190722D02*
X14415301Y-11295484D01*
X14415301Y-11190722D02*
X14424824Y-11171674D01*
X14424824Y-11171674D02*
X14443872Y-11162150D01*
X14443872Y-11162150D02*
X14472443Y-11162150D01*
X14472443Y-11162150D02*
X14491491Y-11171674D01*
X14491491Y-11171674D02*
X14501015Y-11190722D01*
X14501015Y-11190722D02*
X14501015Y-11295484D01*
X14891491Y-11085960D02*
X14720063Y-11343103D01*
X15148634Y-11095484D02*
X15167682Y-11095484D01*
X15167682Y-11095484D02*
X15186729Y-11105008D01*
X15186729Y-11105008D02*
X15196253Y-11114531D01*
X15196253Y-11114531D02*
X15205777Y-11133579D01*
X15205777Y-11133579D02*
X15215301Y-11171674D01*
X15215301Y-11171674D02*
X15215301Y-11219293D01*
X15215301Y-11219293D02*
X15205777Y-11257388D01*
X15205777Y-11257388D02*
X15196253Y-11276436D01*
X15196253Y-11276436D02*
X15186729Y-11285960D01*
X15186729Y-11285960D02*
X15167682Y-11295484D01*
X15167682Y-11295484D02*
X15148634Y-11295484D01*
X15148634Y-11295484D02*
X15129586Y-11285960D01*
X15129586Y-11285960D02*
X15120063Y-11276436D01*
X15120063Y-11276436D02*
X15110539Y-11257388D01*
X15110539Y-11257388D02*
X15101015Y-11219293D01*
X15101015Y-11219293D02*
X15101015Y-11171674D01*
X15101015Y-11171674D02*
X15110539Y-11133579D01*
X15110539Y-11133579D02*
X15120063Y-11114531D01*
X15120063Y-11114531D02*
X15129586Y-11105008D01*
X15129586Y-11105008D02*
X15148634Y-11095484D01*
X15301015Y-11276436D02*
X15310539Y-11285960D01*
X15310539Y-11285960D02*
X15301015Y-11295484D01*
X15301015Y-11295484D02*
X15291491Y-11285960D01*
X15291491Y-11285960D02*
X15301015Y-11276436D01*
X15301015Y-11276436D02*
X15301015Y-11295484D01*
X15434348Y-11095484D02*
X15453396Y-11095484D01*
X15453396Y-11095484D02*
X15472444Y-11105008D01*
X15472444Y-11105008D02*
X15481967Y-11114531D01*
X15481967Y-11114531D02*
X15491491Y-11133579D01*
X15491491Y-11133579D02*
X15501015Y-11171674D01*
X15501015Y-11171674D02*
X15501015Y-11219293D01*
X15501015Y-11219293D02*
X15491491Y-11257388D01*
X15491491Y-11257388D02*
X15481967Y-11276436D01*
X15481967Y-11276436D02*
X15472444Y-11285960D01*
X15472444Y-11285960D02*
X15453396Y-11295484D01*
X15453396Y-11295484D02*
X15434348Y-11295484D01*
X15434348Y-11295484D02*
X15415301Y-11285960D01*
X15415301Y-11285960D02*
X15405777Y-11276436D01*
X15405777Y-11276436D02*
X15396253Y-11257388D01*
X15396253Y-11257388D02*
X15386729Y-11219293D01*
X15386729Y-11219293D02*
X15386729Y-11171674D01*
X15386729Y-11171674D02*
X15396253Y-11133579D01*
X15396253Y-11133579D02*
X15405777Y-11114531D01*
X15405777Y-11114531D02*
X15415301Y-11105008D01*
X15415301Y-11105008D02*
X15434348Y-11095484D01*
X15672444Y-11095484D02*
X15634348Y-11095484D01*
X15634348Y-11095484D02*
X15615301Y-11105008D01*
X15615301Y-11105008D02*
X15605777Y-11114531D01*
X15605777Y-11114531D02*
X15586729Y-11143103D01*
X15586729Y-11143103D02*
X15577206Y-11181198D01*
X15577206Y-11181198D02*
X15577206Y-11257388D01*
X15577206Y-11257388D02*
X15586729Y-11276436D01*
X15586729Y-11276436D02*
X15596253Y-11285960D01*
X15596253Y-11285960D02*
X15615301Y-11295484D01*
X15615301Y-11295484D02*
X15653396Y-11295484D01*
X15653396Y-11295484D02*
X15672444Y-11285960D01*
X15672444Y-11285960D02*
X15681967Y-11276436D01*
X15681967Y-11276436D02*
X15691491Y-11257388D01*
X15691491Y-11257388D02*
X15691491Y-11209769D01*
X15691491Y-11209769D02*
X15681967Y-11190722D01*
X15681967Y-11190722D02*
X15672444Y-11181198D01*
X15672444Y-11181198D02*
X15653396Y-11171674D01*
X15653396Y-11171674D02*
X15615301Y-11171674D01*
X15615301Y-11171674D02*
X15596253Y-11181198D01*
X15596253Y-11181198D02*
X15586729Y-11190722D01*
X15586729Y-11190722D02*
X15577206Y-11209769D01*
X15758158Y-11095484D02*
X15881967Y-11095484D01*
X15881967Y-11095484D02*
X15815301Y-11171674D01*
X15815301Y-11171674D02*
X15843872Y-11171674D01*
X15843872Y-11171674D02*
X15862920Y-11181198D01*
X15862920Y-11181198D02*
X15872444Y-11190722D01*
X15872444Y-11190722D02*
X15881967Y-11209769D01*
X15881967Y-11209769D02*
X15881967Y-11257388D01*
X15881967Y-11257388D02*
X15872444Y-11276436D01*
X15872444Y-11276436D02*
X15862920Y-11285960D01*
X15862920Y-11285960D02*
X15843872Y-11295484D01*
X15843872Y-11295484D02*
X15786729Y-11295484D01*
X15786729Y-11295484D02*
X15767682Y-11285960D01*
X15767682Y-11285960D02*
X15758158Y-11276436D01*
X16005777Y-11095484D02*
X16024825Y-11095484D01*
X16024825Y-11095484D02*
X16043872Y-11105008D01*
X16043872Y-11105008D02*
X16053396Y-11114531D01*
X16053396Y-11114531D02*
X16062920Y-11133579D01*
X16062920Y-11133579D02*
X16072444Y-11171674D01*
X16072444Y-11171674D02*
X16072444Y-11219293D01*
X16072444Y-11219293D02*
X16062920Y-11257388D01*
X16062920Y-11257388D02*
X16053396Y-11276436D01*
X16053396Y-11276436D02*
X16043872Y-11285960D01*
X16043872Y-11285960D02*
X16024825Y-11295484D01*
X16024825Y-11295484D02*
X16005777Y-11295484D01*
X16005777Y-11295484D02*
X15986729Y-11285960D01*
X15986729Y-11285960D02*
X15977206Y-11276436D01*
X15977206Y-11276436D02*
X15967682Y-11257388D01*
X15967682Y-11257388D02*
X15958158Y-11219293D01*
X15958158Y-11219293D02*
X15958158Y-11171674D01*
X15958158Y-11171674D02*
X15967682Y-11133579D01*
X15967682Y-11133579D02*
X15977206Y-11114531D01*
X15977206Y-11114531D02*
X15986729Y-11105008D01*
X15986729Y-11105008D02*
X16005777Y-11095484D01*
X16148634Y-11095484D02*
X16148634Y-11133579D01*
X16224825Y-11095484D02*
X16224825Y-11133579D01*
X16520063Y-11371674D02*
X16510539Y-11362150D01*
X16510539Y-11362150D02*
X16491491Y-11333579D01*
X16491491Y-11333579D02*
X16481968Y-11314531D01*
X16481968Y-11314531D02*
X16472444Y-11285960D01*
X16472444Y-11285960D02*
X16462920Y-11238341D01*
X16462920Y-11238341D02*
X16462920Y-11200246D01*
X16462920Y-11200246D02*
X16472444Y-11152627D01*
X16472444Y-11152627D02*
X16481968Y-11124055D01*
X16481968Y-11124055D02*
X16491491Y-11105008D01*
X16491491Y-11105008D02*
X16510539Y-11076436D01*
X16510539Y-11076436D02*
X16520063Y-11066912D01*
X16681968Y-11162150D02*
X16681968Y-11295484D01*
X16634348Y-11085960D02*
X16586729Y-11228817D01*
X16586729Y-11228817D02*
X16710539Y-11228817D01*
X16939111Y-11295484D02*
X16939111Y-11095484D01*
X17024825Y-11295484D02*
X17024825Y-11190722D01*
X17024825Y-11190722D02*
X17015301Y-11171674D01*
X17015301Y-11171674D02*
X16996253Y-11162150D01*
X16996253Y-11162150D02*
X16967682Y-11162150D01*
X16967682Y-11162150D02*
X16948634Y-11171674D01*
X16948634Y-11171674D02*
X16939111Y-11181198D01*
X17148634Y-11295484D02*
X17129587Y-11285960D01*
X17129587Y-11285960D02*
X17120063Y-11276436D01*
X17120063Y-11276436D02*
X17110539Y-11257388D01*
X17110539Y-11257388D02*
X17110539Y-11200246D01*
X17110539Y-11200246D02*
X17120063Y-11181198D01*
X17120063Y-11181198D02*
X17129587Y-11171674D01*
X17129587Y-11171674D02*
X17148634Y-11162150D01*
X17148634Y-11162150D02*
X17177206Y-11162150D01*
X17177206Y-11162150D02*
X17196253Y-11171674D01*
X17196253Y-11171674D02*
X17205777Y-11181198D01*
X17205777Y-11181198D02*
X17215301Y-11200246D01*
X17215301Y-11200246D02*
X17215301Y-11257388D01*
X17215301Y-11257388D02*
X17205777Y-11276436D01*
X17205777Y-11276436D02*
X17196253Y-11285960D01*
X17196253Y-11285960D02*
X17177206Y-11295484D01*
X17177206Y-11295484D02*
X17148634Y-11295484D01*
X17329587Y-11295484D02*
X17310539Y-11285960D01*
X17310539Y-11285960D02*
X17301015Y-11266912D01*
X17301015Y-11266912D02*
X17301015Y-11095484D01*
X17481968Y-11285960D02*
X17462920Y-11295484D01*
X17462920Y-11295484D02*
X17424825Y-11295484D01*
X17424825Y-11295484D02*
X17405777Y-11285960D01*
X17405777Y-11285960D02*
X17396253Y-11266912D01*
X17396253Y-11266912D02*
X17396253Y-11190722D01*
X17396253Y-11190722D02*
X17405777Y-11171674D01*
X17405777Y-11171674D02*
X17424825Y-11162150D01*
X17424825Y-11162150D02*
X17462920Y-11162150D01*
X17462920Y-11162150D02*
X17481968Y-11171674D01*
X17481968Y-11171674D02*
X17491492Y-11190722D01*
X17491492Y-11190722D02*
X17491492Y-11209769D01*
X17491492Y-11209769D02*
X17396253Y-11228817D01*
X17567682Y-11285960D02*
X17586730Y-11295484D01*
X17586730Y-11295484D02*
X17624825Y-11295484D01*
X17624825Y-11295484D02*
X17643873Y-11285960D01*
X17643873Y-11285960D02*
X17653396Y-11266912D01*
X17653396Y-11266912D02*
X17653396Y-11257388D01*
X17653396Y-11257388D02*
X17643873Y-11238341D01*
X17643873Y-11238341D02*
X17624825Y-11228817D01*
X17624825Y-11228817D02*
X17596253Y-11228817D01*
X17596253Y-11228817D02*
X17577206Y-11219293D01*
X17577206Y-11219293D02*
X17567682Y-11200246D01*
X17567682Y-11200246D02*
X17567682Y-11190722D01*
X17567682Y-11190722D02*
X17577206Y-11171674D01*
X17577206Y-11171674D02*
X17596253Y-11162150D01*
X17596253Y-11162150D02*
X17624825Y-11162150D01*
X17624825Y-11162150D02*
X17643873Y-11171674D01*
X17720063Y-11371674D02*
X17729587Y-11362150D01*
X17729587Y-11362150D02*
X17748634Y-11333579D01*
X17748634Y-11333579D02*
X17758158Y-11314531D01*
X17758158Y-11314531D02*
X17767682Y-11285960D01*
X17767682Y-11285960D02*
X17777206Y-11238341D01*
X17777206Y-11238341D02*
X17777206Y-11200246D01*
X17777206Y-11200246D02*
X17767682Y-11152627D01*
X17767682Y-11152627D02*
X17758158Y-11124055D01*
X17758158Y-11124055D02*
X17748634Y-11105008D01*
X17748634Y-11105008D02*
X17729587Y-11076436D01*
X17729587Y-11076436D02*
X17720063Y-11066912D01*
M02*
