M48
; DRILL file {KiCad 7.0.10} date Fri Feb  2 07:34:25 2024
; FORMAT={-:-/ absolute / inch / decimal}
; #@! TF.CreationDate,2024-02-02T07:34:25+01:00
; #@! TF.GenerationSoftware,Kicad,Pcbnew,7.0.10
; #@! TF.FileFunction,Plated,1,4,PTH
FMAT,2
INCH
; #@! TA.AperFunction,Plated,PTH,ViaDrill
T1C0.0079
; #@! TA.AperFunction,Plated,PTH,ComponentDrill
T2C0.0079
; #@! TA.AperFunction,Plated,PTH,ViaDrill
T3C0.0118
; #@! TA.AperFunction,Plated,PTH,ComponentDrill
T4C0.0197
; #@! TA.AperFunction,Plated,PTH,ComponentDrill
T5C0.0315
; #@! TA.AperFunction,Plated,PTH,ComponentDrill
T6C0.0394
; #@! TA.AperFunction,Plated,PTH,ComponentDrill
T7C0.0630
%
G90
G05
T1
X6.374Y-3.0236
X6.374Y-3.0984
X6.4055Y-3.2008
X6.4941Y-3.0984
X6.5197Y-2.6043
X6.6476Y-3.3543
X6.6752Y-3.0039
X6.6811Y-2.8514
X6.7913Y-3.252
X6.7913Y-3.2992
X6.8228Y-3.3504
X6.8602Y-3.2014
X6.9331Y-2.6929
X7.5059Y-3.1575
X7.5059Y-3.2185
X7.5217Y-2.5492
X7.5433Y-2.6811
X7.7992Y-3.2402
T2
X7.0866Y-3.126
X7.0866Y-3.1811
X7.1142Y-3.0984
X7.1142Y-3.1535
X7.1142Y-3.2087
X7.1417Y-3.126
X7.1417Y-3.1811
X7.1693Y-3.0984
X7.1693Y-3.1535
X7.1693Y-3.2087
X7.1969Y-3.126
X7.1969Y-3.1811
T3
X5.9961Y-2.5157
X6.0118Y-2.9045
X6.0315Y-2.5157
X6.0571Y-2.9144
X6.0669Y-2.6299
X6.0866Y-2.6673
X6.122Y-2.8583
X6.1319Y-2.9144
X6.2205Y-2.8583
X6.2402Y-3.2234
X6.2756Y-3.126
X6.3081Y-2.7195
X6.3996Y-2.628
X6.3996Y-2.687
X6.4882Y-2.7283
X6.4897Y-2.9685
X6.6535Y-3.1339
X6.6535Y-3.1929
X6.689Y-3.4508
X6.7165Y-2.6294
X7.3071Y-2.7106
X7.563Y-2.6142
X7.5709Y-2.9626
X7.5984Y-2.8346
X7.628Y-3.4705
X7.6299Y-3.437
X7.6555Y-3.2835
X7.6575Y-2.8346
X7.6693Y-2.5512
X7.7303Y-3.2677
X7.7461Y-2.9272
X7.7815Y-2.8337
X7.8622Y-3.1339
X8.0315Y-2.5689
X8.0315Y-2.8248
X8.0906Y-2.4503
X8.0906Y-3.2874
X8.0906Y-3.3268
X8.0906Y-3.3583
X8.0906Y-3.4055
T4
X6.0571Y-3.0709
X6.1319Y-3.0709
T5
X7.9104Y-2.3315
X7.9104Y-2.4315
X7.9104Y-2.5315
T6
X5.3543Y-2.5197
X5.3543Y-3.4252
X5.4543Y-2.5197
X5.8055Y-2.5197
X5.9055Y-2.5197
X5.9055Y-3.4252
X6.1043Y-2.2435
X6.1043Y-2.3435
X6.2484Y-2.3425
X6.3484Y-2.3425
X6.4484Y-2.3425
X6.5484Y-2.3425
X6.6484Y-2.3425
X6.7484Y-2.3425
X6.8976Y-2.2415
X6.8976Y-2.3415
X7.0457Y-2.3425
X7.1457Y-2.3425
X7.2457Y-2.3425
X7.3457Y-2.3425
X7.4457Y-2.3425
X7.5457Y-2.3425
X7.8465Y-2.8917
X7.8465Y-2.9917
T7
X5.2008Y-2.3504
X5.2008Y-3.1102
X8.0709Y-2.3504
X8.0709Y-3.1102
M30
